<?xml version="1.0" encoding="UTF-8" standalone="no"?>

<svg
   width="3.93701in"
   height="3.93701in"
   viewBox="0 0 283.465 283.465"
   xml:space="preserve"
   color-interpolation-filters="sRGB"
   class="st3"
   version="1.1"
   id="svg3"
   sodipodi:docname="Altimeter.svg"
   inkscape:version="1.4 (86a8ad7, 2024-10-11)"
   xmlns:inkscape="http://www.inkscape.org/namespaces/inkscape"
   xmlns:sodipodi="http://sodipodi.sourceforge.net/DTD/sodipodi-0.dtd"
   xmlns="http://www.w3.org/2000/svg"
   xmlns:svg="http://www.w3.org/2000/svg"><defs
   id="defs3">
			
			
		
			
			
		</defs><sodipodi:namedview
   id="namedview3"
   pagecolor="#ffffff"
   bordercolor="#000000"
   borderopacity="0.25"
   inkscape:showpageshadow="2"
   inkscape:pageopacity="0.0"
   inkscape:pagecheckerboard="0"
   inkscape:deskcolor="#d1d1d1"
   inkscape:document-units="in"
   inkscape:zoom="2.1833236"
   inkscape:cx="161.2221"
   inkscape:cy="423.43701"
   inkscape:window-width="2560"
   inkscape:window-height="1369"
   inkscape:window-x="-8"
   inkscape:window-y="-8"
   inkscape:window-maximized="1"
   inkscape:current-layer="layer1" />
	<style
   type="text/css"
   id="style1">
	<![CDATA[
		.st1 {fill:#000000;stroke:none;stroke-linecap:round;stroke-linejoin:round;stroke-width:0.75}
		.st2 {fill:#333333;stroke:none;stroke-linecap:round;stroke-linejoin:round;stroke-width:0.75}
		.st3 {fill:none;fill-rule:evenodd;font-size:12px;overflow:visible;stroke-linecap:square;stroke-miterlimit:3}
	]]>
	</style>

	<g
   id="g3"
   style="display:inline;fill:#1f1f1f;fill-opacity:1;stroke:#040404;stroke-opacity:1"
   inkscape:label="background"
   inkscape:highlight-color="#00ffff">
		<title
   id="title1">Bckground</title>
		<circle
   cx="2.4414062e-06"
   cy="283.465"
   class="st1"
   id="ellipse2"
   style="fill:#000000;fill-opacity:1;stroke:#040404;stroke-opacity:1"
   r="140.315" />
		<circle
   cx="3.540039e-06"
   cy="283.465"
   class="st2"
   id="ellipse3"
   style="fill:#1f1f1f;fill-opacity:1;stroke:#040404;stroke-opacity:1"
   r="136.063" />
	</g>
<g
   inkscape:groupmode="layer"
   id="layer1"
   inkscape:label="scale"
   inkscape:highlight-color="#fff3ff"><rect
     x="0"
     y="261.354"
     width="5.1023598"
     height="22.110201"
     class="st1"
     id="rect43"
     style="fill:#f7f7f7;fill-opacity:1;stroke:#f7f7f7;stroke-width:1.008;stroke-dasharray:none;stroke-opacity:1"
     transform="rotate(144,-19.536091,219.2511)" /><rect
     x="0"
     y="272.12601"
     width="2.26772"
     height="11.3386"
     class="st1"
     id="rect44"
     style="fill:#f7f7f7;fill-opacity:1;stroke:#f7f7f7;stroke-width:1.008;stroke-dasharray:none;stroke-opacity:1"
     transform="rotate(115.2,-39.863922,219.2745)" /><rect
     x="0"
     y="272.12601"
     width="2.26772"
     height="11.3386"
     class="st1"
     id="rect45"
     style="fill:#f7f7f7;fill-opacity:1;stroke:#f7f7f7;stroke-width:1.008;stroke-dasharray:none;stroke-opacity:1"
     transform="rotate(122.4,-34.528423,219.37805)" /><rect
     x="0"
     y="272.12601"
     width="2.26772"
     height="11.3386"
     class="st1"
     id="rect46"
     style="fill:#f7f7f7;fill-opacity:1;stroke:#f7f7f7;stroke-width:1.008;stroke-dasharray:none;stroke-opacity:1"
     transform="rotate(129.6,-29.488223,219.37076)" /><rect
     x="0"
     y="272.12601"
     width="2.26772"
     height="11.3386"
     class="st1"
     id="rect47"
     style="fill:#f7f7f7;fill-opacity:1;stroke:#f7f7f7;stroke-width:1.008;stroke-dasharray:none;stroke-opacity:1"
     transform="rotate(136.8,-24.696165,219.46223)" /><rect
     x="0"
     y="272.12601"
     width="2.26772"
     height="11.3386"
     class="st1"
     id="rect48"
     style="fill:#f7f7f7;fill-opacity:1;stroke:#f7f7f7;stroke-width:1.008;stroke-dasharray:none;stroke-opacity:1"
     transform="rotate(151.2,-15.866358,219.57568)" /><rect
     x="0"
     y="272.12601"
     width="2.26772"
     height="11.3386"
     class="st1"
     id="rect49"
     style="fill:#f7f7f7;fill-opacity:1;stroke:#f7f7f7;stroke-width:1.008;stroke-dasharray:none;stroke-opacity:1"
     transform="rotate(158.4,-11.674566,219.62145)" /><rect
     x="0"
     y="272.12601"
     width="2.26772"
     height="11.3386"
     class="st1"
     id="rect50"
     style="fill:#f7f7f7;fill-opacity:1;stroke:#f7f7f7;stroke-width:1.008;stroke-dasharray:none;stroke-opacity:1"
     transform="rotate(172.8,-3.4084362,219.71617)" /><rect
     x="0"
     y="272.12601"
     width="2.26772"
     height="11.3386"
     class="st1"
     id="rect51"
     style="fill:#f7f7f7;fill-opacity:1;stroke:#f7f7f7;stroke-width:1.008;stroke-dasharray:none;stroke-opacity:1"
     transform="rotate(165.6,-7.515841,219.59036)" /><path
     d="m 18.619984,275.42001 h -3.12109 v -19.14157 q -1.892576,1.26171 -5.8603441,1.26171 v -2.45703 q 5.7275321,0 6.5742111,-4.41601 h 2.407223 z"
     id="text52"
     class="st3"
     style="font-weight:bold;font-size:96.3331px;font-family:'Microsoft Sans Serif';fill:#f7f7f7;fill-opacity:1;stroke:#f7f7f7;stroke-width:1.008;stroke-dasharray:none;stroke-opacity:1"
     aria-label="1"
     transform="translate(41.331944,-48.5586)" /><path
     d="M 23.035994,275.42001 H 6.915897 q 0,-2.2246 1.377928,-4.24999 1.377928,-2.02539 5.046869,-4.98046 3.685542,-2.97168 5.046869,-4.73144 1.361326,-1.77637 1.361326,-4.01758 0,-2.00878 -1.162108,-3.15429 -1.162108,-1.16211 -3.270504,-1.16211 -1.826169,0 -3.12109,1.16211 -1.29492,1.16211 -1.460935,3.41992 H 7.496951 q 0.2656247,-3.2041 2.357419,-5.11328 2.108396,-1.92578 5.528313,-1.92578 3.635738,0 5.611322,1.95899 1.975583,1.94238 1.975583,4.88085 0,2.65625 -1.460936,4.69824 -1.460935,2.02538 -5.810539,5.64452 -4.333003,3.61914 -4.41601,4.68164 h 11.753891 z"
     id="text53"
     class="st3"
     style="font-weight:bold;font-size:96.3331px;font-family:'Microsoft Sans Serif';fill:#f7f7f7;fill-opacity:1;stroke:#f7f7f7;stroke-width:1.008;stroke-dasharray:none;stroke-opacity:1"
     aria-label="2"
     transform="translate(69.678444,-6.03895)" /><path
     d="m 18.68639,262.05577 q 2.224607,0.58106 3.419918,2.25781 1.211913,1.67676 1.211913,3.93457 0,3.37011 -2.307615,5.47851 -2.307614,2.10839 -5.727532,2.10839 -3.436519,0 -5.5947195,-1.87597 -2.1582004,-1.87598 -2.3242158,-4.96386 h 3.2373003 q 0,1.79296 1.211913,3.08788 1.211912,1.29492 3.469722,1.29492 2.191404,0 3.486324,-1.41113 1.311522,-1.41113 1.311522,-3.65234 0,-2.29101 -1.361327,-3.51952 -1.344725,-1.24512 -3.934565,-1.24512 h -1.195311 v -2.44043 h 0.713866 q 4.548823,0 4.548823,-4.18358 0,-1.84278 -0.996093,-2.82227 -0.996092,-0.97949 -2.80566,-0.97949 -3.718746,0 -4.150386,3.86816 H 7.679568 q 0.3486323,-3.08789 2.357419,-4.69823 2.008787,-1.62696 4.947259,-1.62696 3.253903,0 5.179682,1.77637 1.925778,1.75976 1.925778,4.54882 0,1.56055 -0.846678,2.95508 -0.830077,1.37792 -2.556638,2.10839 z"
     id="text54"
     class="st3"
     style="font-weight:bold;font-size:96.3331px;font-family:'Microsoft Sans Serif';fill:#f7f7f7;fill-opacity:1;stroke:#f7f7f7;stroke-width:1.008;stroke-dasharray:none;stroke-opacity:1"
     aria-label="3"
     transform="translate(68.521344,50.654)" /><path
     d="m 23.20201,263.44947 h -3.287106 v 5.81054 h -3.137691 v -5.81054 H 6.3846477 v -2.75586 L 17.457876,244.60672 h 2.457028 v 16.08689 h 3.287106 z m -6.424797,-2.75586 v -11.15623 l -7.4706939,11.15623 z"
     id="text55"
     class="st3"
     style="font-weight:bold;font-size:96.3331px;font-family:'Microsoft Sans Serif';fill:#f7f7f7;fill-opacity:1;stroke:#f7f7f7;stroke-width:1.008;stroke-dasharray:none;stroke-opacity:1"
     aria-label="4"
     transform="translate(41.331944,93.173699)" /><path
     d="m 11.348509,260.72765 q 1.809568,-1.46094 4.515619,-1.46094 3.038082,0 5.295892,2.1582 2.25781,2.1416 2.25781,5.72754 0,3.75194 -2.274411,6.22557 -2.25781,2.45703 -6.02636,2.45703 -3.087887,0 -5.2792906,-1.70996 -2.1914035,-1.70996 -2.5400359,-5.09667 h 3.2373005 q 0.265625,2.208 1.527342,3.28711 1.278319,1.06249 3.054684,1.06249 2.257809,0 3.652339,-1.70996 1.411131,-1.70995 1.411131,-4.23339 0,-2.55664 -1.427733,-4.03417 -1.427732,-1.47754 -3.702143,-1.47754 -2.606442,0 -4.416011,2.00879 H 8.1776142 l 1.0292956,-12.8496 H 22.255722 v 2.88867 H 11.879758 Z"
     id="text56"
     class="st3"
     style="font-weight:bold;font-size:96.3331px;font-family:'Microsoft Sans Serif';fill:#f7f7f7;fill-opacity:1;stroke:#f7f7f7;stroke-width:1.008;stroke-dasharray:none;stroke-opacity:1"
     aria-label="5"
     transform="translate(-15.360956,107.347)" /><path
     d="m 10.568236,256.12819 q 2.407224,-2.63965 5.528314,-2.63965 3.054683,0 5.146478,2.22461 2.108396,2.20801 2.108396,5.62792 0,3.46973 -2.091795,5.91015 -2.075192,2.42383 -5.528313,2.42383 -3.951167,0 -6.1425707,-3.03808 -2.1914035,-3.05469 -2.1914035,-8.76562 0,-13.36424 8.5995992,-13.36424 2.739254,0 4.63183,1.52734 1.892576,1.52734 2.307614,4.53222 h -3.220699 q -0.415039,-3.60253 -3.884761,-3.60253 -2.241208,0 -3.635738,2.37402 -1.377928,2.35742 -1.626951,6.79003 z m -0.0332,2.42383 q 0.06641,4.18358 1.444334,6.42479 1.377928,2.24121 3.685543,2.24121 2.025388,0 3.2373,-1.62695 1.211913,-1.62695 1.211913,-4.05078 0,-2.45703 -1.245116,-4.03417 -1.228514,-1.57715 -3.303707,-1.57715 -2.573239,0 -5.030267,2.62305 z"
     id="text57"
     class="st3"
     style="font-weight:bold;font-size:96.3331px;font-family:'Microsoft Sans Serif';fill:#f7f7f7;fill-opacity:1;stroke:#f7f7f7;stroke-width:1.008;stroke-dasharray:none;stroke-opacity:1"
     aria-label="6"
     transform="translate(-72.518056,93.173699)" /><path
     d="m 23.251814,253.29016 -8.848622,22.12985 h -3.502925 l 9.081044,-21.44919 H 7.496951 v -2.88867 h 15.754863 z"
     id="text58"
     class="st3"
     style="font-weight:bold;font-size:96.3331px;font-family:'Microsoft Sans Serif';fill:#f7f7f7;fill-opacity:1;stroke:#f7f7f7;stroke-width:1.008;stroke-dasharray:none;stroke-opacity:1"
     aria-label="7"
     transform="translate(-100.40066,50.654)" /><path
     d="m 18.287953,262.63683 q 5.063471,2.34081 5.063471,6.32518 0,3.07129 -2.224607,4.98047 -2.208005,1.89257 -5.81054,1.89257 -3.585933,0 -5.8105394,-1.89257 -2.2080051,-1.90918 -2.2080051,-4.98047 0,-3.98437 5.0634705,-6.32518 -4.1171826,-2.37402 -4.1171826,-5.94336 0,-2.63964 1.9423806,-4.333 1.958982,-1.69336 5.129876,-1.69336 3.187496,0 5.129877,1.69336 1.94238,1.69336 1.94238,4.333 0,3.56934 -4.100581,5.94336 z m -2.971676,-1.29492 q 3.851558,-1.72656 3.851558,-4.64844 0,-1.67675 -1.029296,-2.62304 -1.012694,-0.94629 -2.822262,-0.94629 -1.792966,0 -2.822262,0.94629 -1.012694,0.94629 -1.012694,2.62304 0,2.92188 3.834956,4.64844 z m 4.797846,7.6201 q 0,-1.57714 -1.145506,-2.70605 -1.145507,-1.1455 -3.65234,-2.25781 -2.490231,1.11231 -3.635737,2.25781 -1.145507,1.12891 -1.145507,2.70605 0,2.05859 1.311522,3.2373 1.311522,1.17871 3.469722,1.17871 2.158201,0 3.469723,-1.17871 1.328123,-1.17871 1.328123,-3.2373 z"
     id="text59"
     class="st3"
     style="font-weight:bold;font-size:96.3331px;font-family:'Microsoft Sans Serif';fill:#f7f7f7;fill-opacity:1;stroke:#f7f7f7;stroke-width:1.008;stroke-dasharray:none;stroke-opacity:1"
     aria-label="8"
     transform="translate(-100.40066,-6.03895)" /><path
     d="m 20.08092,264.19737 q -2.407224,2.65625 -5.544915,2.65625 -3.038082,0 -5.1464782,-2.20801 -2.0917943,-2.2246 -2.0917943,-5.64452 0,-3.46972 2.0751927,-5.89355 2.0917948,-2.44043 5.5449148,-2.44043 3.951167,0 6.142571,3.03809 2.191403,3.03808 2.191403,8.76561 0,13.36424 -8.6162,13.36424 -2.722653,0 -4.63183,-1.52734 -1.8925759,-1.52734 -2.291013,-4.53222 h 3.220699 q 0.398437,3.60253 3.884761,3.60253 2.241208,0 3.619136,-2.35742 1.377928,-2.37402 1.643553,-6.82323 z m 0.0332,-2.40722 q -0.06641,-4.20019 -1.444334,-6.4248 -1.377928,-2.24121 -3.685543,-2.24121 -2.025388,0 -3.2373,1.62695 -1.211913,1.62695 -1.211913,4.05078 0,2.45703 1.228514,4.03417 1.245116,1.56055 3.320309,1.56055 2.573239,0 5.030267,-2.60644 z"
     id="text60"
     class="st3"
     style="font-weight:bold;font-size:96.3331px;font-family:'Microsoft Sans Serif';fill:#f7f7f7;fill-opacity:1;stroke:#f7f7f7;stroke-width:1.008;stroke-dasharray:none;stroke-opacity:1"
     aria-label="9"
     transform="translate(-72.053856,-48.5586)" /><rect
     x="0"
     y="261.354"
     width="5.1023598"
     height="22.110201"
     class="st1"
     id="rect2"
     style="fill:#f7f7f7;fill-opacity:1;stroke:#f7f7f7;stroke-width:1.008;stroke-dasharray:none;stroke-opacity:1"
     transform="rotate(180,1.260262,219.685)" /><rect
     x="0"
     y="272.12601"
     width="2.26772"
     height="11.3386"
     class="st1"
     id="rect3"
     style="fill:#f7f7f7;fill-opacity:1;stroke:#f7f7f7;stroke-width:1.008;stroke-dasharray:none;stroke-opacity:1"
     transform="rotate(-172.8,4.511614,219.78932)" /><rect
     x="0"
     y="261.354"
     width="5.1023598"
     height="22.110201"
     class="st1"
     id="rect4"
     style="fill:#f7f7f7;fill-opacity:1;stroke:#f7f7f7;stroke-width:1.008;stroke-dasharray:none;stroke-opacity:1"
     transform="rotate(-71.999998,89.037596,221.4486)" /><rect
     x="0"
     y="261.354"
     width="5.1023598"
     height="22.110201"
     class="st1"
     id="rect5"
     style="fill:#f7f7f7;fill-opacity:1;stroke:#f7f7f7;stroke-width:1.008;stroke-dasharray:none;stroke-opacity:1"
     transform="translate(-2.5818359,127.559)" /><rect
     x="0"
     y="272.12601"
     width="2.26772"
     height="11.3386"
     class="st1"
     id="rect6"
     style="fill:#f7f7f7;fill-opacity:1;stroke:#f7f7f7;stroke-width:1.008;stroke-dasharray:none;stroke-opacity:1"
     transform="rotate(-165.6,8.6190599,219.7375)" /><rect
     x="0"
     y="272.12601"
     width="2.26772"
     height="11.3386"
     class="st1"
     id="rect7"
     style="fill:#f7f7f7;fill-opacity:1;stroke:#f7f7f7;stroke-width:1.008;stroke-dasharray:none;stroke-opacity:1"
     transform="rotate(-158.4,12.777707,219.84318)" /><rect
     x="0"
     y="272.12601"
     width="2.26772"
     height="11.3386"
     class="st1"
     id="rect8"
     style="fill:#f7f7f7;fill-opacity:1;stroke:#f7f7f7;stroke-width:1.008;stroke-dasharray:none;stroke-opacity:1"
     transform="rotate(-151.2,16.969617,219.87495)" /><rect
     x="0"
     y="261.354"
     width="5.1023598"
     height="22.110201"
     class="st1"
     id="rect9"
     style="fill:#f7f7f7;fill-opacity:1;stroke:#f7f7f7;stroke-width:1.008;stroke-dasharray:none;stroke-opacity:1"
     transform="rotate(-144,22.056603,220.08995)" /><rect
     x="0"
     y="272.12601"
     width="2.26772"
     height="11.3386"
     class="st1"
     id="rect10"
     style="fill:#f7f7f7;fill-opacity:1;stroke:#f7f7f7;stroke-width:1.008;stroke-dasharray:none;stroke-opacity:1"
     transform="rotate(-136.8,25.799247,219.92314)" /><rect
     x="0"
     y="272.12601"
     width="2.26772"
     height="11.3386"
     class="st1"
     id="rect11"
     style="fill:#f7f7f7;fill-opacity:1;stroke:#f7f7f7;stroke-width:1.008;stroke-dasharray:none;stroke-opacity:1"
     transform="rotate(-129.6,30.591606,219.91846)" /><rect
     x="0"
     y="272.12601"
     width="2.26772"
     height="11.3386"
     class="st1"
     id="rect12"
     style="fill:#f7f7f7;fill-opacity:1;stroke:#f7f7f7;stroke-width:1.008;stroke-dasharray:none;stroke-opacity:1"
     transform="rotate(-122.4,35.631653,220.01843)" /><rect
     x="0"
     y="272.12601"
     width="2.26772"
     height="11.3386"
     class="st1"
     id="rect13"
     style="fill:#f7f7f7;fill-opacity:1;stroke:#f7f7f7;stroke-width:1.008;stroke-dasharray:none;stroke-opacity:1"
     transform="rotate(-115.2,40.966883,220.01376)" /><rect
     x="0"
     y="261.354"
     width="5.1023598"
     height="22.110201"
     class="st1"
     id="rect14"
     style="fill:#f7f7f7;fill-opacity:1;stroke:#f7f7f7;stroke-width:1.008;stroke-dasharray:none;stroke-opacity:1"
     transform="rotate(-108,47.608143,220.6289)" /><rect
     x="0"
     y="272.12601"
     width="2.26772"
     height="11.3386"
     class="st1"
     id="rect15"
     style="fill:#f7f7f7;fill-opacity:1;stroke:#f7f7f7;stroke-width:1.008;stroke-dasharray:none;stroke-opacity:1"
     transform="rotate(-100.8,53.347971,220.21567)" /><rect
     x="0"
     y="272.12601"
     width="2.26772"
     height="11.3386"
     class="st1"
     id="rect16"
     style="fill:#f7f7f7;fill-opacity:1;stroke:#f7f7f7;stroke-width:1.008;stroke-dasharray:none;stroke-opacity:1"
     transform="rotate(-93.6,60.462901,220.28273)" /><rect
     x="0"
     y="272.12601"
     width="2.26772"
     height="11.3386"
     class="st1"
     id="rect17"
     style="fill:#f7f7f7;fill-opacity:1;stroke:#f7f7f7;stroke-width:1.008;stroke-dasharray:none;stroke-opacity:1"
     transform="rotate(-86.4,68.415163,220.28568)" /><rect
     x="0"
     y="272.12601"
     width="2.26772"
     height="11.3386"
     class="st1"
     id="rect18"
     style="fill:#f7f7f7;fill-opacity:1;stroke:#f7f7f7;stroke-width:1.008;stroke-dasharray:none;stroke-opacity:1"
     transform="rotate(-79.2,77.588198,220.34825)" /><rect
     x="0"
     y="261.354"
     width="5.1023598"
     height="22.110201"
     class="st1"
     id="rect19"
     style="fill:#f7f7f7;fill-opacity:1;stroke:#f7f7f7;stroke-width:1.008;stroke-dasharray:none;stroke-opacity:1"
     transform="rotate(-36,197.59941,223.43344)" /><rect
     x="0"
     y="272.12601"
     width="2.26772"
     height="11.3386"
     class="st1"
     id="rect20"
     style="fill:#f7f7f7;fill-opacity:1;stroke:#f7f7f7;stroke-width:1.008;stroke-dasharray:none;stroke-opacity:1"
     transform="rotate(-64.8,101.11659,220.69731)" /><rect
     x="0"
     y="272.12601"
     width="2.26772"
     height="11.3386"
     class="st1"
     id="rect21"
     style="fill:#f7f7f7;fill-opacity:1;stroke:#f7f7f7;stroke-width:1.008;stroke-dasharray:none;stroke-opacity:1"
     transform="rotate(-57.6,116.54216,220.71328)" /><rect
     x="0"
     y="272.12601"
     width="2.26772"
     height="11.3386"
     class="st1"
     id="rect22"
     style="fill:#f7f7f7;fill-opacity:1;stroke:#f7f7f7;stroke-width:1.008;stroke-dasharray:none;stroke-opacity:1"
     transform="rotate(-50.4,136.17549,220.86398)" /><rect
     x="0"
     y="272.12601"
     width="2.26772"
     height="11.3386"
     class="st1"
     id="rect23"
     style="fill:#f7f7f7;fill-opacity:1;stroke:#f7f7f7;stroke-width:1.008;stroke-dasharray:none;stroke-opacity:1"
     transform="rotate(-43.2,161.62062,221.16654)" /><rect
     x="0"
     y="272.12601"
     width="2.26772"
     height="11.3386"
     class="st1"
     id="rect24"
     style="fill:#f7f7f7;fill-opacity:1;stroke:#f7f7f7;stroke-width:1.008;stroke-dasharray:none;stroke-opacity:1"
     transform="rotate(-28.8,248.79985,221.78852)" /><rect
     x="0"
     y="272.12601"
     width="2.26772"
     height="11.3386"
     class="st1"
     id="rect25"
     style="fill:#f7f7f7;fill-opacity:1;stroke:#f7f7f7;stroke-width:1.008;stroke-dasharray:none;stroke-opacity:1"
     transform="rotate(-21.6,334.64633,222.42498)" /><rect
     x="0"
     y="272.12601"
     width="2.26772"
     height="11.3386"
     class="st1"
     id="rect26"
     style="fill:#f7f7f7;fill-opacity:1;stroke:#f7f7f7;stroke-width:1.008;stroke-dasharray:none;stroke-opacity:1"
     transform="rotate(-14.4,505.58523,224.2131)" /><rect
     x="0"
     y="272.12601"
     width="2.26772"
     height="11.3386"
     class="st1"
     id="rect27"
     style="fill:#f7f7f7;fill-opacity:1;stroke:#f7f7f7;stroke-width:1.008;stroke-dasharray:none;stroke-opacity:1"
     transform="rotate(-7.2000007,1013.2278,229.77718)" /><rect
     x="0"
     y="261.354"
     width="5.1023598"
     height="22.110201"
     class="st1"
     id="rect28"
     style="fill:#f7f7f7;fill-opacity:1;stroke:#f7f7f7;stroke-width:1.008;stroke-dasharray:none;stroke-opacity:1"
     transform="rotate(36,-195.07748,215.48691)" /><rect
     x="0"
     y="272.12601"
     width="2.26772"
     height="11.3386"
     class="st1"
     id="rect29"
     style="fill:#f7f7f7;fill-opacity:1;stroke:#f7f7f7;stroke-width:1.008;stroke-dasharray:none;stroke-opacity:1"
     transform="rotate(7.2000007,-1012.1184,211.26765)" /><rect
     x="0"
     y="272.12601"
     width="2.26772"
     height="11.3386"
     class="st1"
     id="rect30"
     style="fill:#f7f7f7;fill-opacity:1;stroke:#f7f7f7;stroke-width:1.008;stroke-dasharray:none;stroke-opacity:1"
     transform="rotate(14.4,-504.48193,214.99491)" /><rect
     x="0"
     y="272.12601"
     width="2.26772"
     height="11.3386"
     class="st1"
     id="rect31"
     style="fill:#f7f7f7;fill-opacity:1;stroke:#f7f7f7;stroke-width:1.008;stroke-dasharray:none;stroke-opacity:1"
     transform="rotate(21.6,-333.54526,216.32071)" /><rect
     x="0"
     y="272.12601"
     width="2.26772"
     height="11.3386"
     class="st1"
     id="rect32"
     style="fill:#f7f7f7;fill-opacity:1;stroke:#f7f7f7;stroke-width:1.008;stroke-dasharray:none;stroke-opacity:1"
     transform="rotate(28.8,-247.69563,217.25281)" /><rect
     x="0"
     y="261.354"
     width="5.1023598"
     height="22.110201"
     class="st1"
     id="rect33"
     style="fill:#f7f7f7;fill-opacity:1;stroke:#f7f7f7;stroke-width:1.008;stroke-dasharray:none;stroke-opacity:1"
     transform="rotate(71.999998,-86.516465,217.89531)" /><rect
     x="0"
     y="272.12601"
     width="2.26772"
     height="11.3386"
     class="st1"
     id="rect34"
     style="fill:#f7f7f7;fill-opacity:1;stroke:#f7f7f7;stroke-width:1.008;stroke-dasharray:none;stroke-opacity:1"
     transform="rotate(43.2,-160.51783,218.22562)" /><rect
     x="0"
     y="272.12601"
     width="2.26772"
     height="11.3386"
     class="st1"
     id="rect35"
     style="fill:#f7f7f7;fill-opacity:1;stroke:#f7f7f7;stroke-width:1.008;stroke-dasharray:none;stroke-opacity:1"
     transform="rotate(50.4,-135.07287,218.38888)" /><rect
     x="0"
     y="272.12601"
     width="2.26772"
     height="11.3386"
     class="st1"
     id="rect36"
     style="fill:#f7f7f7;fill-opacity:1;stroke:#f7f7f7;stroke-width:1.008;stroke-dasharray:none;stroke-opacity:1"
     transform="rotate(57.6,-115.43863,218.595)" /><rect
     x="0"
     y="272.12601"
     width="2.26772"
     height="11.3386"
     class="st1"
     id="rect37"
     style="fill:#f7f7f7;fill-opacity:1;stroke:#f7f7f7;stroke-width:1.008;stroke-dasharray:none;stroke-opacity:1"
     transform="rotate(64.8,-100.01303,218.86271)" /><rect
     x="0"
     y="261.354"
     width="5.1023598"
     height="22.110201"
     class="st1"
     id="rect38"
     style="fill:#f7f7f7;fill-opacity:1;stroke:#f7f7f7;stroke-width:1.008;stroke-dasharray:none;stroke-opacity:1"
     transform="rotate(108,-45.087846,218.75262)" /><rect
     x="0"
     y="272.12601"
     width="2.26772"
     height="11.3386"
     class="st1"
     id="rect39"
     style="fill:#f7f7f7;fill-opacity:1;stroke:#f7f7f7;stroke-width:1.008;stroke-dasharray:none;stroke-opacity:1"
     transform="rotate(79.2,-76.485361,218.94082)" /><rect
     x="0"
     y="272.12601"
     width="2.26772"
     height="11.3386"
     class="st1"
     id="rect40"
     style="fill:#f7f7f7;fill-opacity:1;stroke:#f7f7f7;stroke-width:1.008;stroke-dasharray:none;stroke-opacity:1"
     transform="rotate(86.4,-67.3124,219.0454)" /><rect
     x="0"
     y="272.12601"
     width="2.26772"
     height="11.3386"
     class="st1"
     id="rect41"
     style="fill:#f7f7f7;fill-opacity:1;stroke:#f7f7f7;stroke-width:1.008;stroke-dasharray:none;stroke-opacity:1"
     transform="rotate(100.8,-52.244966,219.2526)" /><rect
     x="0"
     y="272.12601"
     width="2.26772"
     height="11.3386"
     class="st1"
     id="rect42"
     style="fill:#f7f7f7;fill-opacity:1;stroke:#f7f7f7;stroke-width:1.008;stroke-dasharray:none;stroke-opacity:1"
     transform="rotate(93.6,-59.359506,219.18961)" /><path
     d="m 15.316277,250.66711 q 7.935537,0 7.935537,12.61718 0,12.55076 -7.935537,12.55076 -7.9189352,0 -7.9189352,-12.55076 0,-12.61718 7.9189352,-12.61718 z m 0,22.71091 q 2.307615,0 3.502926,-2.2246 1.195311,-2.22461 1.195311,-7.86913 0,-5.66113 -1.195311,-7.90234 -1.195311,-2.25781 -3.502926,-2.25781 -2.291013,0 -3.486324,2.25781 -1.195311,2.24121 -1.195311,7.90234 0,5.64452 1.195311,7.86913 1.195311,2.2246 3.486324,2.2246 z"
     id="text61"
     class="st3"
     style="font-weight:bold;font-size:96.3331px;font-family:'Microsoft Sans Serif';fill:#f7f7f7;fill-opacity:1;stroke:#f7f7f7;stroke-width:1.008;stroke-dasharray:none;stroke-opacity:1"
     aria-label="0"
     transform="translate(-15.360956,-62.7319)" /><path
     d="m -48.627163,292.32474 q 0.210938,0.63281 0.263672,1.00195 0.05273,0.36914 -0.140625,0.5625 -0.193359,0.17578 -0.685547,0.21094 -0.492187,0.0527 -1.353516,0.0527 -0.896484,0 -1.40625,-0.0351 -0.492187,-0.0176 -0.755859,-0.0879 -0.263672,-0.0879 -0.369141,-0.22852 -0.105468,-0.14062 -0.175781,-0.36914 l -1.529297,-4.57031 h -8.542968 l -1.441407,4.44726 q -0.07031,0.2461 -0.193359,0.42188 -0.105469,0.1582 -0.369141,0.26367 -0.246093,0.0879 -0.720703,0.12305 -0.457031,0.0351 -1.21289,0.0351 -0.808594,0 -1.265625,-0.0527 -0.457032,-0.0527 -0.632813,-0.2461 -0.175781,-0.21093 -0.123047,-0.58007 0.05273,-0.36914 0.263672,-0.98438 l 7.013672,-20.17969 q 0.105469,-0.29882 0.246094,-0.47461 0.140625,-0.19335 0.439453,-0.28125 0.316406,-0.10546 0.861328,-0.12304 0.544922,-0.0352 1.441406,-0.0352 1.03711,0 1.652344,0.0352 0.615234,0.0176 0.949219,0.12304 0.351562,0.0879 0.492187,0.28125 0.158203,0.19336 0.263672,0.52735 z M -59.068569,275.6431 h -0.01758 l -3.216797,9.66797 h 6.451172 z m 26.121094,16.4707 q 0,0.52734 -0.05274,0.89648 -0.03516,0.35157 -0.123047,0.59766 -0.08789,0.22852 -0.228515,0.33399 -0.123047,0.10546 -0.298828,0.10546 h -10.423829 q -0.580078,0 -0.984375,-0.33398 -0.386718,-0.35156 -0.386718,-1.125 v -20.6543 q 0,-0.17578 0.105468,-0.3164 0.123047,-0.14063 0.386719,-0.22852 0.263672,-0.0879 0.703125,-0.14062 0.457031,-0.0527 1.125,-0.0527 0.685547,0 1.125,0.0527 0.439453,0.0527 0.703125,0.14062 0.263672,0.0879 0.369141,0.22852 0.123047,0.14062 0.123047,0.3164 v 18.29883 h 7.154297 q 0.175781,0 0.298828,0.10547 0.140625,0.0879 0.228515,0.31641 0.08789,0.21093 0.123047,0.58007 0.05274,0.35157 0.05274,0.87891 z m 15.222656,-18.91406 q 0,0.50976 -0.05273,0.8789 -0.03516,0.35157 -0.123046,0.58008 -0.08789,0.21094 -0.228516,0.31641 -0.123047,0.10547 -0.28125,0.10547 h -5.695313 v 18.33398 q 0,0.17578 -0.123046,0.31641 -0.105469,0.14062 -0.369141,0.22851 -0.263672,0.0879 -0.720703,0.14063 -0.439453,0.0527 -1.107422,0.0527 -0.667969,0 -1.125,-0.0527 -0.439453,-0.0527 -0.703125,-0.14063 -0.263672,-0.0879 -0.386719,-0.22851 -0.105469,-0.14063 -0.105469,-0.31641 V 275.0806 h -5.695312 q -0.175781,0 -0.298828,-0.10547 -0.123047,-0.10547 -0.210938,-0.31641 -0.08789,-0.22851 -0.140625,-0.58008 -0.03516,-0.36914 -0.03516,-0.8789 0,-0.52735 0.03516,-0.89649 0.05274,-0.36914 0.140625,-0.58007 0.08789,-0.22852 0.210938,-0.31641 0.123047,-0.10547 0.298828,-0.10547 h 16.03125 q 0.158203,0 0.28125,0.10547 0.140625,0.0879 0.228516,0.31641 0.08789,0.21093 0.123046,0.58007 0.05273,0.36914 0.05273,0.89649 z"
     id="text1"
     style="font-weight:bold;font-size:36px;font-family:Calibri;-inkscape-font-specification:'Calibri, Bold';text-align:center;text-anchor:middle;fill:#f7f7f7;stroke-width:1.008;stroke-linejoin:round"
     aria-label="ALT" /></g><g
   inkscape:groupmode="layer"
   id="layer2"
   inkscape:label="100s indicator"
   inkscape:highlight-color="#0000ff"><path
     d="m 0,283.46 v -90.7 l 4.96,-22.68 4.96,22.68 v 90.7 z"
     class="st1"
     id="path2"
     style="fill:#f7f7f7;fill-opacity:1;stroke:#0d0d0d;stroke-width:0.720001;stroke-linecap:round;stroke-linejoin:round;stroke-dasharray:none;stroke-opacity:1"
     transform="translate(-4.96063)" /><path
     d="m 11.34,270.71 v -28.35 a 7.08661,7.08661 -180 1 0 -8.51,0 v 28.35 a 7.08661,7.08661 -180 1 0 8.51,0 z"
     class="st2"
     id="path3"
     style="fill:#030303;fill-opacity:1;stroke:#030303;stroke-width:0.75;stroke-linecap:round;stroke-linejoin:round;stroke-opacity:1"
     transform="translate(-7.08661,46.7717)" /></g><g
   inkscape:groupmode="layer"
   id="layer3"
   inkscape:label="1000s indicator"
   transform="translate(2.3469966e-7,1.9181434e-5)"
   inkscape:highlight-color="#00ff00"><path
     id="ellipse2-0"
     style="fill:#0a0a0a;fill-opacity:1;stroke:#080808;stroke-width:0.747005;stroke-linecap:round;stroke-linejoin:round;stroke-dasharray:none;stroke-opacity:1"
     class="st1"
     d="M 3.404814,257.95579 3.0532512,268.44408 A 8.5039396,8.5039396 0 0 0 5.1391102e-4,274.96117 8.5039396,8.5039396 0 0 0 2.4951452,280.948 l -2.3715843,13.54835 a 21.2598,21.2598 0 0 0 16.7212071,0.019 l -2.343752,-13.55567 a 8.5039396,8.5039396 0 0 0 2.50635,-5.99855 8.5039396,8.5039396 0 0 0 -3.051272,-6.52588 l -0.351563,-10.4795 z"
     transform="translate(-8.5039401,8.5039401)" /><path
     d="M 3.4,283.46 0,253.7 l 8.5,-19.84 8.51,19.84 -3.4,29.76 z"
     class="st3"
     id="path5"
     style="fill:#fafafa;fill-opacity:1;stroke:#080808;stroke-width:0.75;stroke-linecap:round;stroke-linejoin:round;stroke-opacity:1"
     transform="translate(-8.5039401,-17.0079)" /></g><g
   inkscape:groupmode="layer"
   id="layer4"
   inkscape:label="10000s indicator"
   inkscape:highlight-color="#ff0000"><path
     d="m 0,158.74 h 25.51 l -11.22,15.59 v 49.89 l 2.29,3.12 v 56.12 H 8.93 v -56.12 l 2.3,-3.12 v -49.89 z"
     class="st1"
     id="path2-9"
     style="fill:#f8f8f8;fill-opacity:1;stroke:#080808;stroke-width:0.75;stroke-linecap:round;stroke-linejoin:round;stroke-opacity:1"
     transform="translate(-12.7559)" /><circle
     cx="8.5039396"
     cy="274.961"
     class="st2"
     id="ellipse3-4"
     r="8.5039396"
     style="fill:#0b0b0b;fill-opacity:1;stroke:#080808;stroke-width:0.75;stroke-linecap:round;stroke-linejoin:round;stroke-opacity:1"
     transform="translate(-8.5039401,8.5039401)" /></g></svg>
