<?xml version="1.0" encoding="UTF-8" standalone="no"?>
<svg
   width="3.93701in"
   height="3.93701in"
   viewBox="0 0 283.465 283.465"
   xml:space="preserve"
   color-interpolation-filters="sRGB"
   class="st5"
   version="1.1"
   id="svg8"
   sodipodi:docname="Attitude Indicator.svg"
   inkscape:version="1.4 (86a8ad7, 2024-10-11)"
   inkscape:export-filename="..\python_workflow\input_images\AI_pitch.png"
   inkscape:export-xdpi="190.46252"
   inkscape:export-ydpi="190.46252"
   xmlns:inkscape="http://www.inkscape.org/namespaces/inkscape"
   xmlns:sodipodi="http://sodipodi.sourceforge.net/DTD/sodipodi-0.dtd"
   xmlns="http://www.w3.org/2000/svg"
   xmlns:svg="http://www.w3.org/2000/svg"><defs
   id="defs8">
		
		
		
		
		
		
		
		
	
			
			
		</defs><sodipodi:namedview
   id="namedview8"
   pagecolor="#ffffff"
   bordercolor="#000000"
   borderopacity="0.25"
   inkscape:showpageshadow="2"
   inkscape:pageopacity="0.0"
   inkscape:pagecheckerboard="0"
   inkscape:deskcolor="#d1d1d1"
   inkscape:document-units="in"
   inkscape:zoom="2"
   inkscape:cx="75.75"
   inkscape:cy="393.25"
   inkscape:window-width="2560"
   inkscape:window-height="1369"
   inkscape:window-x="-8"
   inkscape:window-y="-8"
   inkscape:window-maximized="1"
   inkscape:current-layer="layer5" />
	<style
   type="text/css"
   id="style1">
	<![CDATA[
		.st1 {stroke:#000000;stroke-linecap:round;stroke-linejoin:round;stroke-width:0.75}
		.st2 {fill:#262626;stroke:#000000;stroke-linecap:round;stroke-linejoin:round;stroke-width:0.5}
		.st3 {fill:#ffff00;stroke:#000000;stroke-linecap:round;stroke-linejoin:round;stroke-width:0.25}
		.st4 {fill:#bf9000;stroke:#000000;stroke-linecap:round;stroke-linejoin:round;stroke-width:0.25}
		.st5 {fill:none;fill-rule:evenodd;font-size:12px;overflow:visible;stroke-linecap:square;stroke-miterlimit:3}
	]]>
	</style>

	
<g
   inkscape:groupmode="layer"
   id="layer2"
   inkscape:label="background"
   style="display:inline"
   inkscape:highlight-color="#00ff00"><path
     d="M 0,283.46 H 255.12 A 127.56,127.56 -180 1 0 0,283.46 Z"
     class="st2"
     id="path3-0"
     style="fill:#7f6000;fill-opacity:1;stroke:none;stroke-width:0.75;stroke-linecap:round;stroke-linejoin:round;stroke-opacity:1"
     transform="rotate(180,63.779497,283.4645)" /><path
     d="M 0,283.46 H 255.12 A 127.56,127.56 -180 1 0 0,283.46 Z"
     class="st1"
     id="path2"
     style="fill:#00b0f0;fill-opacity:1;stroke:none;stroke-width:0.75;stroke-linecap:round;stroke-linejoin:round;stroke-opacity:1"
     transform="translate(-127.559)" /></g><g
   inkscape:groupmode="layer"
   id="layer5"
   inkscape:label="pitch card (alternate)"
   transform="matrix(0.94136368,0,0,1,0.15255681,0.06629132)"
   style="display:none"><rect
     x="-120.62825"
     y="284.81277"
     width="240.94458"
     height="140.31476"
     class="st1"
     id="rect2"
     style="fill:#7f6000;stroke:none;stroke-width:0.749999;stroke-linecap:round;stroke-linejoin:round" /><rect
     x="-120.62826"
     y="141.66304"
     width="240.94458"
     height="140.31476"
     class="st2"
     id="rect3"
     style="fill:#00b0f0;stroke:none;stroke-width:0.749999;stroke-linecap:round;stroke-linejoin:round" /></g><g
   inkscape:groupmode="layer"
   id="layer3"
   inkscape:label="pitch card"
   style="display:inline"
   inkscape:highlight-color="#ffff1c"><path
     d="M 226.74,202.68 H 0 a 113.386,82.1567 -180 0 0 226.74,0 z"
     class="st1"
     id="path2-9"
     style="fill:#7f6000;fill-opacity:1;stroke:none;stroke-width:0.75;stroke-linecap:round;stroke-linejoin:round"
     inkscape:label="ground"
     transform="translate(-113.37,82.204699)" /><path
     d="M 0,283.46 H 226.74 A 113.386,82.1567 -180 0 0 0,283.46 Z"
     class="st2"
     id="path3-4"
     style="fill:#00b0f0;fill-opacity:1;stroke:none;stroke-width:0.75;stroke-linecap:round;stroke-linejoin:round"
     transform="translate(-113.37,-1.41732)"
     inkscape:label="sky" /><path
     d="M 11.382886,277.14001 H 5.5586094 v -1.52345 h 1.8398621 v -4.61137 H 5.5586094 v -1.42384 q 0.4218792,0 0.8086018,-0.0469 0.3867226,-0.0527 0.6445377,-0.17578 0.3046906,-0.14649 0.4570358,-0.38087 0.1523453,-0.23437 0.175783,-0.58594 h 1.9394726 v 7.22468 h 1.7988457 z m 9.023529,-4.36527 q 0,1.10157 -0.199221,1.97463 -0.199221,0.86719 -0.6211,1.42384 -0.433598,0.56836 -1.113292,0.86133 -0.679695,0.28712 -1.675798,0.28712 -0.978526,0 -1.669939,-0.29297 -0.691413,-0.29298 -1.119152,-0.8672 -0.433598,-0.57423 -0.626959,-1.42384 -0.193362,-0.85548 -0.193362,-1.95705 0,-1.13673 0.199221,-1.97463 0.199221,-0.8379 0.632819,-1.41799 0.433598,-0.57422 1.125011,-0.86133 0.691413,-0.28712 1.652361,-0.28712 1.001963,0 1.681657,0.29884 0.679694,0.29297 1.113292,0.87891 0.427739,0.57423 0.6211,1.41798 0.193362,0.8379 0.193362,1.93948 z m -2.267601,0 q 0,-1.58205 -0.31055,-2.25003 -0.31055,-0.67383 -1.03126,-0.67383 -0.720711,0 -1.031261,0.67383 -0.31055,0.66798 -0.31055,2.26175 0,1.55275 0.31641,2.2383 0.316409,0.68555 1.025401,0.68555 0.708991,0 1.0254,-0.68555 0.31641,-0.68555 0.31641,-2.25002 z"
     id="text12"
     class="st5"
     style="font-weight:bold;font-size:12.0002px;font-family:'Bahnschrift SemiCondensed';fill:#fafafa;fill-opacity:1;stroke:none"
     aria-label="10"
     transform="translate(16.339304,32.5984)" /><path
     d="M 11.933673,277.14001 H 5.0839952 v -1.44142 q 0.7851641,-0.56836 1.5703283,-1.20704 0.7910235,-0.63868 1.2656376,-1.10157 0.7089915,-0.68556 1.0078226,-1.19533 0.2988311,-0.50977 0.2988311,-1.00782 0,-0.59766 -0.3867226,-0.91993 -0.3808632,-0.32813 -1.1015735,-0.32813 -0.5390679,0 -1.1367301,0.22266 -0.5918029,0.22266 -1.1015736,0.56836 H 5.3125131 v -1.93947 q 0.4160198,-0.18164 1.2246217,-0.36328 0.8144613,-0.18165 1.6289225,-0.18165 1.6406415,0 2.5019787,0.69142 0.861336,0.68555 0.861336,1.94533 0,0.82618 -0.41602,1.57033 -0.41016,0.74415 -1.2597778,1.53517 -0.5332084,0.49219 -1.0722763,0.90821 -0.5390679,0.41016 -0.7675858,0.57423 h 3.9199609 z m 8.472742,-4.36527 q 0,1.10157 -0.199221,1.97463 -0.199221,0.86719 -0.6211,1.42384 -0.433598,0.56836 -1.113292,0.86133 -0.679695,0.28712 -1.675798,0.28712 -0.978526,0 -1.669939,-0.29297 -0.691413,-0.29298 -1.119152,-0.8672 -0.433598,-0.57423 -0.626959,-1.42384 -0.193362,-0.85548 -0.193362,-1.95705 0,-1.13673 0.199221,-1.97463 0.199221,-0.8379 0.632819,-1.41799 0.433598,-0.57422 1.125011,-0.86133 0.691413,-0.28712 1.652361,-0.28712 1.001963,0 1.681657,0.29884 0.679694,0.29297 1.113292,0.87891 0.427739,0.57423 0.6211,1.41798 0.193362,0.8379 0.193362,1.93948 z m -2.267601,0 q 0,-1.58205 -0.31055,-2.25003 -0.31055,-0.67383 -1.03126,-0.67383 -0.720711,0 -1.031261,0.67383 -0.31055,0.66798 -0.31055,2.26175 0,1.55275 0.31641,2.2383 0.316409,0.68555 1.025401,0.68555 0.708991,0 1.0254,-0.68555 0.31641,-0.68555 0.31641,-2.25002 z"
     id="text13"
     class="st5"
     style="font-weight:bold;font-size:12.0002px;font-family:'Bahnschrift SemiCondensed';fill:#fafafa;fill-opacity:1;stroke:none"
     aria-label="20"
     transform="translate(24.843204,55.2756)" /><path
     d="M 15.232886,277.14001 H 9.4086093 v -1.52345 h 1.8398617 v -4.61137 H 9.4086093 v -1.42384 q 0.4218792,0 0.8086017,-0.0469 0.386723,-0.0527 0.644538,-0.17578 0.30469,-0.14649 0.457036,-0.38087 0.152345,-0.23437 0.175783,-0.58594 h 1.939472 v 7.22468 h 1.798846 z m 9.023529,-4.36527 q 0,1.10157 -0.199221,1.97463 -0.199221,0.86719 -0.6211,1.42384 -0.433598,0.56836 -1.113293,0.86133 -0.679694,0.28712 -1.675798,0.28712 -0.978525,0 -1.669938,-0.29297 -0.691413,-0.29298 -1.119152,-0.8672 -0.433598,-0.57423 -0.626959,-1.42384 -0.193362,-0.85548 -0.193362,-1.95705 0,-1.13673 0.199221,-1.97463 0.199221,-0.8379 0.632819,-1.41799 0.433598,-0.57422 1.125011,-0.86133 0.691413,-0.28712 1.65236,-0.28712 1.001964,0 1.681658,0.29884 0.679694,0.29297 1.113292,0.87891 0.427739,0.57423 0.6211,1.41798 0.193362,0.8379 0.193362,1.93948 z m -2.267601,0 q 0,-1.58205 -0.31055,-2.25003 -0.31055,-0.67383 -1.031261,-0.67383 -0.72071,0 -1.03126,0.67383 -0.31055,0.66798 -0.31055,2.26175 0,1.55275 0.31641,2.2383 0.316409,0.68555 1.0254,0.68555 0.708992,0 1.025401,-0.68555 0.31641,-0.68555 0.31641,-2.25002 z"
     id="text14"
     class="st5"
     style="font-weight:bold;font-size:12.0002px;font-family:'Bahnschrift SemiCondensed';fill:#fafafa;fill-opacity:1;stroke:none"
     aria-label="10"
     transform="translate(-44.643221,32.5984)" /><path
     d="M 13.893673,277.14001 H 7.0439953 v -1.44142 q 0.7851641,-0.56836 1.5703282,-1.20704 0.7910235,-0.63868 1.2656377,-1.10157 0.7089918,-0.68556 1.0078228,-1.19533 0.298831,-0.50977 0.298831,-1.00782 0,-0.59766 -0.386723,-0.91993 -0.380863,-0.32813 -1.1015733,-0.32813 -0.5390679,0 -1.1367301,0.22266 -0.5918028,0.22266 -1.1015735,0.56836 H 7.2725132 v -1.93947 q 0.4160198,-0.18164 1.2246216,-0.36328 0.8144613,-0.18165 1.6289222,-0.18165 1.640642,0 2.501979,0.69142 0.861336,0.68555 0.861336,1.94533 0,0.82618 -0.416019,1.57033 -0.410161,0.74415 -1.259779,1.53517 -0.533208,0.49219 -1.072276,0.90821 -0.539068,0.41016 -0.7675859,0.57423 h 3.9199609 z m 8.472742,-4.36527 q 0,1.10157 -0.199221,1.97463 -0.199221,0.86719 -0.6211,1.42384 -0.433598,0.56836 -1.113292,0.86133 -0.679695,0.28712 -1.675798,0.28712 -0.978526,0 -1.669939,-0.29297 -0.691413,-0.29298 -1.119152,-0.8672 -0.433598,-0.57423 -0.626959,-1.42384 -0.193362,-0.85548 -0.193362,-1.95705 0,-1.13673 0.199221,-1.97463 0.199221,-0.8379 0.632819,-1.41799 0.433598,-0.57422 1.125011,-0.86133 0.691413,-0.28712 1.652361,-0.28712 1.001963,0 1.681657,0.29884 0.679694,0.29297 1.113292,0.87891 0.427739,0.57423 0.6211,1.41798 0.193362,0.8379 0.193362,1.93948 z m -2.267601,0 q 0,-1.58205 -0.31055,-2.25003 -0.31055,-0.67383 -1.03126,-0.67383 -0.720711,0 -1.031261,0.67383 -0.31055,0.66798 -0.31055,2.26175 0,1.55275 0.31641,2.2383 0.316409,0.68555 1.025401,0.68555 0.708991,0 1.0254,-0.68555 0.31641,-0.68555 0.31641,-2.25002 z"
     id="text15"
     class="st5"
     style="font-weight:bold;font-size:12.0002px;font-family:'Bahnschrift SemiCondensed';fill:#fafafa;fill-opacity:1;stroke:none"
     aria-label="20"
     transform="translate(-53.147221,55.2756)" /><path
     d="M 11.382886,277.14001 H 5.5586094 v -1.52345 h 1.8398621 v -4.61137 H 5.5586094 v -1.42384 q 0.4218792,0 0.8086018,-0.0469 0.3867226,-0.0527 0.6445377,-0.17578 0.3046906,-0.14649 0.4570358,-0.38087 0.1523453,-0.23437 0.175783,-0.58594 h 1.9394726 v 7.22468 h 1.7988457 z m 9.023529,-4.36527 q 0,1.10157 -0.199221,1.97463 -0.199221,0.86719 -0.6211,1.42384 -0.433598,0.56836 -1.113292,0.86133 -0.679695,0.28712 -1.675798,0.28712 -0.978526,0 -1.669939,-0.29297 -0.691413,-0.29298 -1.119152,-0.8672 -0.433598,-0.57423 -0.626959,-1.42384 -0.193362,-0.85548 -0.193362,-1.95705 0,-1.13673 0.199221,-1.97463 0.199221,-0.8379 0.632819,-1.41799 0.433598,-0.57422 1.125011,-0.86133 0.691413,-0.28712 1.652361,-0.28712 1.001963,0 1.681657,0.29884 0.679694,0.29297 1.113292,0.87891 0.427739,0.57423 0.6211,1.41798 0.193362,0.8379 0.193362,1.93948 z m -2.267601,0 q 0,-1.58205 -0.31055,-2.25003 -0.31055,-0.67383 -1.03126,-0.67383 -0.720711,0 -1.031261,0.67383 -0.31055,0.66798 -0.31055,2.26175 0,1.55275 0.31641,2.2383 0.316409,0.68555 1.025401,0.68555 0.708991,0 1.0254,-0.68555 0.31641,-0.68555 0.31641,-2.25002 z"
     id="text16"
     class="st5"
     style="font-weight:bold;font-size:12.0002px;font-family:'Bahnschrift SemiCondensed';fill:#fafafa;fill-opacity:1;stroke:none"
     aria-label="10"
     transform="translate(16.339304,-12.7559)" /><path
     d="M 15.232886,277.14001 H 9.4086093 v -1.52345 h 1.8398617 v -4.61137 H 9.4086093 v -1.42384 q 0.4218792,0 0.8086017,-0.0469 0.386723,-0.0527 0.644538,-0.17578 0.30469,-0.14649 0.457036,-0.38087 0.152345,-0.23437 0.175783,-0.58594 h 1.939472 v 7.22468 h 1.798846 z m 9.023529,-4.36527 q 0,1.10157 -0.199221,1.97463 -0.199221,0.86719 -0.6211,1.42384 -0.433598,0.56836 -1.113293,0.86133 -0.679694,0.28712 -1.675798,0.28712 -0.978525,0 -1.669938,-0.29297 -0.691413,-0.29298 -1.119152,-0.8672 -0.433598,-0.57423 -0.626959,-1.42384 -0.193362,-0.85548 -0.193362,-1.95705 0,-1.13673 0.199221,-1.97463 0.199221,-0.8379 0.632819,-1.41799 0.433598,-0.57422 1.125011,-0.86133 0.691413,-0.28712 1.65236,-0.28712 1.001964,0 1.681658,0.29884 0.679694,0.29297 1.113292,0.87891 0.427739,0.57423 0.6211,1.41798 0.193362,0.8379 0.193362,1.93948 z m -2.267601,0 q 0,-1.58205 -0.31055,-2.25003 -0.31055,-0.67383 -1.031261,-0.67383 -0.72071,0 -1.03126,0.67383 -0.31055,0.66798 -0.31055,2.26175 0,1.55275 0.31641,2.2383 0.316409,0.68555 1.0254,0.68555 0.708992,0 1.025401,-0.68555 0.31641,-0.68555 0.31641,-2.25002 z"
     id="text17"
     class="st5"
     style="font-weight:bold;font-size:12.0002px;font-family:'Bahnschrift SemiCondensed';fill:#fafafa;fill-opacity:1;stroke:none"
     aria-label="10"
     transform="translate(-44.643221,-12.7559)" /><path
     d="M 11.933673,277.14001 H 5.0839952 v -1.44142 q 0.7851641,-0.56836 1.5703283,-1.20704 0.7910235,-0.63868 1.2656376,-1.10157 0.7089915,-0.68556 1.0078226,-1.19533 0.2988311,-0.50977 0.2988311,-1.00782 0,-0.59766 -0.3867226,-0.91993 -0.3808632,-0.32813 -1.1015735,-0.32813 -0.5390679,0 -1.1367301,0.22266 -0.5918029,0.22266 -1.1015736,0.56836 H 5.3125131 v -1.93947 q 0.4160198,-0.18164 1.2246217,-0.36328 0.8144613,-0.18165 1.6289225,-0.18165 1.6406415,0 2.5019787,0.69142 0.861336,0.68555 0.861336,1.94533 0,0.82618 -0.41602,1.57033 -0.41016,0.74415 -1.2597778,1.53517 -0.5332084,0.49219 -1.0722763,0.90821 -0.5390679,0.41016 -0.7675858,0.57423 h 3.9199609 z m 8.472742,-4.36527 q 0,1.10157 -0.199221,1.97463 -0.199221,0.86719 -0.6211,1.42384 -0.433598,0.56836 -1.113292,0.86133 -0.679695,0.28712 -1.675798,0.28712 -0.978526,0 -1.669939,-0.29297 -0.691413,-0.29298 -1.119152,-0.8672 -0.433598,-0.57423 -0.626959,-1.42384 -0.193362,-0.85548 -0.193362,-1.95705 0,-1.13673 0.199221,-1.97463 0.199221,-0.8379 0.632819,-1.41799 0.433598,-0.57422 1.125011,-0.86133 0.691413,-0.28712 1.652361,-0.28712 1.001963,0 1.681657,0.29884 0.679694,0.29297 1.113292,0.87891 0.427739,0.57423 0.6211,1.41798 0.193362,0.8379 0.193362,1.93948 z m -2.267601,0 q 0,-1.58205 -0.31055,-2.25003 -0.31055,-0.67383 -1.03126,-0.67383 -0.720711,0 -1.031261,0.67383 -0.31055,0.66798 -0.31055,2.26175 0,1.55275 0.31641,2.2383 0.316409,0.68555 1.025401,0.68555 0.708991,0 1.0254,-0.68555 0.31641,-0.68555 0.31641,-2.25002 z"
     id="text18"
     class="st5"
     style="font-weight:bold;font-size:12.0002px;font-family:'Bahnschrift SemiCondensed';fill:#fafafa;fill-opacity:1;stroke:none"
     aria-label="20"
     transform="translate(24.843204,-35.4331)" /><path
     d="M 13.893673,277.14001 H 7.0439953 v -1.44142 q 0.7851641,-0.56836 1.5703282,-1.20704 0.7910235,-0.63868 1.2656377,-1.10157 0.7089918,-0.68556 1.0078228,-1.19533 0.298831,-0.50977 0.298831,-1.00782 0,-0.59766 -0.386723,-0.91993 -0.380863,-0.32813 -1.1015733,-0.32813 -0.5390679,0 -1.1367301,0.22266 -0.5918028,0.22266 -1.1015735,0.56836 H 7.2725132 v -1.93947 q 0.4160198,-0.18164 1.2246216,-0.36328 0.8144613,-0.18165 1.6289222,-0.18165 1.640642,0 2.501979,0.69142 0.861336,0.68555 0.861336,1.94533 0,0.82618 -0.416019,1.57033 -0.410161,0.74415 -1.259779,1.53517 -0.533208,0.49219 -1.072276,0.90821 -0.539068,0.41016 -0.7675859,0.57423 h 3.9199609 z m 8.472742,-4.36527 q 0,1.10157 -0.199221,1.97463 -0.199221,0.86719 -0.6211,1.42384 -0.433598,0.56836 -1.113292,0.86133 -0.679695,0.28712 -1.675798,0.28712 -0.978526,0 -1.669939,-0.29297 -0.691413,-0.29298 -1.119152,-0.8672 -0.433598,-0.57423 -0.626959,-1.42384 -0.193362,-0.85548 -0.193362,-1.95705 0,-1.13673 0.199221,-1.97463 0.199221,-0.8379 0.632819,-1.41799 0.433598,-0.57422 1.125011,-0.86133 0.691413,-0.28712 1.652361,-0.28712 1.001963,0 1.681657,0.29884 0.679694,0.29297 1.113292,0.87891 0.427739,0.57423 0.6211,1.41798 0.193362,0.8379 0.193362,1.93948 z m -2.267601,0 q 0,-1.58205 -0.31055,-2.25003 -0.31055,-0.67383 -1.03126,-0.67383 -0.720711,0 -1.031261,0.67383 -0.31055,0.66798 -0.31055,2.26175 0,1.55275 0.31641,2.2383 0.316409,0.68555 1.025401,0.68555 0.708991,0 1.0254,-0.68555 0.31641,-0.68555 0.31641,-2.25002 z"
     id="text19"
     class="st5"
     style="font-weight:bold;font-size:12.0002px;font-family:'Bahnschrift SemiCondensed';fill:#fafafa;fill-opacity:1;stroke:none"
     aria-label="20"
     transform="translate(-53.147221,-35.4331)" /><path
     d="m 226.76,283.46 a 113.386,85.0394 -180 0 0 0,-2.83 H 0.02 a 113.386,85.0394 -180 0 0 0,2.83 z"
     class="st6"
     id="path20"
     style="fill:#fafafa;fill-opacity:1;stroke:none;stroke-width:0.75;stroke-linecap:round;stroke-linejoin:round"
     transform="translate(-113.386,1.41732)" /><rect
     x="0"
     y="280.63"
     width="35.433102"
     height="2.83465"
     class="st3"
     id="rect4-8"
     style="fill:#fafafa;fill-opacity:1;stroke:none;stroke-width:0.75;stroke-linecap:round;stroke-linejoin:round"
     transform="translate(-17.7165,-21.2598)" /><rect
     x="0"
     y="280.63"
     width="21.2598"
     height="2.83465"
     class="st3"
     id="rect5-8"
     style="fill:#fafafa;fill-opacity:1;stroke:none;stroke-width:0.75;stroke-linecap:round;stroke-linejoin:round"
     transform="translate(-10.6299,-9.92126)" /><rect
     x="0"
     y="280.63"
     width="21.2598"
     height="2.83465"
     class="st3"
     id="rect6"
     style="fill:#fafafa;fill-opacity:1;stroke:none;stroke-width:0.75;stroke-linecap:round;stroke-linejoin:round"
     transform="translate(-10.6299,-32.5984)" /><rect
     x="0"
     y="280.63"
     width="53.858299"
     height="2.83465"
     class="st3"
     id="rect7"
     style="fill:#fafafa;fill-opacity:1;stroke:none;stroke-width:0.75;stroke-linecap:round;stroke-linejoin:round"
     transform="translate(-26.9291,-43.937)" /><rect
     x="0"
     y="280.63"
     width="35.433102"
     height="2.83465"
     class="st3"
     id="rect8"
     style="fill:#fafafa;fill-opacity:1;stroke:none;stroke-width:0.75;stroke-linecap:round;stroke-linejoin:round"
     transform="rotate(180,8.8582497,294.0945)" /><rect
     x="0"
     y="280.63"
     width="21.2598"
     height="2.83465"
     class="st3"
     id="rect9"
     style="fill:#fafafa;fill-opacity:1;stroke:none;stroke-width:0.75;stroke-linecap:round;stroke-linejoin:round"
     transform="rotate(180,5.3149497,288.425)" /><rect
     x="0"
     y="280.63"
     width="21.2598"
     height="2.83465"
     class="st3"
     id="rect10"
     style="fill:#fafafa;fill-opacity:1;stroke:none;stroke-width:0.75;stroke-linecap:round;stroke-linejoin:round"
     transform="rotate(180,5.3149497,299.76399)" /><rect
     x="0"
     y="280.63"
     width="53.858299"
     height="2.83465"
     class="st3"
     id="rect11"
     style="fill:#fafafa;fill-opacity:1;stroke:none;stroke-width:0.75;stroke-linecap:round;stroke-linejoin:round"
     transform="rotate(180,13.46455,305.43299)" /></g><g
   inkscape:groupmode="layer"
   id="layer4"
   inkscape:label="bank"
   style="display:inline"><path
     id="path2-2"
     style="fill:#222222;fill-opacity:1;stroke:none;stroke-width:0.75;stroke-linecap:round;stroke-linejoin:round"
     class="st1"
     d="M 128.97454,154.99234 A 128.976,128.976 0 0 0 -6.8566447e-4,283.46072 H 34.720539 a 94.255,94.255 0 0 1 188.509461,0 h 34.71976 A 128.976,128.976 0 0 0 128.97454,154.99234 Z M -6.8566447e-4,283.46658 a 128.976,128.976 0 1 0 257.95044566447,0 H 223.23 a 94.255,94.255 0 0 1 -188.509461,0 z"
     transform="translate(-128.976)" /><rect
     x="0"
     y="257.953"
     width="7.0866098"
     height="25.511801"
     class="st4"
     id="rect5-5"
     style="fill:#fafafa;fill-opacity:1;stroke:none;stroke-width:0.75"
     transform="rotate(180,1.77165,223.2285)" /><rect
     x="0"
     y="257.953"
     width="7.0866098"
     height="25.511801"
     class="st4"
     id="rect6-1"
     style="fill:#fafafa;fill-opacity:1;stroke:none;stroke-width:0.75"
     transform="rotate(-90,62.008003,225)" /><rect
     x="0"
     y="257.953"
     width="7.0866098"
     height="25.511801"
     class="st4"
     id="rect7-7"
     style="fill:#fafafa;fill-opacity:1;stroke:none;stroke-width:0.75"
     transform="rotate(-120,36.548817,224.25119)" /><rect
     x="0"
     y="257.953"
     width="7.0866098"
     height="25.511801"
     class="st4"
     id="rect8-1"
     style="fill:#fafafa;fill-opacity:1;stroke:none;stroke-width:0.75"
     transform="rotate(-150,17.911947,223.70329)" /><rect
     x="0"
     y="257.953"
     width="2.83465"
     height="25.511801"
     class="st4"
     id="rect9-1"
     style="fill:#fafafa;fill-opacity:1;stroke:none;stroke-width:0.75"
     transform="rotate(-160,11.330169,223.35335)" /><rect
     x="0"
     y="257.953"
     width="2.83465"
     height="25.511801"
     class="st4"
     id="rect10-5"
     style="fill:#fafafa;fill-opacity:1;stroke:none;stroke-width:0.75"
     transform="rotate(-170,5.9786561,223.29105)" /><rect
     x="0"
     y="257.953"
     width="2.83465"
     height="25.511801"
     class="st4"
     id="rect11-2"
     style="fill:#fafafa;fill-opacity:1;stroke:none;stroke-width:0.75"
     transform="rotate(170,-4.5612905,223.16667)" /><rect
     x="0"
     y="257.953"
     width="2.83465"
     height="25.511801"
     class="st4"
     id="rect12"
     style="fill:#fafafa;fill-opacity:1;stroke:none;stroke-width:0.75"
     transform="rotate(160,-9.9128007,223.1032)" /><rect
     x="0"
     y="257.953"
     width="7.0866098"
     height="25.511801"
     class="st4"
     id="rect13"
     style="fill:#fafafa;fill-opacity:1;stroke:none;stroke-width:0.75"
     transform="rotate(150,-14.368543,222.75352)" /><rect
     x="0"
     y="257.953"
     width="7.0866098"
     height="25.511801"
     class="st4"
     id="rect14"
     style="fill:#fafafa;fill-opacity:1;stroke:none;stroke-width:0.75"
     transform="rotate(120,-33.005718,222.20547)" /><rect
     x="0"
     y="257.953"
     width="7.0866098"
     height="25.511801"
     class="st4"
     id="rect15"
     style="fill:#fafafa;fill-opacity:1;stroke:none;stroke-width:0.75"
     transform="rotate(90,-58.464501,221.45649)" /></g><g
   inkscape:groupmode="layer"
   id="layer1"
   inkscape:label="overlay"
   inkscape:highlight-color="#0000ff"
   style="display:inline"><path
     d="M 31.04,283.46 V 271.98 A 28.3465,28.3465 -180 0 0 56.41,246.61 H 52.3 a 2.83465,2.83465 0 0 1 -1.54,-0.45 22.6772,22.6772 0 0 1 -19.74,20.12 l -2.46,-19.69 a 2.83465,2.83465 0 0 1 -0.71,0 l -2.46,19.69 A 22.6772,22.6772 0 0 1 5.65,246.16 2.83464,2.83464 0 0 1 4.11,246.61 H 0 a 28.3465,28.3465 -180 0 0 25.37,25.37 v 11.48 z"
     class="st4"
     id="path8"
     transform="translate(-28.2044,39.685)" /><path
     d="m 0,253.07 v 3.47 l 7.69,26.92 h 3.65 v -25.51 h 5.67 v 25.51 h 3.64 l 7.7,-26.92 v -3.47 a 127.559,127.559 -180 0 0 -28.35,0 z"
     class="st3"
     id="path7"
     style="fill:#ffff00;fill-opacity:1;stroke:#000000;stroke-opacity:1"
     transform="translate(-14.1732,-96.378002)" /><circle
     cx="2.83465"
     cy="280.63"
     class="st3"
     id="ellipse6"
     r="2.83465"
     style="fill:#ffff00;fill-opacity:1;stroke:#000000;stroke-opacity:1"
     transform="translate(-2.83465,2.83465)" /><rect
     x="0"
     y="277.79501"
     width="46.771702"
     height="5.6692901"
     rx="2.83465"
     ry="2.83465"
     class="st3"
     id="rect5"
     style="fill:#ffff00;fill-opacity:1;stroke:#000000;stroke-opacity:1"
     transform="translate(21.2598,2.83465)" /><rect
     x="0"
     y="277.79501"
     width="46.771702"
     height="5.6692901"
     rx="2.83465"
     ry="2.83465"
     class="st3"
     id="rect4"
     style="fill:#ffff00;fill-opacity:1;stroke:#000000;stroke-opacity:1"
     transform="translate(-68.0315,2.83465)" /><path
     d="m 38.948,368.502 -26.19,-45.35 h -26.08 l -25.51,45.35 h -56.24 a 127.559,127.559 0 1 1 190.15,0 z m 102.78,-85.04 a 141.732,141.732 0 1 0 -283.46,0 141.732,141.732 0 1 0 283.46,0 z"
     class="st2"
     id="path3"
     style="fill:#0f0f0f;fill-opacity:1;stroke:none;stroke-opacity:1" /></g></svg>
