<?xml version="1.0" encoding="UTF-8" standalone="no"?>
<!-- Generated by Microsoft Visio, SVG Export GSI_background.svg Page-3 -->

<svg
   width="3.93701in"
   height="3.93701in"
   viewBox="0 0 283.465 283.465"
   xml:space="preserve"
   color-interpolation-filters="sRGB"
   class="st2"
   version="1.1"
   id="svg2"
   sodipodi:docname="Groundspeed Indicator.svg"
   inkscape:version="1.4 (86a8ad7, 2024-10-11)"
   inkscape:export-filename="GSI_fail.png"
   inkscape:export-xdpi="149.79343"
   inkscape:export-ydpi="149.79343"
   xmlns:inkscape="http://www.inkscape.org/namespaces/inkscape"
   xmlns:sodipodi="http://sodipodi.sourceforge.net/DTD/sodipodi-0.dtd"
   xmlns="http://www.w3.org/2000/svg"
   xmlns:svg="http://www.w3.org/2000/svg"><defs
   id="defs2" /><sodipodi:namedview
   id="namedview2"
   pagecolor="#ffffff"
   bordercolor="#000000"
   borderopacity="0.25"
   inkscape:showpageshadow="2"
   inkscape:pageopacity="0.0"
   inkscape:pagecheckerboard="0"
   inkscape:deskcolor="#d1d1d1"
   inkscape:document-units="in"
   inkscape:zoom="2.1833236"
   inkscape:cx="-83.817168"
   inkscape:cy="354.27639"
   inkscape:window-width="2560"
   inkscape:window-height="1369"
   inkscape:window-x="-8"
   inkscape:window-y="-8"
   inkscape:window-maximized="1"
   inkscape:current-layer="text6-5" />
	<style
   type="text/css"
   id="style1">
	<![CDATA[
		.st1 {fill:#3f3f3f;stroke:#000000;stroke-linecap:round;stroke-linejoin:round;stroke-width:4.5}
		.st2 {fill:none;fill-rule:evenodd;font-size:12px;overflow:visible;stroke-linecap:square;stroke-miterlimit:3}
	]]>
	</style>

	<g
   id="g2"
   style="display:inline;fill:#262626;fill-opacity:1;stroke:#000000;stroke-opacity:1"
   inkscape:label="background"
   inkscape:highlight-color="#ff0000">
		<title
   id="title1">Bckground</title>
		<g
   id="shape1115-1"
   transform="translate(-141.732,141.732)"
   style="fill:#262626;fill-opacity:1;stroke:#000000;stroke-opacity:1">
			<title
   id="title2">Sheet.1115</title>
			<circle
   cx="141.73199"
   cy="141.73199"
   class="st1"
   id="ellipse2"
   style="fill:#262626;fill-opacity:1;stroke:#000000;stroke-opacity:1"
   r="141.73199" />
		</g>
	</g><g
   inkscape:groupmode="layer"
   id="layer5"
   inkscape:label="scale"
   style="display:inline"><rect
     x="0"
     y="248.03101"
     width="2.83465"
     height="35.433102"
     class="st2"
     id="rect3"
     style="fill:#f7f7f7;fill-opacity:1;stroke:none;stroke-width:0;stroke-dasharray:none;stroke-opacity:1"
     transform="rotate(-152,15.519599,224.09704)" /><rect
     x="0"
     y="255.118"
     width="2.83465"
     height="28.3465"
     class="st2"
     id="rect4"
     style="fill:#f7f7f7;fill-opacity:1;stroke:none;stroke-width:0;stroke-dasharray:none;stroke-opacity:1"
     transform="rotate(-142.8,20.729788,224.10748)" /><path
     d="m 27.866484,277.14001 v -8.58984 h 1.734375 v 3.81445 l 3.503906,-3.81445 h 2.332031 l -3.234375,3.3457 3.410156,5.24414 h -2.24414 l -2.361328,-4.03125 -1.40625,1.43555 v 2.5957 z m 8.660156,0 v -8.58984 h 1.6875 l 3.515625,5.73633 v -5.73633 h 1.611328 v 8.58984 h -1.740234 l -3.462891,-5.60156 v 5.60156 z m 8.296875,-4.24218 q 0,-1.3125 0.392578,-2.20313 0.292969,-0.65625 0.796875,-1.17773 0.509766,-0.52149 1.113281,-0.77344 0.802735,-0.33984 1.851563,-0.33984 1.898437,0 3.035156,1.17773 1.142578,1.17774 1.142578,3.27539 0,2.08008 -1.130859,3.25781 -1.13086,1.17188 -3.023438,1.17188 -1.916015,0 -3.046875,-1.16602 -1.130859,-1.17187 -1.130859,-3.22265 z m 1.787109,-0.0586 q 0,1.45899 0.673828,2.21485 0.673829,0.75 1.710938,0.75 1.037109,0 1.699219,-0.74414 0.667968,-0.75 0.667968,-2.24414 0,-1.47657 -0.65039,-2.20313 -0.644531,-0.72656 -1.716797,-0.72656 -1.072266,0 -1.728516,0.73828 -0.65625,0.73242 -0.65625,2.21484 z m 9.832032,4.30078 v -7.13671 h -2.548829 v -1.45313 h 6.826172 v 1.45313 h -2.542968 v 7.13671 z m 4.957031,-2.79492 1.6875,-0.16406 q 0.152344,0.84961 0.615234,1.24805 0.46875,0.39843 1.259766,0.39843 0.83789,0 1.259765,-0.35156 0.427735,-0.35742 0.427735,-0.83203 0,-0.30469 -0.181641,-0.51562 -0.175781,-0.2168 -0.621094,-0.375 -0.304687,-0.10547 -1.388671,-0.375 -1.394532,-0.34571 -1.957032,-0.84961 -0.791015,-0.70899 -0.791015,-1.72852 0,-0.65625 0.36914,-1.22461 0.375,-0.57422 1.072266,-0.87305 0.703125,-0.29882 1.693359,-0.29882 1.617188,0 2.431641,0.70898 0.820312,0.70899 0.861328,1.89258 l -1.734375,0.0762 q -0.111328,-0.66211 -0.480469,-0.94922 -0.363281,-0.29297 -1.095703,-0.29297 -0.755859,0 -1.183594,0.31055 -0.27539,0.19922 -0.27539,0.5332 0,0.30469 0.257812,0.52149 0.328125,0.27539 1.59375,0.57422 1.265625,0.29882 1.869141,0.62109 0.609375,0.31641 0.949219,0.87305 0.345703,0.55078 0.345703,1.36523 0,0.73828 -0.410156,1.38281 -0.410157,0.64454 -1.160157,0.96094 -0.75,0.31055 -1.86914,0.31055 -1.628907,0 -2.501953,-0.75 -0.873047,-0.75586 -1.042969,-2.19727 z"
     id="text5"
     style="font-weight:bold;font-size:12px;font-family:Arial;-inkscape-font-specification:'Arial, Bold';fill:#f7f7f7;fill-opacity:1;stroke:none;stroke-width:0;stroke-dasharray:none;stroke-opacity:1"
     class="st4"
     aria-label="KNOTS"
     transform="translate(-48.007951,35.736047)" /><path
     d="m 25.097422,278.94 v -2.59277 h -5.273438 v -2.16211 l 5.589844,-8.18262 h 2.074219 v 8.17383 h 1.599609 v 2.1709 H 27.488047 V 278.94 Z m 0,-4.76367 v -4.40332 l -2.961914,4.40332 z m 9.342773,-8.17383 q 1.87207,0 2.926758,1.33594 1.256836,1.58203 1.256836,5.24707 0,3.65625 -1.265625,5.25586 -1.045899,1.31836 -2.917969,1.31836 -1.880859,0 -3.032226,-1.44141 -1.151368,-1.45019 -1.151368,-5.15918 0,-3.63867 1.265625,-5.23828 1.045899,-1.31836 2.917969,-1.31836 z m 0,2.04785 q -0.448242,0 -0.799805,0.29004 -0.351562,0.28125 -0.544921,1.01953 -0.254883,0.95801 -0.254883,3.22559 0,2.26758 0.228515,3.12012 0.228516,0.84375 0.571289,1.125 0.351563,0.28125 0.799805,0.28125 0.448242,0 0.799805,-0.28125 0.351562,-0.29004 0.544922,-1.02832 0.254882,-0.94922 0.254882,-3.2168 0,-2.26758 -0.228515,-3.11133 -0.228516,-0.85254 -0.580078,-1.13379 -0.342774,-0.29004 -0.791016,-0.29004 z"
     id="text6"
     style="font-weight:bold;font-size:18px;font-family:Arial;-inkscape-font-specification:'Arial, Bold';fill:#f7f7f7;fill-opacity:1;stroke:none;stroke-width:0;stroke-dasharray:none;stroke-opacity:1"
     class="st5"
     aria-label="40"
     transform="translate(1.6675552,-51.509401)" /><path
     d="M 24.625478,276.64605 V 278.94 h -8.657235 q 0.140625,-1.30078 0.843751,-2.46094 0.703126,-1.16894 2.777346,-3.09375 1.669924,-1.55567 2.047854,-2.10938 0.509766,-0.76465 0.509766,-1.51172 0,-0.82617 -0.448243,-1.26562 -0.439453,-0.44825 -1.221681,-0.44825 -0.773438,0 -1.230469,0.46582 -0.457032,0.46583 -0.527345,1.54688 l -2.46094,-0.24609 q 0.219727,-2.03907 1.379885,-2.92676 1.160157,-0.8877 2.900393,-0.8877 1.907228,0 2.997073,1.02832 1.089845,1.02832 1.089845,2.55762 0,0.87012 -0.316407,1.66114 -0.307617,0.78222 -0.984376,1.64355 -0.448242,0.57129 -1.617189,1.64356 -1.168946,1.07226 -1.485353,1.42383 -0.307617,0.35156 -0.500977,0.68554 z m 5.844732,-10.64356 q 1.872072,0 2.926761,1.33594 1.256837,1.58203 1.256837,5.24707 0,3.65626 -1.265626,5.25587 -1.0459,1.31836 -2.917972,1.31836 -1.880861,0 -3.032229,-1.44141 -1.151369,-1.4502 -1.151369,-5.15918 0,-3.63868 1.265626,-5.23829 1.0459,-1.31836 2.917972,-1.31836 z m 0,2.04785 q -0.448243,0 -0.799805,0.29004 -0.351563,0.28125 -0.544923,1.01954 -0.254883,0.958 -0.254883,3.22558 0,2.26758 0.228516,3.12012 0.228516,0.84376 0.57129,1.12501 0.351562,0.28125 0.799805,0.28125 0.448243,0 0.799805,-0.28125 0.351563,-0.29004 0.544923,-1.02833 0.254883,-0.94922 0.254883,-3.2168 0,-2.26758 -0.228516,-3.11133 -0.228516,-0.85254 -0.580079,-1.13379 -0.342773,-0.29004 -0.791016,-0.29004 z m 10.010752,-2.04785 q 1.872072,0 2.92676,1.33594 1.256837,1.58203 1.256837,5.24707 0,3.65626 -1.265626,5.25587 -1.045899,1.31836 -2.917971,1.31836 -1.880861,0 -3.03223,-1.44141 -1.151368,-1.4502 -1.151368,-5.15918 0,-3.63868 1.265626,-5.23829 1.0459,-1.31836 2.917972,-1.31836 z m 0,2.04785 q -0.448243,0 -0.799806,0.29004 -0.351563,0.28125 -0.544922,1.01954 -0.254883,0.958 -0.254883,3.22558 0,2.26758 0.228516,3.12012 0.228516,0.84376 0.571289,1.12501 0.351563,0.28125 0.799806,0.28125 0.448242,0 0.799805,-0.28125 0.351563,-0.29004 0.544923,-1.02833 0.254883,-0.94922 0.254883,-3.2168 0,-2.26758 -0.228516,-3.11133 -0.228516,-0.85254 -0.580079,-1.13379 -0.342774,-0.29004 -0.791016,-0.29004 z"
     id="text7"
     style="font-weight:bold;font-size:18px;font-family:Arial;-inkscape-font-specification:'Arial, Bold';fill:#f7f7f7;fill-opacity:1;stroke:none;stroke-width:0;stroke-dasharray:none;stroke-opacity:1"
     class="st5"
     aria-label="200"
     transform="translate(-67.2654,-43.5539)" /><rect
     x="0"
     y="248.03101"
     width="2.83465"
     height="35.433102"
     class="st2"
     id="rect8"
     style="fill:#f7f7f7;fill-opacity:1;stroke:none;stroke-width:0;stroke-dasharray:none;stroke-opacity:1"
     transform="rotate(-133.7,26.221248,224.24262)" /><rect
     x="0"
     y="255.118"
     width="2.83465"
     height="28.3465"
     class="st2"
     id="rect9"
     style="fill:#f7f7f7;fill-opacity:1;stroke:none;stroke-width:0;stroke-dasharray:none;stroke-opacity:1"
     transform="rotate(-124.5,32.000606,224.30418)" /><rect
     x="0"
     y="248.03101"
     width="2.83465"
     height="35.433102"
     class="st2"
     id="rect10"
     style="fill:#f7f7f7;fill-opacity:1;stroke:none;stroke-width:0;stroke-dasharray:none;stroke-opacity:1"
     transform="rotate(-115.4,38.297012,224.44263)" /><rect
     x="0"
     y="255.118"
     width="2.83465"
     height="28.3465"
     class="st2"
     id="rect11"
     style="fill:#f7f7f7;fill-opacity:1;stroke:none;stroke-width:0;stroke-dasharray:none;stroke-opacity:1"
     transform="rotate(-106.2,45.375813,224.52844)" /><rect
     x="0"
     y="248.03101"
     width="2.83465"
     height="35.433102"
     class="st2"
     id="rect12"
     style="fill:#f7f7f7;fill-opacity:1;stroke:none;stroke-width:0;stroke-dasharray:none;stroke-opacity:1"
     transform="rotate(-97.1,53.302225,224.52311)" /><rect
     x="0"
     y="255.118"
     width="2.83465"
     height="28.3465"
     class="st2"
     id="rect13"
     style="fill:#f7f7f7;fill-opacity:1;stroke:none;stroke-width:0;stroke-dasharray:none;stroke-opacity:1"
     transform="rotate(-87.9,62.441744,224.57547)" /><rect
     x="0"
     y="248.03101"
     width="2.83465"
     height="35.433102"
     class="st2"
     id="rect14"
     style="fill:#f7f7f7;fill-opacity:1;stroke:none;stroke-width:0;stroke-dasharray:none;stroke-opacity:1"
     transform="rotate(-78.8,73.250973,224.85953)" /><rect
     x="0"
     y="255.118"
     width="2.83465"
     height="28.3465"
     class="st2"
     id="rect15"
     style="fill:#f7f7f7;fill-opacity:1;stroke:none;stroke-width:0;stroke-dasharray:none;stroke-opacity:1"
     transform="rotate(-69.599999,86.324499,224.83009)" /><rect
     x="0"
     y="248.03101"
     width="2.83465"
     height="35.433102"
     class="st2"
     id="rect16"
     style="fill:#f7f7f7;fill-opacity:1;stroke:none;stroke-width:0;stroke-dasharray:none;stroke-opacity:1"
     transform="rotate(-60.400001,102.84937,225.13617)" /><rect
     x="0"
     y="255.118"
     width="2.83465"
     height="28.3465"
     class="st2"
     id="rect17"
     style="fill:#f7f7f7;fill-opacity:1;stroke:none;stroke-width:0;stroke-dasharray:none;stroke-opacity:1"
     transform="rotate(-51.3,124.82345,225.40447)" /><rect
     x="0"
     y="248.03101"
     width="2.83465"
     height="35.433102"
     class="st2"
     id="rect18"
     style="fill:#f7f7f7;fill-opacity:1;stroke:none;stroke-width:0;stroke-dasharray:none;stroke-opacity:1"
     transform="rotate(-42.1,155.57572,225.67614)" /><rect
     x="0"
     y="255.118"
     width="2.83465"
     height="28.3465"
     class="st2"
     id="rect19"
     style="fill:#f7f7f7;fill-opacity:1;stroke:none;stroke-width:0;stroke-dasharray:none;stroke-opacity:1"
     transform="rotate(-32.999999,201.59099,226.17503)" /><rect
     x="0"
     y="248.03101"
     width="2.83465"
     height="35.433102"
     class="st2"
     id="rect20"
     style="fill:#f7f7f7;fill-opacity:1;stroke:none;stroke-width:0;stroke-dasharray:none;stroke-opacity:1"
     transform="rotate(-23.799999,283.0686,226.91589)" /><rect
     x="0"
     y="255.118"
     width="2.83465"
     height="28.3465"
     class="st2"
     id="rect21"
     style="fill:#f7f7f7;fill-opacity:1;stroke:none;stroke-width:0;stroke-dasharray:none;stroke-opacity:1"
     transform="rotate(-14.7,461.84001,230.03088)" /><rect
     x="0"
     y="248.03101"
     width="2.83465"
     height="35.433102"
     class="st2"
     id="rect22"
     style="fill:#f7f7f7;fill-opacity:1;stroke:none;stroke-width:0;stroke-dasharray:none;stroke-opacity:1"
     transform="rotate(-5.4999997,1239.7702,239.4339)" /><rect
     x="0"
     y="255.118"
     width="2.83465"
     height="28.3465"
     class="st2"
     id="rect23"
     style="fill:#f7f7f7;fill-opacity:1;stroke:none;stroke-width:0;stroke-dasharray:none;stroke-opacity:1"
     transform="rotate(3.7000002,-1841.6984,202.4334)" /><rect
     x="0"
     y="248.03101"
     width="2.83465"
     height="35.433102"
     class="st2"
     id="rect24"
     style="fill:#f7f7f7;fill-opacity:1;stroke:none;stroke-width:0;stroke-dasharray:none;stroke-opacity:1"
     transform="rotate(12.8,-530.53804,217.74471)" /><rect
     x="0"
     y="255.118"
     width="2.83465"
     height="28.3465"
     class="st2"
     id="rect25"
     style="fill:#f7f7f7;fill-opacity:1;stroke:none;stroke-width:0;stroke-dasharray:none;stroke-opacity:1"
     transform="rotate(76.9,-74.217912,223.02945)" /><rect
     x="0"
     y="248.03101"
     width="2.83465"
     height="35.433102"
     class="st2"
     id="rect26"
     style="fill:#f7f7f7;fill-opacity:1;stroke:none;stroke-width:0;stroke-dasharray:none;stroke-opacity:1"
     transform="rotate(86.1,-63.077152,223.24391)" /><rect
     x="0"
     y="255.118"
     width="2.83465"
     height="28.3465"
     class="st2"
     id="rect27"
     style="fill:#f7f7f7;fill-opacity:1;stroke:none;stroke-width:0;stroke-dasharray:none;stroke-opacity:1"
     transform="rotate(95.2,-53.617807,223.33448)" /><rect
     x="0"
     y="248.03101"
     width="2.83465"
     height="35.433102"
     class="st2"
     id="rect28"
     style="fill:#f7f7f7;fill-opacity:1;stroke:none;stroke-width:0;stroke-dasharray:none;stroke-opacity:1"
     transform="rotate(104.4,-45.542851,223.42934)" /><rect
     x="0"
     y="255.118"
     width="2.83465"
     height="28.3465"
     class="st2"
     id="rect29"
     style="fill:#f7f7f7;fill-opacity:1;stroke:none;stroke-width:0;stroke-dasharray:none;stroke-opacity:1"
     transform="rotate(131.8,-25.901668,223.61816)" /><rect
     x="0"
     y="248.03101"
     width="2.83465"
     height="35.433102"
     class="st2"
     id="rect30"
     style="fill:#f7f7f7;fill-opacity:1;stroke:none;stroke-width:0;stroke-dasharray:none;stroke-opacity:1"
     transform="rotate(141,-20.346724,223.75899)" /><rect
     x="0"
     y="255.118"
     width="2.83465"
     height="28.3465"
     class="st2"
     id="rect31"
     style="fill:#f7f7f7;fill-opacity:1;stroke:none;stroke-width:0;stroke-dasharray:none;stroke-opacity:1"
     transform="rotate(21.999999,-305.91151,220.61781)" /><rect
     x="0"
     y="248.03101"
     width="2.83465"
     height="35.433102"
     class="st2"
     id="rect32"
     style="fill:#f7f7f7;fill-opacity:1;stroke:none;stroke-width:0;stroke-dasharray:none;stroke-opacity:1"
     transform="rotate(31.099999,-213.41036,221.41376)" /><rect
     x="0"
     y="255.118"
     width="2.83465"
     height="28.3465"
     class="st2"
     id="rect33"
     style="fill:#f7f7f7;fill-opacity:1;stroke:none;stroke-width:0;stroke-dasharray:none;stroke-opacity:1"
     transform="rotate(40.300001,-161.44446,221.82615)" /><rect
     x="0"
     y="248.03101"
     width="2.83465"
     height="35.433102"
     class="st2"
     id="rect34"
     style="fill:#f7f7f7;fill-opacity:1;stroke:none;stroke-width:0;stroke-dasharray:none;stroke-opacity:1"
     transform="rotate(49.400001,-128.62853,222.31762)" /><rect
     x="0"
     y="255.118"
     width="2.83465"
     height="28.3465"
     class="st2"
     id="rect35"
     style="fill:#f7f7f7;fill-opacity:1;stroke:none;stroke-width:0;stroke-dasharray:none;stroke-opacity:1"
     transform="rotate(58.599999,-105.34303,222.82365)" /><rect
     x="0"
     y="248.03101"
     width="2.83465"
     height="35.433102"
     class="st2"
     id="rect36"
     style="fill:#f7f7f7;fill-opacity:1;stroke:none;stroke-width:0;stroke-dasharray:none;stroke-opacity:1"
     transform="rotate(67.7,-88.024775,222.7411)" /><rect
     x="0"
     y="255.118"
     width="2.83465"
     height="28.3465"
     class="st2"
     id="rect37"
     style="fill:#f7f7f7;fill-opacity:1;stroke:none;stroke-width:0;stroke-dasharray:none;stroke-opacity:1"
     transform="rotate(113.5,-38.247248,223.41318)" /><rect
     x="0"
     y="248.03101"
     width="2.83465"
     height="35.433102"
     class="st2"
     id="rect38"
     style="fill:#f7f7f7;fill-opacity:1;stroke:none;stroke-width:0;stroke-dasharray:none;stroke-opacity:1"
     transform="rotate(122.7,-31.744964,223.56918)" /><path
     d="m 29.081837,269.21051 -2.390625,0.26367 q -0.08789,-0.73828 -0.457032,-1.08984 -0.36914,-0.35156 -0.958007,-0.35156 -0.782227,0 -1.327149,0.70312 -0.536133,0.70313 -0.676758,2.92676 0.922852,-1.08985 2.293946,-1.08985 1.546875,0 2.645508,1.17774 1.107421,1.17773 1.107421,3.04101 0,1.97754 -1.160156,3.17286 -1.160156,1.19531 -2.979492,1.19531 -1.951172,0 -3.208008,-1.51172 -1.256836,-1.52051 -1.256836,-4.97461 0,-3.54199 1.309571,-5.10644 1.30957,-1.56446 3.401367,-1.56446 1.467773,0 2.425781,0.82617 0.966797,0.81739 1.230469,2.38184 z m -5.598633,5.3877 q 0,1.2041 0.553711,1.86328 0.553711,0.65039 1.265625,0.65039 0.685547,0 1.142578,-0.53614 0.457031,-0.53613 0.457031,-1.75781 0,-1.25683 -0.492187,-1.83691 -0.492188,-0.58887 -1.230469,-0.58887 -0.711914,0 -1.204102,0.5625 -0.492187,0.55371 -0.492187,1.64356 z m 11.416992,-8.59571 q 1.87207,0 2.926758,1.33594 1.256836,1.58203 1.256836,5.24707 0,3.65625 -1.265625,5.25586 -1.045899,1.31836 -2.917969,1.31836 -1.880859,0 -3.032226,-1.44141 -1.151368,-1.45019 -1.151368,-5.15918 0,-3.63867 1.265625,-5.23828 1.045899,-1.31836 2.917969,-1.31836 z m 0,2.04785 q -0.448242,0 -0.799805,0.29004 -0.351562,0.28125 -0.544921,1.01953 -0.254883,0.95801 -0.254883,3.22559 0,2.26758 0.228515,3.12012 0.228516,0.84375 0.571289,1.125 0.351563,0.28125 0.799805,0.28125 0.448242,0 0.799805,-0.28125 0.351562,-0.29004 0.544922,-1.02832 0.254882,-0.94922 0.254882,-3.2168 0,-2.26758 -0.228515,-3.11133 -0.228516,-0.85254 -0.580078,-1.13379 -0.342774,-0.29004 -0.791016,-0.29004 z"
     id="text39"
     style="font-weight:bold;font-size:18px;font-family:Arial;-inkscape-font-specification:'Arial, Bold';fill:#f7f7f7;fill-opacity:1;stroke:none;stroke-width:0;stroke-dasharray:none;stroke-opacity:1"
     class="st5"
     aria-label="60"
     transform="translate(31.868796,-21.219796)" /><path
     d="m 22.492813,271.98785 q -0.958008,-0.40429 -1.397461,-1.10742 -0.430664,-0.71191 -0.430664,-1.55566 0,-1.44141 1.001953,-2.38184 1.010742,-0.94043 2.865235,-0.94043 1.836914,0 2.847656,0.94043 1.019531,0.94043 1.019531,2.38184 0,0.89648 -0.46582,1.59961 -0.465821,0.69433 -1.309571,1.06347 1.072266,0.43067 1.625977,1.25684 0.5625,0.82617 0.5625,1.90723 0,1.78418 -1.142578,2.90039 -1.133789,1.11621 -3.023438,1.11621 -1.757812,0 -2.926757,-0.92285 -1.379883,-1.08985 -1.379883,-2.98828 0,-1.0459 0.518554,-1.91602 0.518555,-0.87891 1.634766,-1.35352 z m 0.509766,-2.4873 q 0,0.73828 0.413086,1.15137 0.421875,0.41308 1.116211,0.41308 0.703125,0 1.125,-0.41308 0.421875,-0.42188 0.421875,-1.16016 0,-0.69434 -0.421875,-1.10742 -0.413086,-0.42188 -1.098633,-0.42188 -0.711914,0 -1.133789,0.42188 -0.421875,0.42187 -0.421875,1.11621 z m -0.228516,5.51953 q 0,1.01953 0.518555,1.59082 0.527344,0.57129 1.30957,0.57129 0.764649,0 1.265625,-0.54492 0.500977,-0.55371 0.500977,-1.59082 0,-0.90528 -0.509766,-1.4502 -0.509766,-0.55371 -1.291992,-0.55371 -0.905274,0 -1.353516,0.62402 -0.439453,0.62403 -0.439453,1.35352 z m 11.786133,-9.01758 q 1.87207,0 2.926758,1.33594 1.256836,1.58203 1.256836,5.24707 0,3.65625 -1.265625,5.25586 -1.045899,1.31836 -2.917969,1.31836 -1.880859,0 -3.032227,-1.44141 -1.151367,-1.45019 -1.151367,-5.15918 0,-3.63867 1.265625,-5.23828 1.045899,-1.31836 2.917969,-1.31836 z m 0,2.04785 q -0.448242,0 -0.799805,0.29004 -0.351562,0.28125 -0.544922,1.01953 -0.254882,0.95801 -0.254882,3.22559 0,2.26758 0.228515,3.12012 0.228516,0.84375 0.571289,1.125 0.351563,0.28125 0.799805,0.28125 0.448242,0 0.799805,-0.28125 0.351562,-0.29004 0.544921,-1.02832 0.254883,-0.94922 0.254883,-3.2168 0,-2.26758 -0.228515,-3.11133 -0.228516,-0.85254 -0.580078,-1.13379 -0.342774,-0.29004 -0.791016,-0.29004 z"
     id="text40"
     style="font-weight:bold;font-size:18px;font-family:Arial;-inkscape-font-specification:'Arial, Bold';fill:#f7f7f7;fill-opacity:1;stroke:none;stroke-width:0;stroke-dasharray:none;stroke-opacity:1"
     class="st5"
     aria-label="80"
     transform="translate(38.661195,24.914699)" /><path
     d="m 24.023985,278.94 h -2.469727 v -9.30761 q -1.353515,1.26562 -3.190429,1.87207 v -2.24122 q 0.966797,-0.3164 2.100586,-1.19531 1.133789,-0.88769 1.555664,-2.06543 h 2.003906 z m 7.866211,-12.9375 q 1.87207,0 2.926758,1.33594 1.256836,1.58203 1.256836,5.24707 0,3.65625 -1.265625,5.25586 -1.045899,1.31836 -2.917969,1.31836 -1.88086,0 -3.032227,-1.44141 -1.151367,-1.45019 -1.151367,-5.15918 0,-3.63867 1.265625,-5.23828 1.045899,-1.31836 2.917969,-1.31836 z m 0,2.04785 q -0.448242,0 -0.799805,0.29004 -0.351562,0.28125 -0.544922,1.01953 -0.254883,0.95801 -0.254883,3.22559 0,2.26758 0.228516,3.12012 0.228516,0.84375 0.571289,1.125 0.351563,0.28125 0.799805,0.28125 0.448242,0 0.799805,-0.28125 0.351562,-0.29004 0.544921,-1.02832 0.254883,-0.94922 0.254883,-3.2168 0,-2.26758 -0.228515,-3.11133 -0.228516,-0.85254 -0.580079,-1.13379 -0.342773,-0.29004 -0.791015,-0.29004 z m 10.010742,-2.04785 q 1.87207,0 2.926758,1.33594 1.256836,1.58203 1.256836,5.24707 0,3.65625 -1.265625,5.25586 -1.045899,1.31836 -2.917969,1.31836 -1.880859,0 -3.032227,-1.44141 -1.151367,-1.45019 -1.151367,-5.15918 0,-3.63867 1.265625,-5.23828 1.045899,-1.31836 2.917969,-1.31836 z m 0,2.04785 q -0.448242,0 -0.799805,0.29004 -0.351562,0.28125 -0.544922,1.01953 -0.254882,0.95801 -0.254882,3.22559 0,2.26758 0.228515,3.12012 0.228516,0.84375 0.571289,1.125 0.351563,0.28125 0.799805,0.28125 0.448242,0 0.799805,-0.28125 0.351562,-0.29004 0.544922,-1.02832 0.254882,-0.94922 0.254882,-3.2168 0,-2.26758 -0.228515,-3.11133 -0.228516,-0.85254 -0.580078,-1.13379 -0.342774,-0.29004 -0.791016,-0.29004 z"
     id="text41"
     style="font-weight:bold;font-size:18px;font-family:Arial;-inkscape-font-specification:'Arial, Bold';fill:#f7f7f7;fill-opacity:1;stroke:none;stroke-width:0;stroke-dasharray:none;stroke-opacity:1"
     class="st5"
     aria-label="100"
     transform="translate(15.188085,60.688496)" /><path
     d="m 24.243984,278.94 h -2.469726 v -9.30761 q -1.353516,1.26562 -3.19043,1.87207 v -2.24122 q 0.966797,-0.3164 2.100586,-1.19531 1.133789,-0.88769 1.555664,-2.06543 h 2.003906 z m 12.032227,-2.29394 V 278.94 h -8.657227 q 0.140625,-1.30078 0.84375,-2.46094 0.703125,-1.16894 2.777344,-3.09375 1.669922,-1.55566 2.047852,-2.10937 0.509765,-0.76465 0.509765,-1.51172 0,-0.82617 -0.448242,-1.26562 -0.439453,-0.44825 -1.22168,-0.44825 -0.773437,0 -1.230468,0.46582 -0.457032,0.46582 -0.527344,1.54688 l -2.460938,-0.24609 q 0.219727,-2.03907 1.379883,-2.92676 1.160156,-0.8877 2.900391,-0.8877 1.907226,0 2.99707,1.02832 1.089844,1.02832 1.089844,2.55762 0,0.87012 -0.316406,1.66113 -0.307618,0.78223 -0.984375,1.64356 -0.448243,0.57129 -1.617188,1.64355 -1.168945,1.07227 -1.485352,1.42383 -0.307617,0.35156 -0.500976,0.68555 z m 5.844726,-10.64356 q 1.872071,0 2.926758,1.33594 1.256836,1.58203 1.256836,5.24707 0,3.65625 -1.265625,5.25586 -1.045898,1.31836 -2.917969,1.31836 -1.880859,0 -3.032226,-1.44141 -1.151367,-1.45019 -1.151367,-5.15918 0,-3.63867 1.265625,-5.23828 1.045898,-1.31836 2.917968,-1.31836 z m 0,2.04785 q -0.448242,0 -0.799804,0.29004 -0.351563,0.28125 -0.544922,1.01953 -0.254883,0.95801 -0.254883,3.22559 0,2.26758 0.228516,3.12012 0.228515,0.84375 0.571289,1.125 0.351562,0.28125 0.799804,0.28125 0.448243,0 0.799805,-0.28125 0.351563,-0.29004 0.544922,-1.02832 0.254883,-0.94922 0.254883,-3.2168 0,-2.26758 -0.228516,-3.11133 -0.228516,-0.85254 -0.580078,-1.13379 -0.342773,-0.29004 -0.791016,-0.29004 z"
     id="text42"
     style="font-weight:bold;font-size:18px;font-family:Arial;-inkscape-font-specification:'Arial, Bold';fill:#f7f7f7;fill-opacity:1;stroke:none;stroke-width:0;stroke-dasharray:none;stroke-opacity:1"
     class="st5"
     aria-label="120"
     transform="translate(-23.777605,82.982997)" /><path
     d="m 23.863985,278.94 h -2.469727 v -9.30761 q -1.353515,1.26562 -3.190429,1.87207 v -2.24122 q 0.966797,-0.3164 2.100586,-1.19531 1.133789,-0.88769 1.555664,-2.06543 h 2.003906 z m 8.53418,0 v -2.59277 h -5.273438 v -2.16211 l 5.589844,-8.18262 h 2.074219 v 8.17383 h 1.599609 v 2.1709 H 34.78879 V 278.94 Z m 0,-4.76367 v -4.40332 l -2.961914,4.40332 z m 9.342773,-8.17383 q 1.87207,0 2.926758,1.33594 1.256836,1.58203 1.256836,5.24707 0,3.65625 -1.265625,5.25586 -1.045899,1.31836 -2.917969,1.31836 -1.880859,0 -3.032226,-1.44141 -1.151368,-1.45019 -1.151368,-5.15918 0,-3.63867 1.265625,-5.23828 1.045899,-1.31836 2.917969,-1.31836 z m 0,2.04785 q -0.448242,0 -0.799805,0.29004 -0.351562,0.28125 -0.544921,1.01953 -0.254883,0.95801 -0.254883,3.22559 0,2.26758 0.228515,3.12012 0.228516,0.84375 0.571289,1.125 0.351563,0.28125 0.799805,0.28125 0.448242,0 0.799805,-0.28125 0.351562,-0.29004 0.544922,-1.02832 0.254883,-0.94922 0.254883,-3.2168 0,-2.26758 -0.228516,-3.11133 -0.228516,-0.85254 -0.580078,-1.13379 -0.342774,-0.29004 -0.791016,-0.29004 z"
     id="text43"
     style="font-weight:bold;font-size:18px;font-family:Arial;-inkscape-font-specification:'Arial, Bold';fill:#f7f7f7;fill-opacity:1;stroke:none;stroke-width:0;stroke-dasharray:none;stroke-opacity:1"
     class="st5"
     aria-label="140"
     transform="translate(-66.35581,70.309099)" /><path
     d="m 24.323984,278.94 h -2.469726 v -9.30761 q -1.353516,1.26562 -3.19043,1.87207 v -2.24122 q 0.966797,-0.3164 2.100586,-1.19531 1.133789,-0.88769 1.555664,-2.06543 h 2.003906 z m 12.058594,-9.72949 -2.390625,0.26367 q -0.08789,-0.73828 -0.457031,-1.08984 -0.369141,-0.35156 -0.958008,-0.35156 -0.782227,0 -1.327149,0.70312 -0.536132,0.70313 -0.676757,2.92676 0.922851,-1.08985 2.293945,-1.08985 1.546875,0 2.645508,1.17774 1.107422,1.17773 1.107422,3.04101 0,1.97754 -1.160157,3.17286 -1.160156,1.19531 -2.979492,1.19531 -1.951172,0 -3.208008,-1.51172 -1.256836,-1.52051 -1.256836,-4.97461 0,-3.54199 1.309571,-5.10644 1.30957,-1.56446 3.401367,-1.56446 1.467773,0 2.425781,0.82617 0.966797,0.81739 1.230469,2.38184 z m -5.598633,5.3877 q 0,1.2041 0.553711,1.86328 0.553711,0.65039 1.265625,0.65039 0.685547,0 1.142578,-0.53614 0.457031,-0.53613 0.457031,-1.75781 0,-1.25683 -0.492187,-1.83691 -0.492188,-0.58887 -1.230469,-0.58887 -0.711914,0 -1.204101,0.5625 -0.492188,0.55371 -0.492188,1.64356 z m 11.416992,-8.59571 q 1.872071,0 2.926758,1.33594 1.256836,1.58203 1.256836,5.24707 0,3.65625 -1.265625,5.25586 -1.045898,1.31836 -2.917969,1.31836 -1.880859,0 -3.032226,-1.44141 -1.151367,-1.45019 -1.151367,-5.15918 0,-3.63867 1.265625,-5.23828 1.045898,-1.31836 2.917968,-1.31836 z m 0,2.04785 q -0.448242,0 -0.799804,0.29004 -0.351563,0.28125 -0.544922,1.01953 -0.254883,0.95801 -0.254883,3.22559 0,2.26758 0.228516,3.12012 0.228515,0.84375 0.571289,1.125 0.351562,0.28125 0.799804,0.28125 0.448242,0 0.799805,-0.28125 0.351562,-0.29004 0.544922,-1.02832 0.254883,-0.94922 0.254883,-3.2168 0,-2.26758 -0.228516,-3.11133 -0.228516,-0.85254 -0.580078,-1.13379 -0.342774,-0.29004 -0.791016,-0.29004 z"
     id="text44"
     style="font-weight:bold;font-size:18px;font-family:Arial;-inkscape-font-specification:'Arial, Bold';fill:#f7f7f7;fill-opacity:1;stroke:none;stroke-width:0;stroke-dasharray:none;stroke-opacity:1"
     class="st5"
     aria-label="160"
     transform="translate(-91.373802,36.611394)" /><path
     d="m 23.993984,278.94 h -2.469726 v -9.30761 q -1.353516,1.26562 -3.19043,1.87207 v -2.24122 q 0.966797,-0.3164 2.100586,-1.19531 1.133789,-0.88769 1.555664,-2.06543 h 2.003906 z m 5.809571,-6.95215 q -0.958008,-0.40429 -1.397461,-1.10742 -0.430664,-0.71191 -0.430664,-1.55566 0,-1.44141 1.001953,-2.38184 1.010742,-0.94043 2.865234,-0.94043 1.836914,0 2.847656,0.94043 1.019532,0.94043 1.019532,2.38184 0,0.89648 -0.465821,1.59961 -0.46582,0.69433 -1.30957,1.06347 1.072266,0.43067 1.625976,1.25684 0.5625,0.82617 0.5625,1.90723 0,1.78418 -1.142578,2.90039 -1.133789,1.11621 -3.023437,1.11621 -1.757813,0 -2.926758,-0.92285 -1.379883,-1.08985 -1.379883,-2.98828 0,-1.0459 0.518555,-1.91602 0.518555,-0.87891 1.634766,-1.35352 z m 0.509765,-2.4873 q 0,0.73828 0.413086,1.15137 0.421875,0.41308 1.116211,0.41308 0.703125,0 1.125,-0.41308 0.421875,-0.42188 0.421875,-1.16016 0,-0.69434 -0.421875,-1.10742 -0.413086,-0.42188 -1.098633,-0.42188 -0.711914,0 -1.133789,0.42188 -0.421875,0.42187 -0.421875,1.11621 z m -0.228515,5.51953 q 0,1.01953 0.518554,1.59082 0.527344,0.57129 1.309571,0.57129 0.764648,0 1.265625,-0.54492 0.500976,-0.55371 0.500976,-1.59082 0,-0.90528 -0.509766,-1.4502 -0.509765,-0.55371 -1.291992,-0.55371 -0.905273,0 -1.353515,0.62402 -0.439453,0.62403 -0.439453,1.35352 z m 11.786132,-9.01758 q 1.872071,0 2.926758,1.33594 1.256836,1.58203 1.256836,5.24707 0,3.65625 -1.265625,5.25586 -1.045898,1.31836 -2.917969,1.31836 -1.880859,0 -3.032226,-1.44141 -1.151367,-1.45019 -1.151367,-5.15918 0,-3.63867 1.265625,-5.23828 1.045898,-1.31836 2.917968,-1.31836 z m 0,2.04785 q -0.448242,0 -0.799804,0.29004 -0.351563,0.28125 -0.544922,1.01953 -0.254883,0.95801 -0.254883,3.22559 0,2.26758 0.228516,3.12012 0.228515,0.84375 0.571289,1.125 0.351562,0.28125 0.799804,0.28125 0.448243,0 0.799805,-0.28125 0.351563,-0.29004 0.544922,-1.02832 0.254883,-0.94922 0.254883,-3.2168 0,-2.26758 -0.228516,-3.11133 -0.228516,-0.85254 -0.580078,-1.13379 -0.342773,-0.29004 -0.791016,-0.29004 z"
     id="text45"
     style="font-weight:bold;font-size:18px;font-family:Arial;-inkscape-font-specification:'Arial, Bold';fill:#f7f7f7;fill-opacity:1;stroke:none;stroke-width:0;stroke-dasharray:none;stroke-opacity:1"
     class="st5"
     aria-label="180"
     transform="translate(-92.392393,-6.7740064)" /><path
     style="font-weight:bold;font-size:12px;font-family:Arial;-inkscape-font-specification:'Arial, Bold';text-align:center;text-anchor:middle;fill:#f7f7f7;fill-opacity:1;stroke:none;stroke-width:0;stroke-dasharray:none;stroke-opacity:1"
     d="m 34.964249,271.5528 v -1.44727 h 3.738281 v 3.42187 q -0.544922,0.52735 -1.582031,0.93165 -1.03125,0.39843 -2.091797,0.39843 -1.347656,0 -2.34961,-0.5625 -1.001953,-0.56836 -1.505859,-1.61718 -0.503906,-1.05469 -0.503906,-2.29102 0,-1.3418 0.5625,-2.38477 0.5625,-1.04296 1.646484,-1.59961 0.826172,-0.42773 2.056641,-0.42773 1.599609,0 2.496094,0.67383 0.902343,0.66797 1.160156,1.85156 l -1.722656,0.32227 q -0.181641,-0.63282 -0.685547,-0.9961 -0.498047,-0.36914 -1.248047,-0.36914 -1.136719,0 -1.810547,0.72071 -0.667969,0.7207 -0.667969,2.13867 0,1.52929 0.679688,2.29687 0.679687,0.76172 1.78125,0.76172 0.544922,0 1.089843,-0.21094 0.550782,-0.21679 0.94336,-0.52148 v -1.08984 z m 5.34375,3.1582 v -8.58985 h 3.65039 q 1.376953,0 1.998047,0.23438 0.626953,0.22852 1.001953,0.82031 0.375,0.5918 0.375,1.35352 0,0.96679 -0.568359,1.59961 -0.568359,0.62695 -1.699219,0.79101 0.5625,0.32813 0.925781,0.72071 0.369141,0.39257 0.990235,1.39453 l 1.048828,1.67578 h -2.074219 l -1.253906,-1.86914 q -0.667969,-1.00196 -0.914063,-1.25977 -0.246093,-0.26367 -0.521484,-0.35742 -0.275391,-0.0996 -0.873047,-0.0996 h -0.351562 v 3.58594 z m 1.734375,-4.95703 h 1.283203 q 1.248047,0 1.558594,-0.10547 0.310546,-0.10547 0.486328,-0.36328 0.175781,-0.25782 0.175781,-0.64453 0,-0.4336 -0.234375,-0.69727 -0.228516,-0.26953 -0.650391,-0.33984 -0.210937,-0.0293 -1.265625,-0.0293 h -1.353515 z m 6.574218,0.71484 q 0,-1.3125 0.392579,-2.20312 0.292968,-0.65625 0.796875,-1.17774 0.509765,-0.52148 1.113281,-0.77344 0.802734,-0.33984 1.851562,-0.33984 1.898438,0 3.035157,1.17773 1.142578,1.17774 1.142578,3.2754 0,2.08007 -1.13086,3.25781 -1.130859,1.17187 -3.023437,1.17187 -1.916016,0 -3.046875,-1.16601 -1.13086,-1.17188 -1.13086,-3.22266 z m 1.78711,-0.0586 q 0,1.45898 0.673828,2.21484 0.673828,0.75 1.710937,0.75 1.03711,0 1.699219,-0.74414 0.667969,-0.75 0.667969,-2.24414 0,-1.47656 -0.650391,-2.20313 -0.644531,-0.72656 -1.716797,-0.72656 -1.072265,0 -1.728515,0.73828 -0.65625,0.73243 -0.65625,2.21485 z m 7.886719,-4.28907 h 1.734375 v 4.65235 q 0,1.10742 0.06445,1.43555 0.111328,0.52734 0.527343,0.8496 0.421875,0.31641 1.148438,0.31641 0.738281,0 1.113281,-0.29883 0.375,-0.30468 0.451172,-0.74414 0.07617,-0.43945 0.07617,-1.45898 v -4.75196 h 1.734375 v 4.51172 q 0,1.54688 -0.140625,2.18555 -0.140625,0.63867 -0.521484,1.07813 -0.375,0.43945 -1.007813,0.70312 -0.632812,0.25781 -1.652344,0.25781 -1.230468,0 -1.86914,-0.28125 -0.632813,-0.28711 -1.001953,-0.73828 -0.369141,-0.45703 -0.486329,-0.95508 -0.169921,-0.73828 -0.169921,-2.17968 z m 8.695312,8.58985 v -8.58985 h 1.6875 l 3.515625,5.73633 v -5.73633 h 1.611328 v 8.58985 h -1.740234 l -3.462891,-5.60156 v 5.60156 z m 8.642578,-8.58985 h 3.169922 q 1.072266,0 1.634766,0.16407 0.755859,0.22265 1.294922,0.79101 0.539062,0.56836 0.820312,1.39453 0.28125,0.82032 0.28125,2.02735 0,1.06054 -0.263672,1.82812 -0.322265,0.9375 -0.919922,1.51758 -0.451172,0.43945 -1.21875,0.68555 -0.574218,0.18164 -1.535156,0.18164 h -3.263672 z m 1.734375,1.45313 v 5.68945 h 1.294922 q 0.726563,0 1.048828,-0.082 0.421875,-0.10547 0.697266,-0.35742 0.28125,-0.25195 0.457031,-0.82617 0.175781,-0.58008 0.175781,-1.57617 0,-0.9961 -0.175781,-1.5293 -0.175781,-0.5332 -0.492187,-0.83203 -0.316407,-0.29883 -0.802735,-0.4043 -0.363281,-0.082 -1.423828,-0.082 z m 6.498047,4.3418 1.6875,-0.16407 q 0.152344,0.84961 0.615234,1.24805 0.46875,0.39844 1.259766,0.39844 0.837891,0 1.259766,-0.35156 0.427734,-0.35743 0.427734,-0.83204 0,-0.30468 -0.181641,-0.51562 -0.175781,-0.2168 -0.621093,-0.375 -0.304688,-0.10547 -1.388672,-0.375 -1.394531,-0.3457 -1.957031,-0.84961 -0.791016,-0.70898 -0.791016,-1.72852 0,-0.65625 0.369141,-1.2246 0.375,-0.57422 1.072265,-0.87305 0.703125,-0.29883 1.69336,-0.29883 1.617187,0 2.43164,0.70898 0.820313,0.70899 0.861328,1.89258 l -1.734375,0.0762 q -0.111328,-0.6621 -0.480468,-0.94921 -0.363282,-0.29297 -1.095704,-0.29297 -0.755859,0 -1.183593,0.31054 -0.275391,0.19922 -0.275391,0.53321 0,0.30468 0.257813,0.52148 0.328125,0.27539 1.59375,0.57422 1.265625,0.29883 1.86914,0.62109 0.609375,0.31641 0.949219,0.87305 0.345703,0.55078 0.345703,1.36524 0,0.73828 -0.410156,1.38281 -0.410156,0.64453 -1.160156,0.96094 -0.75,0.31054 -1.869141,0.31054 -1.628906,0 -2.501953,-0.75 -0.873047,-0.75586 -1.042969,-2.19726 z m 8.443359,2.79492 v -8.58985 h 2.783204 q 1.582031,0 2.0625,0.12891 0.738281,0.19336 1.236328,0.84375 0.498047,0.64453 0.498047,1.66992 0,0.79102 -0.28711,1.33008 -0.287109,0.53906 -0.732422,0.84961 -0.439453,0.30469 -0.896484,0.4043 -0.621094,0.12304 -1.798828,0.12304 h -1.13086 v 3.24024 z m 1.734375,-7.13672 v 2.4375 h 0.949219 q 1.025391,0 1.371094,-0.13477 0.345703,-0.13476 0.539062,-0.42187 0.199219,-0.28711 0.199219,-0.66797 0,-0.46875 -0.27539,-0.77344 -0.275391,-0.30468 -0.697266,-0.38086 -0.310547,-0.0586 -1.248047,-0.0586 z M 100.308,274.711 v -8.58985 h 6.36914 v 1.45313 h -4.63477 v 1.9043 h 4.3125 v 1.44726 h -4.3125 v 2.33789 h 4.79883 v 1.44727 z m 8.0039,0 v -8.58985 h 6.36915 v 1.45313 h -4.63477 v 1.9043 h 4.3125 v 1.44726 h -4.3125 v 2.33789 h 4.79883 v 1.44727 z m 7.99805,-8.58985 h 3.16992 q 1.07227,0 1.63477,0.16407 0.75586,0.22265 1.29492,0.79101 0.53906,0.56836 0.82031,1.39453 0.28125,0.82032 0.28125,2.02735 0,1.06054 -0.26367,1.82812 -0.32226,0.9375 -0.91992,1.51758 -0.45117,0.43945 -1.21875,0.68555 -0.57422,0.18164 -1.53516,0.18164 h -3.26367 z m 1.73438,1.45313 v 5.68945 h 1.29492 q 0.72656,0 1.04883,-0.082 0.42187,-0.10547 0.69726,-0.35742 0.28125,-0.25195 0.45703,-0.82617 0.17578,-0.58008 0.17578,-1.57617 0,-0.9961 -0.17578,-1.5293 -0.17578,-0.5332 -0.49218,-0.83203 -0.31641,-0.29883 -0.80274,-0.4043 -0.36328,-0.082 -1.42383,-0.082 z"
     id="text46"
     class="st4"
     aria-label="GROUNDSPEED"
     transform="translate(-90.752119,-89.577003)" /></g>
<g
   id="g4"
   inkscape:label="pointer"
   inkscape:highlight-color="#00ff00"
   style="display:inline">
		<title
   id="title1-8">Pointer</title>
		
	<path
   d="m 0,283.46 v -99.21 l 4.25,-8.5 4.25,8.5 v 99.21 z"
   class="st1"
   id="path3"
   style="fill:#ffffff;fill-opacity:1;stroke:#000000;stroke-width:0.36;stroke-linecap:square;stroke-linejoin:round;stroke-dasharray:none;stroke-opacity:1"
   transform="translate(-4.25196,-5.6692)" /><path
   d="m 11.34,270.71 v -28.35 a 7.08661,7.08661 -180 1 0 -8.51,0 v 28.35 a 7.08661,7.08661 -180 1 0 8.51,0 z"
   class="st2"
   id="path4"
   style="fill:#000000;fill-opacity:1;stroke:#000000;stroke-width:0.36;stroke-linecap:round;stroke-linejoin:round;stroke-dasharray:none;stroke-opacity:1"
   transform="translate(-7.08661,46.7717)" /></g><g
   style="color-interpolation-filters:sRGB"
   id="g1"
   transform="matrix(0.95452231,0,0,0.95452231,1.1102937e-8,12.891328)"
   inkscape:label="fail"><g
     id="text6-5"
     style="font-weight:bold;font-size:36px;font-family:Arial"
     class="st4"
     transform="translate(-70.8662,113.3859)"
     aria-label="GSI   FAIL"><path
       d="m 54.467422,106.60539 v -4.34179 h 11.214844 v 10.26562 q -1.634765,1.58203 -4.746094,2.79492 -3.09375,1.19531 -6.27539,1.19531 -4.042969,0 -7.048828,-1.6875 -3.00586,-1.70507 -4.517578,-4.85156 -1.511719,-3.16406 -1.511719,-6.87304 0,-4.025395 1.6875,-7.154301 1.6875,-3.128907 4.939453,-4.798828 2.478516,-1.283204 6.169922,-1.283204 4.798828,0 7.488281,2.021485 2.707031,2.003906 3.480469,5.554687 l -5.167969,0.966797 q -0.544922,-1.898437 -2.056641,-2.988281 -1.49414,-1.107422 -3.74414,-1.107422 -3.410156,0 -5.431641,2.162109 -2.003906,2.16211 -2.003906,6.416018 0,4.58789 2.039062,6.89062 2.039063,2.28516 5.34375,2.28516 1.634766,0 3.269532,-0.63281 1.652343,-0.65039 2.830078,-1.56446 v -3.26953 z m 14.695313,1.08985 5.0625,-0.49219 q 0.457031,2.54883 1.845703,3.74414 1.40625,1.19531 3.779297,1.19531 2.513672,0 3.779297,-1.05469 1.283203,-1.07226 1.283203,-2.49609 0,-0.91406 -0.544922,-1.54687 -0.527344,-0.6504 -1.863281,-1.125 -0.914063,-0.31641 -4.166016,-1.125 -4.183594,-1.03711 -5.871094,-2.54883 -2.373046,-2.12696 -2.373046,-5.185549 0,-1.96875 1.107421,-3.673829 1.125,-1.722656 3.216797,-2.61914 2.109375,-0.896485 5.080078,-0.896485 4.851563,0 7.294922,2.126954 2.460938,2.126953 2.583985,5.677734 l -5.203125,0.228516 q -0.333985,-1.986329 -1.441407,-2.847657 -1.089843,-0.878906 -3.287109,-0.878906 -2.267578,0 -3.550781,0.931641 -0.826172,0.597656 -0.826172,1.599609 0,0.914063 0.773437,1.564453 0.984375,0.826172 4.78125,1.722656 3.796875,0.896483 5.607422,1.863283 1.828125,0.94922 2.847657,2.61914 1.037109,1.65234 1.037109,4.0957 0,2.21485 -1.230469,4.14844 -1.230469,1.93359 -3.480469,2.88281 -2.25,0.93164 -5.607421,0.93164 -4.886719,0 -7.50586,-2.25 -2.61914,-2.26758 -3.128906,-6.59179 z M 94.33461,116.08 V 90.310471 h 5.203125 V 116.08 Z"
       id="path1" /><path
       d="m 33.534296,245.67999 v -25.76953 h 17.666016 v 4.35938 H 38.737421 v 6.09961 h 10.757813 v 4.35937 H 38.737421 v 10.95117 z m 43.207031,0 h -5.660156 l -2.25,-5.85351 H 58.53039 l -2.126953,5.85351 h -5.519532 l 10.03711,-25.76953 h 5.501953 z m -9.580078,-10.19531 -3.550781,-9.5625 -3.480469,9.5625 z m 12.181641,10.19531 v -25.76953 h 5.203125 v 25.76953 z m 10.300781,0 V 220.1214 h 5.203125 v 21.2168 H 107.7843 v 4.34179 z"
       id="path2" /></g><circle
     cx="148.819"
     cy="134.646"
     class="st1"
     id="ellipse3"
     r="148.819"
     style="color-interpolation-filters:sRGB"
     transform="translate(-148.819,148.81901)" /><rect
     x="0"
     y="280.63"
     width="297.638"
     height="2.83465"
     class="st2"
     id="rect4-5"
     style="color-interpolation-filters:sRGB"
     transform="rotate(-45,76.120608,462.39581)" /><rect
     x="0"
     y="280.63"
     width="297.638"
     height="2.83465"
     class="st2"
     id="rect5"
     style="color-interpolation-filters:sRGB"
     transform="rotate(45,72.699,103.11591)" /></g><style
   type="text/css"
   id="style1-8">
	<![CDATA[
		.st1 {fill:none;stroke:#ff0000;stroke-linecap:round;stroke-linejoin:round;stroke-width:4.5}
		.st2 {fill:#ff0000;stroke:#ff0000;stroke-linecap:round;stroke-linejoin:round;stroke-width:0.75}
		.st3 {fill:none;stroke:none;stroke-linecap:round;stroke-linejoin:round;stroke-width:0.75}
		.st4 {fill:#ff0000;font-family:Arial;font-size:3em;font-weight:bold}
		.st5 {font-size:1em}
		.st6 {fill:none;fill-rule:evenodd;font-size:12px;overflow:visible;stroke-linecap:square;stroke-miterlimit:3}
	]]>
	</style></svg>
