<?xml version="1.0" encoding="UTF-8" standalone="no"?>
<!-- Generated by Microsoft Visio, SVG Export HI_compass_card.svg RotatingCard -->

<svg
   width="3.93701in"
   height="3.93701in"
   viewBox="0 0 283.465 283.465"
   xml:space="preserve"
   color-interpolation-filters="sRGB"
   class="st5"
   version="1.1"
   id="svg86"
   sodipodi:docname="Heading Indicator.svg"
   inkscape:version="1.4 (86a8ad7, 2024-10-11)"
   inkscape:export-filename="HI_fail.png"
   inkscape:export-xdpi="150.01891"
   inkscape:export-ydpi="150.01891"
   xmlns:inkscape="http://www.inkscape.org/namespaces/inkscape"
   xmlns:sodipodi="http://sodipodi.sourceforge.net/DTD/sodipodi-0.dtd"
   xmlns="http://www.w3.org/2000/svg"
   xmlns:svg="http://www.w3.org/2000/svg"><sodipodi:namedview
   id="namedview1"
   pagecolor="#ffffff"
   bordercolor="#000000"
   borderopacity="0.25"
   inkscape:showpageshadow="2"
   inkscape:pageopacity="0.0"
   inkscape:pagecheckerboard="0"
   inkscape:deskcolor="#d1d1d1"
   inkscape:document-units="in"
   inkscape:zoom="1.5438429"
   inkscape:cx="-124.36499"
   inkscape:cy="390.90765"
   inkscape:window-width="2560"
   inkscape:window-height="1369"
   inkscape:window-x="-8"
   inkscape:window-y="-8"
   inkscape:window-maximized="1"
   inkscape:current-layer="g5" /><defs
   id="defs86" />
	<style
   type="text/css"
   id="style1">
	<![CDATA[
		.st1 {fill:none;stroke:#ffffff;stroke-linecap:round;stroke-linejoin:round;stroke-width:0.25}
		.st2 {fill:#fafafa;stroke:none;stroke-width:0.75}
		.st3 {fill:none;stroke:none;stroke-width:0.75}
		.st4 {fill:#fafafa;font-family:Calibri;font-size:1.99999em;font-weight:bold}
		.st5 {fill:none;fill-rule:evenodd;font-size:12px;overflow:visible;stroke-linecap:square;stroke-miterlimit:3}
	]]>
	</style>

	<g
   id="g2"
   style="display:inline;fill:#1f1f1f;fill-opacity:1;stroke:#000000;stroke-opacity:1"
   inkscape:label="background">
		<title
   id="title1-4">Bckground</title>
		<g
   id="shape1000-1"
   transform="translate(-141.732,141.732)"
   style="fill:#1f1f1f;fill-opacity:1;stroke:#000000;stroke-opacity:1">
			<title
   id="title2">Sheet.1000</title>
			<circle
   cx="141.73199"
   cy="141.73199"
   class="st1"
   id="ellipse2"
   style="fill:#1f1f1f;fill-opacity:1;stroke:#000000;stroke-width:4.5;stroke-linecap:round;stroke-linejoin:round;stroke-opacity:1"
   r="141.73199" />
		</g>
	</g><g
   id="g86"
   inkscape:label="compass card"
   style="display:inline">
		<title
   id="title1">CompassCard</title>
		
		<g
   id="shape1002-3"
   transform="rotate(180,0.70866,219.685)"
   style="fill:#f8f8f8;fill-opacity:1;stroke:none;stroke-opacity:1">
			<title
   id="title3">Sheet.1002</title>
			<rect
   x="0"
   y="257.953"
   width="2.83465"
   height="25.511801"
   class="st2"
   id="rect3"
   style="fill:#f8f8f8;fill-opacity:1;stroke:none;stroke-opacity:1" />
		</g>
		<g
   id="shape1013-5"
   transform="rotate(-90,64.488,220.394)"
   style="fill:#f8f8f8;fill-opacity:1;stroke:none;stroke-opacity:1">
			<title
   id="title4">Sheet.1013</title>
			<rect
   x="0"
   y="257.953"
   width="2.83465"
   height="25.511801"
   class="st2"
   id="rect4"
   style="fill:#f8f8f8;fill-opacity:1;stroke:none;stroke-opacity:1" />
		</g>
		<g
   id="shape1014-7"
   transform="rotate(-100,54.219715,220.31901)"
   style="fill:#f8f8f8;fill-opacity:1;stroke:none;stroke-opacity:1">
			<title
   id="title5">Sheet.1014</title>
			<rect
   x="0"
   y="257.953"
   width="2.83465"
   height="25.511801"
   class="st2"
   id="rect5"
   style="fill:#f8f8f8;fill-opacity:1;stroke:none;stroke-opacity:1" />
		</g>
		<g
   id="shape1015-9"
   transform="rotate(-110,45.378134,220.1543)"
   style="fill:#f8f8f8;fill-opacity:1;stroke:none;stroke-opacity:1">
			<title
   id="title6">Sheet.1015</title>
			<rect
   x="0"
   y="257.953"
   width="2.83465"
   height="25.511801"
   class="st2"
   id="rect6"
   style="fill:#f8f8f8;fill-opacity:1;stroke:none;stroke-opacity:1" />
		</g>
		<g
   id="shape1016-11"
   transform="rotate(-120,37.572594,220.07079)"
   style="fill:#f8f8f8;fill-opacity:1;stroke:none;stroke-opacity:1">
			<title
   id="title7">Sheet.1016</title>
			<rect
   x="0"
   y="257.953"
   width="2.83465"
   height="25.511801"
   class="st2"
   id="rect7"
   style="fill:#f8f8f8;fill-opacity:1;stroke:none;stroke-opacity:1" />
		</g>
		<g
   id="shape1017-13"
   transform="rotate(-130,30.50622,220.03324)"
   style="fill:#f8f8f8;fill-opacity:1;stroke:none;stroke-opacity:1">
			<title
   id="title8">Sheet.1017</title>
			<rect
   x="0"
   y="257.953"
   width="2.83465"
   height="25.511801"
   class="st2"
   id="rect8"
   style="fill:#f8f8f8;fill-opacity:1;stroke:none;stroke-opacity:1" />
		</g>
		<g
   id="shape1018-15"
   transform="rotate(-140,23.872055,219.91651)"
   style="fill:#f8f8f8;fill-opacity:1;stroke:none;stroke-opacity:1">
			<title
   id="title9">Sheet.1018</title>
			<rect
   x="0"
   y="257.953"
   width="2.83465"
   height="25.511801"
   class="st2"
   id="rect9"
   style="fill:#f8f8f8;fill-opacity:1;stroke:none;stroke-opacity:1" />
		</g>
		<g
   id="shape1019-17"
   transform="rotate(-150,17.645693,219.87222)"
   style="fill:#f8f8f8;fill-opacity:1;stroke:none;stroke-opacity:1">
			<title
   id="title10">Sheet.1019</title>
			<rect
   x="0"
   y="257.953"
   width="2.83465"
   height="25.511801"
   class="st2"
   id="rect10"
   style="fill:#f8f8f8;fill-opacity:1;stroke:none;stroke-opacity:1" />
		</g>
		<g
   id="shape1020-19"
   transform="rotate(-160,11.964112,219.78793)"
   style="fill:#f8f8f8;fill-opacity:1;stroke:none;stroke-opacity:1">
			<title
   id="title11">Sheet.1020</title>
			<rect
   x="0"
   y="257.953"
   width="2.83465"
   height="25.511801"
   class="st2"
   id="rect11"
   style="fill:#f8f8f8;fill-opacity:1;stroke:none;stroke-opacity:1" />
		</g>
		<g
   id="shape1021-21"
   transform="rotate(-170,6.2705838,219.77198)"
   style="fill:#f8f8f8;fill-opacity:1;stroke:none;stroke-opacity:1">
			<title
   id="title12">Sheet.1021</title>
			<rect
   x="0"
   y="257.953"
   width="2.83465"
   height="25.511801"
   class="st2"
   id="rect12"
   style="fill:#f8f8f8;fill-opacity:1;stroke:none;stroke-opacity:1" />
		</g>
		<g
   id="shape1022-23"
   transform="rotate(170,-4.8532616,219.64809)"
   style="fill:#f8f8f8;fill-opacity:1;stroke:none;stroke-opacity:1">
			<title
   id="title13">Sheet.1022</title>
			<rect
   x="0"
   y="257.953"
   width="2.83465"
   height="25.511801"
   class="st2"
   id="rect13"
   style="fill:#f8f8f8;fill-opacity:1;stroke:none;stroke-opacity:1" />
		</g>
		<g
   id="shape1023-25"
   transform="rotate(160,-10.546832,219.53827)"
   style="fill:#f8f8f8;fill-opacity:1;stroke:none;stroke-opacity:1">
			<title
   id="title14">Sheet.1023</title>
			<rect
   x="0"
   y="257.953"
   width="2.83465"
   height="25.511801"
   class="st2"
   id="rect14"
   style="fill:#f8f8f8;fill-opacity:1;stroke:none;stroke-opacity:1" />
		</g>
		<g
   id="shape1024-27"
   transform="rotate(150,-16.370017,219.45414)"
   style="fill:#f8f8f8;fill-opacity:1;stroke:none;stroke-opacity:1">
			<title
   id="title15">Sheet.1024</title>
			<rect
   x="0"
   y="257.953"
   width="2.83465"
   height="25.511801"
   class="st2"
   id="rect15"
   style="fill:#f8f8f8;fill-opacity:1;stroke:none;stroke-opacity:1" />
		</g>
		<g
   id="shape1025-29"
   transform="rotate(140,-22.454729,219.4007)"
   style="fill:#f8f8f8;fill-opacity:1;stroke:none;stroke-opacity:1">
			<title
   id="title16">Sheet.1025</title>
			<rect
   x="0"
   y="257.953"
   width="2.83465"
   height="25.511801"
   class="st2"
   id="rect16"
   style="fill:#f8f8f8;fill-opacity:1;stroke:none;stroke-opacity:1" />
		</g>
		<g
   id="shape1026-31"
   transform="rotate(130,-29.08881,219.37205)"
   style="fill:#f8f8f8;fill-opacity:1;stroke:none;stroke-opacity:1">
			<title
   id="title17">Sheet.1026</title>
			<rect
   x="0"
   y="257.953"
   width="2.83465"
   height="25.511801"
   class="st2"
   id="rect17"
   style="fill:#f8f8f8;fill-opacity:1;stroke:none;stroke-opacity:1" />
		</g>
		<g
   id="shape1027-33"
   transform="rotate(120,-36.155397,219.25234)"
   style="fill:#f8f8f8;fill-opacity:1;stroke:none;stroke-opacity:1">
			<title
   id="title18">Sheet.1027</title>
			<rect
   x="0"
   y="257.953"
   width="2.83465"
   height="25.511801"
   class="st2"
   id="rect18"
   style="fill:#f8f8f8;fill-opacity:1;stroke:none;stroke-opacity:1" />
		</g>
		<g
   id="shape1028-35"
   transform="rotate(110,-43.960807,219.1624)"
   style="fill:#f8f8f8;fill-opacity:1;stroke:none;stroke-opacity:1">
			<title
   id="title19">Sheet.1028</title>
			<rect
   x="0"
   y="257.953"
   width="2.83465"
   height="25.511801"
   class="st2"
   id="rect19"
   style="fill:#f8f8f8;fill-opacity:1;stroke:none;stroke-opacity:1" />
		</g>
		<g
   id="shape1029-37"
   transform="rotate(100,-52.802751,219.12993)"
   style="fill:#f8f8f8;fill-opacity:1;stroke:none;stroke-opacity:1">
			<title
   id="title20">Sheet.1029</title>
			<rect
   x="0"
   y="257.953"
   width="2.83465"
   height="25.511801"
   class="st2"
   id="rect20"
   style="fill:#f8f8f8;fill-opacity:1;stroke:none;stroke-opacity:1" />
		</g>
		<g
   id="shape1030-39"
   transform="rotate(90,-63.0705,218.9765)"
   style="fill:#f8f8f8;fill-opacity:1;stroke:none;stroke-opacity:1">
			<title
   id="title21">Sheet.1030</title>
			<rect
   x="0"
   y="257.953"
   width="2.83465"
   height="25.511801"
   class="st2"
   id="rect21"
   style="fill:#f8f8f8;fill-opacity:1;stroke:none;stroke-opacity:1" />
		</g>
		<g
   id="shape1031-41"
   transform="translate(-1.41733,127.559)"
   style="fill:#f8f8f8;fill-opacity:1;stroke:none;stroke-opacity:1">
			<title
   id="title22">Sheet.1031</title>
			<rect
   x="0"
   y="257.953"
   width="2.83465"
   height="25.511801"
   class="st2"
   id="rect22"
   style="fill:#f8f8f8;fill-opacity:1;stroke:none;stroke-opacity:1" />
		</g>
		<g
   id="shape1033-43"
   transform="rotate(80,-75.253864,218.84796)"
   style="fill:#f8f8f8;fill-opacity:1;stroke:none;stroke-opacity:1">
			<title
   id="title23">Sheet.1033</title>
			<rect
   x="0"
   y="257.953"
   width="2.83465"
   height="25.511801"
   class="st2"
   id="rect23"
   style="fill:#f8f8f8;fill-opacity:1;stroke:none;stroke-opacity:1" />
		</g>
		<g
   id="shape1034-45"
   transform="rotate(70,-90.416339,218.65781)"
   style="fill:#f8f8f8;fill-opacity:1;stroke:none;stroke-opacity:1">
			<title
   id="title24">Sheet.1034</title>
			<rect
   x="0"
   y="257.953"
   width="2.83465"
   height="25.511801"
   class="st2"
   id="rect24"
   style="fill:#f8f8f8;fill-opacity:1;stroke:none;stroke-opacity:1" />
		</g>
		<g
   id="shape1035-47"
   transform="rotate(60,-109.80113,218.38686)"
   style="fill:#f8f8f8;fill-opacity:1;stroke:none;stroke-opacity:1">
			<title
   id="title25">Sheet.1035</title>
			<rect
   x="0"
   y="257.953"
   width="2.83465"
   height="25.511801"
   class="st2"
   id="rect25"
   style="fill:#f8f8f8;fill-opacity:1;stroke:none;stroke-opacity:1" />
		</g>
		<g
   id="shape1036-49"
   transform="rotate(50,-136.02985,218.0442)"
   style="fill:#f8f8f8;fill-opacity:1;stroke:none;stroke-opacity:1">
			<title
   id="title26">Sheet.1036</title>
			<rect
   x="0"
   y="257.953"
   width="2.83465"
   height="25.511801"
   class="st2"
   id="rect26"
   style="fill:#f8f8f8;fill-opacity:1;stroke:none;stroke-opacity:1" />
		</g>
		<g
   id="shape1037-51"
   transform="rotate(40,-174.59665,217.87657)"
   style="fill:#f8f8f8;fill-opacity:1;stroke:none;stroke-opacity:1">
			<title
   id="title27">Sheet.1037</title>
			<rect
   x="0"
   y="257.953"
   width="2.83465"
   height="25.511801"
   class="st2"
   id="rect27"
   style="fill:#f8f8f8;fill-opacity:1;stroke:none;stroke-opacity:1" />
		</g>
		<g
   id="shape1038-53"
   transform="rotate(30,-237.33148,217.61038)"
   style="fill:#f8f8f8;fill-opacity:1;stroke:none;stroke-opacity:1">
			<title
   id="title28">Sheet.1038</title>
			<rect
   x="0"
   y="257.953"
   width="2.83465"
   height="25.511801"
   class="st2"
   id="rect28"
   style="fill:#f8f8f8;fill-opacity:1;stroke:none;stroke-opacity:1" />
		</g>
		<g
   id="shape1039-55"
   transform="rotate(20,-361.12775,215.61265)"
   style="fill:#f8f8f8;fill-opacity:1;stroke:none;stroke-opacity:1">
			<title
   id="title29">Sheet.1039</title>
			<rect
   x="0"
   y="257.953"
   width="2.83465"
   height="25.511801"
   class="st2"
   id="rect29"
   style="fill:#f8f8f8;fill-opacity:1;stroke:none;stroke-opacity:1" />
		</g>
		<g
   id="shape1040-57"
   transform="rotate(10,-728.00887,211.7914)"
   style="fill:#f8f8f8;fill-opacity:1;stroke:none;stroke-opacity:1">
			<title
   id="title30">Sheet.1040</title>
			<rect
   x="0"
   y="257.953"
   width="2.83465"
   height="25.511801"
   class="st2"
   id="rect30"
   style="fill:#f8f8f8;fill-opacity:1;stroke:none;stroke-opacity:1" />
		</g>
		<g
   id="shape1041-59"
   transform="rotate(-10,729.42486,227.99147)"
   style="fill:#f8f8f8;fill-opacity:1;stroke:none;stroke-opacity:1">
			<title
   id="title31">Sheet.1041</title>
			<rect
   x="0"
   y="257.953"
   width="2.83465"
   height="25.511801"
   class="st2"
   id="rect31"
   style="fill:#f8f8f8;fill-opacity:1;stroke:none;stroke-opacity:1" />
		</g>
		<g
   id="shape1042-61"
   transform="rotate(-20,362.54364,223.65044)"
   style="fill:#f8f8f8;fill-opacity:1;stroke:none;stroke-opacity:1">
			<title
   id="title32">Sheet.1042</title>
			<rect
   x="0"
   y="257.953"
   width="2.83465"
   height="25.511801"
   class="st2"
   id="rect32"
   style="fill:#f8f8f8;fill-opacity:1;stroke:none;stroke-opacity:1" />
		</g>
		<g
   id="shape1043-63"
   transform="rotate(-30,238.88993,222.37076)"
   style="fill:#f8f8f8;fill-opacity:1;stroke:none;stroke-opacity:1">
			<title
   id="title33">Sheet.1043</title>
			<rect
   x="0"
   y="257.953"
   width="2.83465"
   height="25.511801"
   class="st2"
   id="rect33"
   style="fill:#f8f8f8;fill-opacity:1;stroke:none;stroke-opacity:1" />
		</g>
		<g
   id="shape1044-65"
   transform="rotate(-40,176.01386,221.77064)"
   style="fill:#f8f8f8;fill-opacity:1;stroke:none;stroke-opacity:1">
			<title
   id="title34">Sheet.1044</title>
			<rect
   x="0"
   y="257.953"
   width="2.83465"
   height="25.511801"
   class="st2"
   id="rect34"
   style="fill:#f8f8f8;fill-opacity:1;stroke:none;stroke-opacity:1" />
		</g>
		<g
   id="shape1045-67"
   transform="rotate(-50,137.44671,221.08335)"
   style="fill:#f8f8f8;fill-opacity:1;stroke:none;stroke-opacity:1">
			<title
   id="title35">Sheet.1045</title>
			<rect
   x="0"
   y="257.953"
   width="2.83465"
   height="25.511801"
   class="st2"
   id="rect35"
   style="fill:#f8f8f8;fill-opacity:1;stroke:none;stroke-opacity:1" />
		</g>
		<g
   id="shape1046-69"
   transform="rotate(-60,111.21873,220.84152)"
   style="fill:#f8f8f8;fill-opacity:1;stroke:none;stroke-opacity:1">
			<title
   id="title36">Sheet.1046</title>
			<rect
   x="0"
   y="257.953"
   width="2.83465"
   height="25.511801"
   class="st2"
   id="rect36"
   style="fill:#f8f8f8;fill-opacity:1;stroke:none;stroke-opacity:1" />
		</g>
		<g
   id="shape1047-71"
   transform="rotate(-70,91.832918,220.68196)"
   style="fill:#f8f8f8;fill-opacity:1;stroke:none;stroke-opacity:1">
			<title
   id="title37">Sheet.1047</title>
			<rect
   x="0"
   y="257.953"
   width="2.83465"
   height="25.511801"
   class="st2"
   id="rect37"
   style="fill:#f8f8f8;fill-opacity:1;stroke:none;stroke-opacity:1" />
		</g>
		<g
   id="shape1048-73"
   transform="rotate(-80,76.670957,220.53663)"
   style="fill:#f8f8f8;fill-opacity:1;stroke:none;stroke-opacity:1">
			<title
   id="title38">Sheet.1048</title>
			<rect
   x="0"
   y="257.953"
   width="2.83465"
   height="25.511801"
   class="st2"
   id="rect38"
   style="fill:#f8f8f8;fill-opacity:1;stroke:none;stroke-opacity:1" />
		</g>
		<g
   id="shape1049-75"
   transform="rotate(-175,3.4933439,219.71581)"
   style="fill:#f8f8f8;fill-opacity:1;stroke:none;stroke-opacity:1">
			<title
   id="title39">Sheet.1049</title>
			<rect
   x="0"
   y="262.20499"
   width="2.83465"
   height="21.2598"
   class="st2"
   id="rect39"
   style="fill:#f8f8f8;fill-opacity:1;stroke:none;stroke-opacity:1" />
		</g>
		<g
   id="shape1050-77"
   transform="rotate(-85,70.31145,220.45831)"
   style="fill:#f8f8f8;fill-opacity:1;stroke:none;stroke-opacity:1">
			<title
   id="title40">Sheet.1050</title>
			<rect
   x="0"
   y="262.20499"
   width="2.83465"
   height="21.2598"
   class="st2"
   id="rect40"
   style="fill:#f8f8f8;fill-opacity:1;stroke:none;stroke-opacity:1" />
		</g>
		<g
   id="shape1051-79"
   transform="rotate(-95,59.143886,220.37521)"
   style="fill:#f8f8f8;fill-opacity:1;stroke:none;stroke-opacity:1">
			<title
   id="title41">Sheet.1051</title>
			<rect
   x="0"
   y="262.20499"
   width="2.83465"
   height="21.2598"
   class="st2"
   id="rect41"
   style="fill:#f8f8f8;fill-opacity:1;stroke:none;stroke-opacity:1" />
		</g>
		<g
   id="shape1052-81"
   transform="rotate(-105,49.660673,220.202)"
   style="fill:#f8f8f8;fill-opacity:1;stroke:none;stroke-opacity:1">
			<title
   id="title42">Sheet.1052</title>
			<rect
   x="0"
   y="262.20499"
   width="2.83465"
   height="21.2598"
   class="st2"
   id="rect42"
   style="fill:#f8f8f8;fill-opacity:1;stroke:none;stroke-opacity:1" />
		</g>
		<g
   id="shape1053-83"
   transform="rotate(-115,41.383751,220.11427)"
   style="fill:#f8f8f8;fill-opacity:1;stroke:none;stroke-opacity:1">
			<title
   id="title43">Sheet.1053</title>
			<rect
   x="0"
   y="262.20499"
   width="2.83465"
   height="21.2598"
   class="st2"
   id="rect43"
   style="fill:#f8f8f8;fill-opacity:1;stroke:none;stroke-opacity:1" />
		</g>
		<g
   id="shape1054-85"
   transform="rotate(-125,33.966855,220.07446)"
   style="fill:#f8f8f8;fill-opacity:1;stroke:none;stroke-opacity:1">
			<title
   id="title44">Sheet.1054</title>
			<rect
   x="0"
   y="262.20499"
   width="2.83465"
   height="21.2598"
   class="st2"
   id="rect44"
   style="fill:#f8f8f8;fill-opacity:1;stroke:none;stroke-opacity:1" />
		</g>
		<g
   id="shape1055-87"
   transform="rotate(-135,27.076599,219.94931)"
   style="fill:#f8f8f8;fill-opacity:1;stroke:none;stroke-opacity:1">
			<title
   id="title45">Sheet.1055</title>
			<rect
   x="0"
   y="262.20499"
   width="2.83465"
   height="21.2598"
   class="st2"
   id="rect45"
   style="fill:#f8f8f8;fill-opacity:1;stroke:none;stroke-opacity:1" />
		</g>
		<g
   id="shape1056-89"
   transform="rotate(-145,20.663948,219.89896)"
   style="fill:#f8f8f8;fill-opacity:1;stroke:none;stroke-opacity:1">
			<title
   id="title46">Sheet.1056</title>
			<rect
   x="0"
   y="262.20499"
   width="2.83465"
   height="21.2598"
   class="st2"
   id="rect46"
   style="fill:#f8f8f8;fill-opacity:1;stroke:none;stroke-opacity:1" />
		</g>
		<g
   id="shape1057-91"
   transform="rotate(-155,14.858691,219.82046)"
   style="fill:#f8f8f8;fill-opacity:1;stroke:none;stroke-opacity:1">
			<title
   id="title47">Sheet.1057</title>
			<rect
   x="0"
   y="262.20499"
   width="2.83465"
   height="21.2598"
   class="st2"
   id="rect47"
   style="fill:#f8f8f8;fill-opacity:1;stroke:none;stroke-opacity:1" />
		</g>
		<g
   id="shape1058-93"
   transform="rotate(-165,9.0861828,219.80245)"
   style="fill:#f8f8f8;fill-opacity:1;stroke:none;stroke-opacity:1">
			<title
   id="title48">Sheet.1058</title>
			<rect
   x="0"
   y="262.20499"
   width="2.83465"
   height="21.2598"
   class="st2"
   id="rect48"
   style="fill:#f8f8f8;fill-opacity:1;stroke:none;stroke-opacity:1" />
		</g>
		<g
   id="shape1059-95"
   transform="rotate(175,-2.0590933,219.67974)"
   style="fill:#f8f8f8;fill-opacity:1;stroke:none;stroke-opacity:1">
			<title
   id="title49">Sheet.1059</title>
			<rect
   x="0"
   y="262.20499"
   width="2.83465"
   height="21.2598"
   class="st2"
   id="rect49"
   style="fill:#f8f8f8;fill-opacity:1;stroke:none;stroke-opacity:1" />
		</g>
		<g
   id="shape1060-97"
   transform="rotate(165,-7.6965028,219.56983)"
   style="fill:#f8f8f8;fill-opacity:1;stroke:none;stroke-opacity:1">
			<title
   id="title50">Sheet.1060</title>
			<rect
   x="0"
   y="262.20499"
   width="2.83465"
   height="21.2598"
   class="st2"
   id="rect50"
   style="fill:#f8f8f8;fill-opacity:1;stroke:none;stroke-opacity:1" />
		</g>
		<g
   id="shape1061-99"
   transform="rotate(155,-13.418258,219.48775)"
   style="fill:#f8f8f8;fill-opacity:1;stroke:none;stroke-opacity:1">
			<title
   id="title51">Sheet.1061</title>
			<rect
   x="0"
   y="262.20499"
   width="2.83465"
   height="21.2598"
   class="st2"
   id="rect51"
   style="fill:#f8f8f8;fill-opacity:1;stroke:none;stroke-opacity:1" />
		</g>
		<g
   id="shape1062-101"
   transform="rotate(145,-19.350062,219.43755)"
   style="fill:#f8f8f8;fill-opacity:1;stroke:none;stroke-opacity:1">
			<title
   id="title52">Sheet.1062</title>
			<rect
   x="0"
   y="262.20499"
   width="2.83465"
   height="21.2598"
   class="st2"
   id="rect52"
   style="fill:#f8f8f8;fill-opacity:1;stroke:none;stroke-opacity:1" />
		</g>
		<g
   id="shape1063-103"
   transform="rotate(135,-25.765623,219.40628)"
   style="fill:#f8f8f8;fill-opacity:1;stroke:none;stroke-opacity:1">
			<title
   id="title53">Sheet.1063</title>
			<rect
   x="0"
   y="262.20499"
   width="2.83465"
   height="21.2598"
   class="st2"
   id="rect53"
   style="fill:#f8f8f8;fill-opacity:1;stroke:none;stroke-opacity:1" />
		</g>
		<g
   id="shape1064-105"
   transform="rotate(125,-32.531592,219.29134)"
   style="fill:#f8f8f8;fill-opacity:1;stroke:none;stroke-opacity:1">
			<title
   id="title54">Sheet.1064</title>
			<rect
   x="0"
   y="262.20499"
   width="2.83465"
   height="21.2598"
   class="st2"
   id="rect54"
   style="fill:#f8f8f8;fill-opacity:1;stroke:none;stroke-opacity:1" />
		</g>
		<g
   id="shape1065-107"
   transform="rotate(115,-39.932148,219.20721)"
   style="fill:#f8f8f8;fill-opacity:1;stroke:none;stroke-opacity:1">
			<title
   id="title55">Sheet.1065</title>
			<rect
   x="0"
   y="262.20499"
   width="2.83465"
   height="21.2598"
   class="st2"
   id="rect55"
   style="fill:#f8f8f8;fill-opacity:1;stroke:none;stroke-opacity:1" />
		</g>
		<g
   id="shape1066-109"
   transform="rotate(105,-48.226524,219.17984)"
   style="fill:#f8f8f8;fill-opacity:1;stroke:none;stroke-opacity:1">
			<title
   id="title56">Sheet.1066</title>
			<rect
   x="0"
   y="262.20499"
   width="2.83465"
   height="21.2598"
   class="st2"
   id="rect56"
   style="fill:#f8f8f8;fill-opacity:1;stroke:none;stroke-opacity:1" />
		</g>
		<g
   id="shape1067-111"
   transform="rotate(95,-57.734532,219.03593)"
   style="fill:#f8f8f8;fill-opacity:1;stroke:none;stroke-opacity:1">
			<title
   id="title57">Sheet.1067</title>
			<rect
   x="0"
   y="262.20499"
   width="2.83465"
   height="21.2598"
   class="st2"
   id="rect57"
   style="fill:#f8f8f8;fill-opacity:1;stroke:none;stroke-opacity:1" />
		</g>
		<g
   id="shape1068-113"
   transform="rotate(5,-1460.085,203.45377)"
   style="fill:#f8f8f8;fill-opacity:1;stroke:none;stroke-opacity:1">
			<title
   id="title58">Sheet.1068</title>
			<rect
   x="0"
   y="262.20499"
   width="2.83465"
   height="21.2598"
   class="st2"
   id="rect58"
   style="fill:#f8f8f8;fill-opacity:1;stroke:none;stroke-opacity:1" />
		</g>
		<g
   id="shape1069-115"
   transform="rotate(85,-68.850425,218.92077)"
   style="fill:#f8f8f8;fill-opacity:1;stroke:none;stroke-opacity:1">
			<title
   id="title59">Sheet.1069</title>
			<rect
   x="0"
   y="262.20499"
   width="2.83465"
   height="21.2598"
   class="st2"
   id="rect59"
   style="fill:#f8f8f8;fill-opacity:1;stroke:none;stroke-opacity:1" />
		</g>
		<g
   id="shape1070-117"
   transform="rotate(75,-82.445293,218.74545)"
   style="fill:#f8f8f8;fill-opacity:1;stroke:none;stroke-opacity:1">
			<title
   id="title60">Sheet.1070</title>
			<rect
   x="0"
   y="262.20499"
   width="2.83465"
   height="21.2598"
   class="st2"
   id="rect60"
   style="fill:#f8f8f8;fill-opacity:1;stroke:none;stroke-opacity:1" />
		</g>
		<g
   id="shape1071-119"
   transform="rotate(65,-99.439938,218.50502)"
   style="fill:#f8f8f8;fill-opacity:1;stroke:none;stroke-opacity:1">
			<title
   id="title61">Sheet.1071</title>
			<rect
   x="0"
   y="262.20499"
   width="2.83465"
   height="21.2598"
   class="st2"
   id="rect61"
   style="fill:#f8f8f8;fill-opacity:1;stroke:none;stroke-opacity:1" />
		</g>
		<g
   id="shape1072-121"
   transform="rotate(55,-121.77114,218.21478)"
   style="fill:#f8f8f8;fill-opacity:1;stroke:none;stroke-opacity:1">
			<title
   id="title62">Sheet.1072</title>
			<rect
   x="0"
   y="262.20499"
   width="2.83465"
   height="21.2598"
   class="st2"
   id="rect62"
   style="fill:#f8f8f8;fill-opacity:1;stroke:none;stroke-opacity:1" />
		</g>
		<g
   id="shape1073-123"
   transform="rotate(45,-153.33924,218.09581)"
   style="fill:#f8f8f8;fill-opacity:1;stroke:none;stroke-opacity:1">
			<title
   id="title63">Sheet.1073</title>
			<rect
   x="0"
   y="262.20499"
   width="2.83465"
   height="21.2598"
   class="st2"
   id="rect63"
   style="fill:#f8f8f8;fill-opacity:1;stroke:none;stroke-opacity:1" />
		</g>
		<g
   id="shape1074-125"
   transform="rotate(35,-201.60572,217.92733)"
   style="fill:#f8f8f8;fill-opacity:1;stroke:none;stroke-opacity:1">
			<title
   id="title64">Sheet.1074</title>
			<rect
   x="0"
   y="262.20499"
   width="2.83465"
   height="21.2598"
   class="st2"
   id="rect64"
   style="fill:#f8f8f8;fill-opacity:1;stroke:none;stroke-opacity:1" />
		</g>
		<g
   id="shape1075-127"
   transform="rotate(25,-287.07973,216.44128)"
   style="fill:#f8f8f8;fill-opacity:1;stroke:none;stroke-opacity:1">
			<title
   id="title65">Sheet.1075</title>
			<rect
   x="0"
   y="262.20499"
   width="2.83465"
   height="21.2598"
   class="st2"
   id="rect65"
   style="fill:#f8f8f8;fill-opacity:1;stroke:none;stroke-opacity:1" />
		</g>
		<g
   id="shape1076-129"
   transform="rotate(15,-483.56124,214.44809)"
   style="fill:#f8f8f8;fill-opacity:1;stroke:none;stroke-opacity:1">
			<title
   id="title66">Sheet.1076</title>
			<rect
   x="0"
   y="262.20499"
   width="2.83465"
   height="21.2598"
   class="st2"
   id="rect66"
   style="fill:#f8f8f8;fill-opacity:1;stroke:none;stroke-opacity:1" />
		</g>
		<g
   id="shape1077-131"
   transform="rotate(-5,1460.9111,236.30351)"
   style="fill:#f8f8f8;fill-opacity:1;stroke:none;stroke-opacity:1">
			<title
   id="title67">Sheet.1077</title>
			<rect
   x="0"
   y="262.20499"
   width="2.83465"
   height="21.2598"
   class="st2"
   id="rect67"
   style="fill:#f8f8f8;fill-opacity:1;stroke:none;stroke-opacity:1" />
		</g>
		<g
   id="shape1078-133"
   transform="rotate(-15,485.332,225.00426)"
   style="fill:#f8f8f8;fill-opacity:1;stroke:none;stroke-opacity:1">
			<title
   id="title68">Sheet.1078</title>
			<rect
   x="0"
   y="262.20499"
   width="2.83465"
   height="21.2598"
   class="st2"
   id="rect68"
   style="fill:#f8f8f8;fill-opacity:1;stroke:none;stroke-opacity:1" />
		</g>
		<g
   id="shape1079-135"
   transform="rotate(-25,288.58049,222.93865)"
   style="fill:#f8f8f8;fill-opacity:1;stroke:none;stroke-opacity:1">
			<title
   id="title69">Sheet.1079</title>
			<rect
   x="0"
   y="262.20499"
   width="2.83465"
   height="21.2598"
   class="st2"
   id="rect69"
   style="fill:#f8f8f8;fill-opacity:1;stroke:none;stroke-opacity:1" />
		</g>
		<g
   id="shape1080-137"
   transform="rotate(-35,203.06755,222.09394)"
   style="fill:#f8f8f8;fill-opacity:1;stroke:none;stroke-opacity:1">
			<title
   id="title70">Sheet.1080</title>
			<rect
   x="0"
   y="262.20499"
   width="2.83465"
   height="21.2598"
   class="st2"
   id="rect70"
   style="fill:#f8f8f8;fill-opacity:1;stroke:none;stroke-opacity:1" />
		</g>
		<g
   id="shape1081-139"
   transform="rotate(-45,154.65022,221.26078)"
   style="fill:#f8f8f8;fill-opacity:1;stroke:none;stroke-opacity:1">
			<title
   id="title71">Sheet.1081</title>
			<rect
   x="0"
   y="262.20499"
   width="2.83465"
   height="21.2598"
   class="st2"
   id="rect71"
   style="fill:#f8f8f8;fill-opacity:1;stroke:none;stroke-opacity:1" />
		</g>
		<g
   id="shape1082-141"
   transform="rotate(-55,123.2755,220.97189)"
   style="fill:#f8f8f8;fill-opacity:1;stroke:none;stroke-opacity:1">
			<title
   id="title72">Sheet.1082</title>
			<rect
   x="0"
   y="262.20499"
   width="2.83465"
   height="21.2598"
   class="st2"
   id="rect72"
   style="fill:#f8f8f8;fill-opacity:1;stroke:none;stroke-opacity:1" />
		</g>
		<g
   id="shape1083-143"
   transform="rotate(-65,100.86374,220.78358)"
   style="fill:#f8f8f8;fill-opacity:1;stroke:none;stroke-opacity:1">
			<title
   id="title73">Sheet.1083</title>
			<rect
   x="0"
   y="262.20499"
   width="2.83465"
   height="21.2598"
   class="st2"
   id="rect73"
   style="fill:#f8f8f8;fill-opacity:1;stroke:none;stroke-opacity:1" />
		</g>
		<g
   id="shape1084-145"
   transform="rotate(-75,83.777402,220.61447)"
   style="fill:#f8f8f8;fill-opacity:1;stroke:none;stroke-opacity:1">
			<title
   id="title74">Sheet.1084</title>
			<rect
   x="0"
   y="262.20499"
   width="2.83465"
   height="21.2598"
   class="st2"
   id="rect74"
   style="fill:#f8f8f8;fill-opacity:1;stroke:none;stroke-opacity:1" />
		</g>
		<g
   id="shape1087-147"
   transform="rotate(60,84.0159,282.77121)"
   style="fill:#f8f8f8;fill-opacity:1;stroke:none;stroke-opacity:1">
			<title
   id="title75">Sheet.1087</title>
			<desc
   id="desc75">06</desc>
			
					<path
   d="m 41.867824,264.61938 q 0,1.81641 -0.292969,3.28125 -0.292969,1.46485 -0.960938,2.4961 -0.656251,1.03125 -1.722658,1.58203 -1.054689,0.55078 -2.589846,0.55078 -1.558596,0 -2.578128,-0.52734 -1.019532,-0.53907 -1.617189,-1.53516 -0.597657,-1.00781 -0.843751,-2.44922 -0.234375,-1.45313 -0.234375,-3.28125 0,-1.80469 0.292969,-3.26954 0.304688,-1.47656 0.960938,-2.50781 0.66797,-1.03126 1.722658,-1.58204 1.066408,-0.55078 2.589847,-0.55078 1.558595,0 2.578127,0.53906 1.031251,0.52735 1.628908,1.53516 0.597657,0.9961 0.832032,2.44922 0.234375,1.44141 0.234375,3.26954 z m -3.105472,0.15234 q 0,-1.07812 -0.05859,-1.89844 -0.05859,-0.83203 -0.187501,-1.44141 -0.117187,-0.60937 -0.304687,-1.03125 -0.175782,-0.42187 -0.433595,-0.66797 -0.257812,-0.25781 -0.585938,-0.36328 -0.328125,-0.10547 -0.726563,-0.10547 -0.691407,0 -1.148438,0.33985 -0.445313,0.32812 -0.714845,0.99609 -0.257813,0.66797 -0.363281,1.66407 -0.105469,0.99609 -0.105469,2.32031 0,1.61719 0.128906,2.6836 0.128906,1.05469 0.398438,1.6875 0.28125,0.62109 0.714844,0.87891 0.433595,0.24609 1.04297,0.24609 0.457032,0 0.808595,-0.14062 0.351562,-0.15235 0.609375,-0.44532 0.269532,-0.29297 0.445313,-0.73828 0.175782,-0.44531 0.28125,-1.03125 0.117188,-0.58594 0.152344,-1.32422 0.04687,-0.73828 0.04687,-1.62891 z m 15.199233,2.42578 q 0,1.14844 -0.351562,2.13282 -0.351563,0.97266 -1.031251,1.6875 -0.679689,0.70313 -1.675783,1.11328 -0.996095,0.39844 -2.296877,0.39844 -1.054689,0 -1.839846,-0.24609 -0.785157,-0.23438 -1.359376,-0.67969 -0.574219,-0.45703 -0.937501,-1.10156 -0.363282,-0.64454 -0.585938,-1.45313 -0.210938,-0.8086 -0.292969,-1.75781 -0.08203,-0.94922 -0.08203,-2.01563 0,-0.89063 0.08203,-1.86328 0.09375,-0.97266 0.339844,-1.91016 0.257813,-0.9375 0.714844,-1.78125 0.457032,-0.85547 1.171876,-1.48829 0.726564,-0.64453 1.746096,-1.01953 1.031251,-0.375 2.437502,-0.375 0.445313,0 0.890626,0.0586 0.457032,0.0469 0.843751,0.12891 0.386719,0.082 0.65625,0.1875 0.269532,0.10547 0.351563,0.1875 0.09375,0.0703 0.140625,0.16406 0.04687,0.0937 0.07031,0.21094 0.03516,0.10547 0.04687,0.26953 0.01172,0.16407 0.01172,0.39844 0,0.36328 -0.02344,0.60938 -0.01172,0.23437 -0.05859,0.375 -0.04687,0.1289 -0.128906,0.1875 -0.08203,0.0586 -0.199219,0.0586 -0.140625,0 -0.363281,-0.0703 -0.222657,-0.082 -0.539063,-0.17578 -0.316407,-0.0937 -0.750001,-0.16407 -0.421876,-0.0703 -0.984376,-0.0703 -0.94922,0 -1.60547,0.35156 -0.656251,0.35157 -1.066408,0.96094 -0.410156,0.59766 -0.597656,1.39453 -0.187501,0.79688 -0.199219,1.68751 0.257812,-0.16407 0.585938,-0.32813 0.339844,-0.16406 0.726563,-0.28125 0.398438,-0.11719 0.855469,-0.1875 0.457032,-0.082 0.972658,-0.082 1.148438,0 1.968751,0.31641 0.820314,0.3164 1.335939,0.90234 0.527344,0.58594 0.773438,1.41797 0.246094,0.83203 0.246094,1.85156 z m -3.02344,0.29297 q 0,-0.59765 -0.105469,-1.04297 -0.105469,-0.45703 -0.339844,-0.76172 -0.234375,-0.3164 -0.621094,-0.46875 -0.386719,-0.16406 -0.937501,-0.16406 -0.328125,0 -0.644532,0.0586 -0.316406,0.0586 -0.621094,0.16406 -0.304688,0.10547 -0.585938,0.25781 -0.281251,0.14063 -0.527345,0.30469 0,1.25391 0.140626,2.09766 0.140625,0.83203 0.410156,1.32422 0.28125,0.49218 0.691407,0.70312 0.421875,0.19922 0.972657,0.19922 0.539063,0 0.937501,-0.19922 0.410157,-0.19922 0.679688,-0.5625 0.269532,-0.36328 0.410157,-0.84375 0.140625,-0.49219 0.140625,-1.06641 z"
   id="text75"
   style="font-weight:bold;font-size:24px;font-family:Calibri;-inkscape-font-specification:'Calibri, Bold';fill:#f8f8f8;fill-opacity:1;stroke:none;stroke-opacity:1"
   class="st4"
   aria-label="06" /></g>
		<g
   id="shape1088-150"
   transform="rotate(30,156.34093,240.49457)"
   style="fill:#f8f8f8;fill-opacity:1;stroke:none;stroke-opacity:1">
			<title
   id="title76">Sheet.1088</title>
			<desc
   id="desc76">03</desc>
			
					<path
   d="m 41.867824,264.61938 q 0,1.81641 -0.292969,3.28125 -0.292969,1.46485 -0.960938,2.4961 -0.656251,1.03125 -1.722658,1.58203 -1.054689,0.55078 -2.589846,0.55078 -1.558596,0 -2.578128,-0.52734 -1.019532,-0.53907 -1.617189,-1.53516 -0.597657,-1.00781 -0.843751,-2.44922 -0.234375,-1.45313 -0.234375,-3.28125 0,-1.80469 0.292969,-3.26954 0.304688,-1.47656 0.960938,-2.50781 0.66797,-1.03126 1.722658,-1.58204 1.066408,-0.55078 2.589847,-0.55078 1.558595,0 2.578127,0.53906 1.031251,0.52735 1.628908,1.53516 0.597657,0.9961 0.832032,2.44922 0.234375,1.44141 0.234375,3.26954 z m -3.105472,0.15234 q 0,-1.07812 -0.05859,-1.89844 -0.05859,-0.83203 -0.187501,-1.44141 -0.117187,-0.60937 -0.304687,-1.03125 -0.175782,-0.42187 -0.433595,-0.66797 -0.257812,-0.25781 -0.585938,-0.36328 -0.328125,-0.10547 -0.726563,-0.10547 -0.691407,0 -1.148438,0.33985 -0.445313,0.32812 -0.714845,0.99609 -0.257813,0.66797 -0.363281,1.66407 -0.105469,0.99609 -0.105469,2.32031 0,1.61719 0.128906,2.6836 0.128906,1.05469 0.398438,1.6875 0.28125,0.62109 0.714844,0.87891 0.433595,0.24609 1.04297,0.24609 0.457032,0 0.808595,-0.14062 0.351562,-0.15235 0.609375,-0.44532 0.269532,-0.29297 0.445313,-0.73828 0.175782,-0.44531 0.28125,-1.03125 0.117188,-0.58594 0.152344,-1.32422 0.04687,-0.73828 0.04687,-1.62891 z m 14.894546,3.04688 q 0,1.13672 -0.433594,2.01563 -0.433595,0.8789 -1.207033,1.47656 -0.773438,0.59766 -1.851564,0.91406 -1.078126,0.30469 -2.355471,0.30469 -0.773438,0 -1.453127,-0.11719 -0.679688,-0.10547 -1.207032,-0.26953 -0.515625,-0.16406 -0.85547,-0.33984 -0.339844,-0.17578 -0.445312,-0.26953 -0.105469,-0.0937 -0.164063,-0.21094 -0.04687,-0.11719 -0.09375,-0.26953 -0.03516,-0.16407 -0.05859,-0.39844 -0.01172,-0.24609 -0.01172,-0.58594 0,-0.5625 0.09375,-0.77344 0.09375,-0.22265 0.281251,-0.22265 0.117187,0 0.398437,0.16406 0.29297,0.15234 0.738282,0.33984 0.445313,0.17578 1.04297,0.33985 0.597657,0.15234 1.359376,0.15234 0.644532,0 1.13672,-0.15234 0.492188,-0.15235 0.832032,-0.42188 0.351563,-0.28125 0.515626,-0.66797 0.175781,-0.39844 0.175781,-0.8789 0,-0.52735 -0.210937,-0.94922 -0.199219,-0.42188 -0.609376,-0.71485 -0.398438,-0.30469 -1.019532,-0.46875 -0.609376,-0.16406 -1.441408,-0.16406 H 45.50064 q -0.152344,0 -0.257813,-0.0352 -0.105469,-0.0469 -0.175781,-0.17578 -0.07031,-0.12891 -0.105469,-0.35156 -0.02344,-0.23438 -0.02344,-0.59766 0,-0.33984 0.02344,-0.55078 0.03516,-0.22266 0.09375,-0.33984 0.07031,-0.11719 0.164063,-0.16407 0.105468,-0.0469 0.246094,-0.0469 h 1.32422 q 0.679688,0 1.207032,-0.15235 0.527344,-0.16406 0.878907,-0.45703 0.363282,-0.29297 0.550782,-0.70312 0.1875,-0.42188 0.1875,-0.92579 0,-0.38671 -0.128906,-0.72656 -0.128907,-0.35156 -0.386719,-0.59766 -0.246094,-0.25781 -0.644532,-0.39843 -0.398438,-0.15235 -0.937501,-0.15235 -0.609376,0 -1.148439,0.1875 -0.539063,0.17578 -0.972657,0.39844 -0.421875,0.21094 -0.726563,0.39844 -0.292969,0.1875 -0.433594,0.1875 -0.09375,0 -0.164063,-0.0352 -0.07031,-0.0469 -0.117188,-0.16406 -0.04687,-0.11719 -0.07031,-0.33984 -0.02344,-0.22266 -0.02344,-0.57422 0,-0.29297 0.01172,-0.48047 0.01172,-0.19922 0.04687,-0.32813 0.03516,-0.1289 0.08203,-0.22265 0.05859,-0.0937 0.175782,-0.19922 0.117187,-0.11719 0.480469,-0.33985 0.363282,-0.22265 0.914063,-0.43359 0.550782,-0.21094 1.265627,-0.35156 0.726563,-0.15235 1.570314,-0.15235 1.101563,0 1.945314,0.25781 0.85547,0.25782 1.429689,0.75 0.585938,0.48047 0.878907,1.19532 0.304688,0.70312 0.304688,1.59375 0,0.69141 -0.175782,1.28906 -0.175781,0.59766 -0.515625,1.06641 -0.339844,0.46875 -0.85547,0.79688 -0.503906,0.32812 -1.171876,0.49218 v 0.0352 q 0.796876,0.0937 1.429689,0.41016 0.632813,0.30469 1.066407,0.77344 0.445313,0.46875 0.679688,1.0664 0.234376,0.58594 0.234376,1.26563 z"
   id="text76"
   style="font-weight:bold;font-size:24px;font-family:Calibri;-inkscape-font-specification:'Calibri, Bold';fill:#f8f8f8;fill-opacity:1;stroke:none;stroke-opacity:1"
   class="st4"
   aria-label="03" /></g>
		<g
   id="shape1089-153"
   transform="translate(-42.5197,-72.2835)"
   style="fill:#f8f8f8;fill-opacity:1;stroke:none;stroke-opacity:1">
			<title
   id="title77">Sheet.1089</title>
			<desc
   id="desc77">N</desc>
			
					<path
   d="m 48.776262,271.18188 q 0,0.26954 -0.09375,0.48047 -0.09375,0.21094 -0.257812,0.35157 -0.152344,0.14062 -0.375001,0.21093 -0.210937,0.0586 -0.433594,0.0586 h -1.312501 q -0.410157,0 -0.714845,-0.082 -0.292969,-0.082 -0.550781,-0.29297 -0.246094,-0.22266 -0.48047,-0.58594 -0.234375,-0.375 -0.527344,-0.96094 l -3.773441,-7.08985 q -0.328125,-0.63281 -0.667969,-1.35938 -0.339844,-0.73828 -0.609376,-1.42969 h -0.02344 q 0.04687,0.84376 0.07031,1.68751 0.02344,0.83203 0.02344,1.72265 v 7.93361 q 0,0.11718 -0.07031,0.21093 -0.05859,0.0937 -0.222656,0.16407 -0.152344,0.0586 -0.421876,0.0937 -0.269531,0.0351 -0.691407,0.0351 -0.410156,0 -0.679688,-0.0351 -0.269531,-0.0352 -0.421875,-0.0937 -0.152344,-0.0703 -0.210938,-0.16407 -0.05859,-0.0937 -0.05859,-0.21093 V 258.1975 q 0,-0.55079 0.316407,-0.82032 0.328125,-0.28125 0.796876,-0.28125 h 1.652345 q 0.445313,0 0.750001,0.082 0.304687,0.0703 0.539063,0.2461 0.246094,0.17578 0.457031,0.49219 0.210938,0.30468 0.433594,0.76172 l 2.953128,5.54297 q 0.257813,0.50391 0.503907,0.99609 0.257813,0.48047 0.492188,0.97266 0.234375,0.48047 0.457032,0.94922 0.222656,0.46875 0.433594,0.9375 h 0.01172 q -0.03516,-0.82031 -0.05859,-1.71094 -0.01172,-0.89062 -0.01172,-1.69922 v -7.11329 q 0,-0.11718 0.07031,-0.21093 0.07031,-0.0937 0.234375,-0.16407 0.164062,-0.0703 0.433594,-0.0937 0.269531,-0.0351 0.691407,-0.0351 0.398438,0 0.667969,0.0351 0.269532,0.0234 0.410157,0.0937 0.152344,0.0703 0.210938,0.16407 0.05859,0.0937 0.05859,0.21093 z"
   id="text77"
   style="font-weight:bold;font-size:24px;font-family:Calibri;-inkscape-font-specification:'Calibri, Bold';fill:#f8f8f8;fill-opacity:1;stroke:none;stroke-opacity:1"
   class="st4"
   aria-label="N" /></g>
		<g
   id="shape1090-156"
   transform="rotate(-30,-113.67905,398.64979)"
   style="fill:#f8f8f8;fill-opacity:1;stroke:none;stroke-opacity:1">
			<title
   id="title78">Sheet.1090</title>
			<desc
   id="desc78">33</desc>
			
					<path
   d="m 41.492824,267.8186 q 0,1.13672 -0.433594,2.01563 -0.433595,0.8789 -1.207033,1.47656 -0.773438,0.59766 -1.851564,0.91406 -1.078126,0.30469 -2.355471,0.30469 -0.773438,0 -1.453126,-0.11719 -0.679689,-0.10547 -1.207033,-0.26953 -0.515625,-0.16406 -0.855469,-0.33984 -0.339845,-0.17578 -0.445313,-0.26953 -0.105469,-0.0937 -0.164063,-0.21094 -0.04687,-0.11719 -0.09375,-0.26953 -0.03516,-0.16407 -0.05859,-0.39844 -0.01172,-0.24609 -0.01172,-0.58594 0,-0.5625 0.09375,-0.77344 0.09375,-0.22265 0.281251,-0.22265 0.117187,0 0.398438,0.16406 0.292969,0.15234 0.738282,0.33984 0.445312,0.17578 1.042969,0.33985 0.597657,0.15234 1.359377,0.15234 0.644531,0 1.136719,-0.15234 0.492188,-0.15235 0.832032,-0.42188 0.351563,-0.28125 0.515626,-0.66797 0.175781,-0.39844 0.175781,-0.8789 0,-0.52735 -0.210937,-0.94922 -0.199219,-0.42188 -0.609376,-0.71485 -0.398438,-0.30469 -1.019532,-0.46875 -0.609376,-0.16406 -1.441408,-0.16406 h -1.312501 q -0.152344,0 -0.257813,-0.0352 -0.105469,-0.0469 -0.175781,-0.17578 -0.07031,-0.12891 -0.105469,-0.35156 -0.02344,-0.23438 -0.02344,-0.59766 0,-0.33984 0.02344,-0.55078 0.03516,-0.22266 0.09375,-0.33984 0.07031,-0.11719 0.164063,-0.16407 0.105469,-0.0469 0.246094,-0.0469 h 1.32422 q 0.679688,0 1.207032,-0.15235 0.527344,-0.16406 0.878907,-0.45703 0.363282,-0.29297 0.550782,-0.70312 0.1875,-0.42188 0.1875,-0.92579 0,-0.38671 -0.128906,-0.72656 -0.128907,-0.35156 -0.386719,-0.59766 -0.246094,-0.25781 -0.644532,-0.39843 -0.398438,-0.15235 -0.937501,-0.15235 -0.609376,0 -1.148439,0.1875 -0.539063,0.17578 -0.972657,0.39844 -0.421875,0.21094 -0.726563,0.39844 -0.292969,0.1875 -0.433594,0.1875 -0.09375,0 -0.164063,-0.0352 -0.07031,-0.0469 -0.117188,-0.16406 -0.04687,-0.11719 -0.07031,-0.33984 -0.02344,-0.22266 -0.02344,-0.57422 0,-0.29297 0.01172,-0.48047 0.01172,-0.19922 0.04687,-0.32813 0.03516,-0.1289 0.08203,-0.22265 0.05859,-0.0937 0.175781,-0.19922 0.117188,-0.11719 0.480469,-0.33985 0.363282,-0.22265 0.914064,-0.43359 0.550781,-0.21094 1.265626,-0.35156 0.726563,-0.15235 1.570314,-0.15235 1.101563,0 1.945314,0.25781 0.85547,0.25782 1.429689,0.75 0.585938,0.48047 0.878907,1.19532 0.304688,0.70312 0.304688,1.59375 0,0.69141 -0.175782,1.28906 -0.175781,0.59766 -0.515625,1.06641 -0.339844,0.46875 -0.85547,0.79688 -0.503906,0.32812 -1.171876,0.49218 v 0.0352 q 0.796876,0.0937 1.429689,0.41016 0.632813,0.30469 1.066407,0.77344 0.445313,0.46875 0.679689,1.0664 0.234375,0.58594 0.234375,1.26563 z m 12.164074,0 q 0,1.13672 -0.433594,2.01563 -0.433595,0.8789 -1.207033,1.47656 -0.773438,0.59766 -1.851564,0.91406 -1.078126,0.30469 -2.355471,0.30469 -0.773438,0 -1.453127,-0.11719 -0.679688,-0.10547 -1.207032,-0.26953 -0.515625,-0.16406 -0.85547,-0.33984 -0.339844,-0.17578 -0.445312,-0.26953 -0.105469,-0.0937 -0.164063,-0.21094 -0.04687,-0.11719 -0.09375,-0.26953 -0.03516,-0.16407 -0.05859,-0.39844 -0.01172,-0.24609 -0.01172,-0.58594 0,-0.5625 0.09375,-0.77344 0.09375,-0.22265 0.281251,-0.22265 0.117187,0 0.398437,0.16406 0.29297,0.15234 0.738282,0.33984 0.445313,0.17578 1.04297,0.33985 0.597657,0.15234 1.359376,0.15234 0.644532,0 1.13672,-0.15234 0.492188,-0.15235 0.832032,-0.42188 0.351563,-0.28125 0.515626,-0.66797 0.175781,-0.39844 0.175781,-0.8789 0,-0.52735 -0.210937,-0.94922 -0.199219,-0.42188 -0.609376,-0.71485 -0.398438,-0.30469 -1.019532,-0.46875 -0.609376,-0.16406 -1.441408,-0.16406 H 45.50064 q -0.152344,0 -0.257813,-0.0352 -0.105469,-0.0469 -0.175781,-0.17578 -0.07031,-0.12891 -0.105469,-0.35156 -0.02344,-0.23438 -0.02344,-0.59766 0,-0.33984 0.02344,-0.55078 0.03516,-0.22266 0.09375,-0.33984 0.07031,-0.11719 0.164063,-0.16407 0.105468,-0.0469 0.246094,-0.0469 h 1.32422 q 0.679688,0 1.207032,-0.15235 0.527344,-0.16406 0.878907,-0.45703 0.363282,-0.29297 0.550782,-0.70312 0.1875,-0.42188 0.1875,-0.92579 0,-0.38671 -0.128906,-0.72656 -0.128907,-0.35156 -0.386719,-0.59766 -0.246094,-0.25781 -0.644532,-0.39843 -0.398438,-0.15235 -0.937501,-0.15235 -0.609376,0 -1.148439,0.1875 -0.539063,0.17578 -0.972657,0.39844 -0.421875,0.21094 -0.726563,0.39844 -0.292969,0.1875 -0.433594,0.1875 -0.09375,0 -0.164063,-0.0352 -0.07031,-0.0469 -0.117188,-0.16406 -0.04687,-0.11719 -0.07031,-0.33984 -0.02344,-0.22266 -0.02344,-0.57422 0,-0.29297 0.01172,-0.48047 0.01172,-0.19922 0.04687,-0.32813 0.03516,-0.1289 0.08203,-0.22265 0.05859,-0.0937 0.175782,-0.19922 0.117187,-0.11719 0.480469,-0.33985 0.363282,-0.22265 0.914063,-0.43359 0.550782,-0.21094 1.265627,-0.35156 0.726563,-0.15235 1.570314,-0.15235 1.101563,0 1.945314,0.25781 0.85547,0.25782 1.429689,0.75 0.585938,0.48047 0.878907,1.19532 0.304688,0.70312 0.304688,1.59375 0,0.69141 -0.175782,1.28906 -0.175781,0.59766 -0.515625,1.06641 -0.339844,0.46875 -0.85547,0.79688 -0.503906,0.32812 -1.171876,0.49218 v 0.0352 q 0.796876,0.0937 1.429689,0.41016 0.632813,0.30469 1.066407,0.77344 0.445313,0.46875 0.679688,1.0664 0.234376,0.58594 0.234376,1.26563 z"
   id="text78"
   style="font-weight:bold;font-size:24px;font-family:Calibri;-inkscape-font-specification:'Calibri, Bold';fill:#f8f8f8;fill-opacity:1;stroke:none;stroke-opacity:1"
   class="st4"
   aria-label="33" /></g>
		<g
   id="shape1091-159"
   transform="rotate(-60,-41.496334,356.41776)"
   style="fill:#f8f8f8;fill-opacity:1;stroke:none;stroke-opacity:1">
			<title
   id="title79">Sheet.1091</title>
			<desc
   id="desc79">30</desc>
			
					<path
   d="m 41.492824,267.8186 q 0,1.13672 -0.433594,2.01563 -0.433595,0.8789 -1.207033,1.47656 -0.773438,0.59766 -1.851564,0.91406 -1.078126,0.30469 -2.355471,0.30469 -0.773438,0 -1.453126,-0.11719 -0.679689,-0.10547 -1.207033,-0.26953 -0.515625,-0.16406 -0.855469,-0.33984 -0.339845,-0.17578 -0.445313,-0.26953 -0.105469,-0.0937 -0.164063,-0.21094 -0.04687,-0.11719 -0.09375,-0.26953 -0.03516,-0.16407 -0.05859,-0.39844 -0.01172,-0.24609 -0.01172,-0.58594 0,-0.5625 0.09375,-0.77344 0.09375,-0.22265 0.281251,-0.22265 0.117187,0 0.398438,0.16406 0.292969,0.15234 0.738282,0.33984 0.445312,0.17578 1.042969,0.33985 0.597657,0.15234 1.359377,0.15234 0.644531,0 1.136719,-0.15234 0.492188,-0.15235 0.832032,-0.42188 0.351563,-0.28125 0.515626,-0.66797 0.175781,-0.39844 0.175781,-0.8789 0,-0.52735 -0.210937,-0.94922 -0.199219,-0.42188 -0.609376,-0.71485 -0.398438,-0.30469 -1.019532,-0.46875 -0.609376,-0.16406 -1.441408,-0.16406 h -1.312501 q -0.152344,0 -0.257813,-0.0352 -0.105469,-0.0469 -0.175781,-0.17578 -0.07031,-0.12891 -0.105469,-0.35156 -0.02344,-0.23438 -0.02344,-0.59766 0,-0.33984 0.02344,-0.55078 0.03516,-0.22266 0.09375,-0.33984 0.07031,-0.11719 0.164063,-0.16407 0.105469,-0.0469 0.246094,-0.0469 h 1.32422 q 0.679688,0 1.207032,-0.15235 0.527344,-0.16406 0.878907,-0.45703 0.363282,-0.29297 0.550782,-0.70312 0.1875,-0.42188 0.1875,-0.92579 0,-0.38671 -0.128906,-0.72656 -0.128907,-0.35156 -0.386719,-0.59766 -0.246094,-0.25781 -0.644532,-0.39843 -0.398438,-0.15235 -0.937501,-0.15235 -0.609376,0 -1.148439,0.1875 -0.539063,0.17578 -0.972657,0.39844 -0.421875,0.21094 -0.726563,0.39844 -0.292969,0.1875 -0.433594,0.1875 -0.09375,0 -0.164063,-0.0352 -0.07031,-0.0469 -0.117188,-0.16406 -0.04687,-0.11719 -0.07031,-0.33984 -0.02344,-0.22266 -0.02344,-0.57422 0,-0.29297 0.01172,-0.48047 0.01172,-0.19922 0.04687,-0.32813 0.03516,-0.1289 0.08203,-0.22265 0.05859,-0.0937 0.175781,-0.19922 0.117188,-0.11719 0.480469,-0.33985 0.363282,-0.22265 0.914064,-0.43359 0.550781,-0.21094 1.265626,-0.35156 0.726563,-0.15235 1.570314,-0.15235 1.101563,0 1.945314,0.25781 0.85547,0.25782 1.429689,0.75 0.585938,0.48047 0.878907,1.19532 0.304688,0.70312 0.304688,1.59375 0,0.69141 -0.175782,1.28906 -0.175781,0.59766 -0.515625,1.06641 -0.339844,0.46875 -0.85547,0.79688 -0.503906,0.32812 -1.171876,0.49218 v 0.0352 q 0.796876,0.0937 1.429689,0.41016 0.632813,0.30469 1.066407,0.77344 0.445313,0.46875 0.679689,1.0664 0.234375,0.58594 0.234375,1.26563 z m 12.539074,-3.19922 q 0,1.81641 -0.292969,3.28125 -0.292969,1.46485 -0.960938,2.4961 -0.656251,1.03125 -1.722658,1.58203 -1.054689,0.55078 -2.589847,0.55078 -1.558595,0 -2.578127,-0.52734 -1.019532,-0.53907 -1.617189,-1.53516 -0.597657,-1.00781 -0.843751,-2.44922 -0.234375,-1.45313 -0.234375,-3.28125 0,-1.80469 0.292969,-3.26954 0.304688,-1.47656 0.960938,-2.50781 0.66797,-1.03126 1.722658,-1.58204 1.066408,-0.55078 2.589847,-0.55078 1.558595,0 2.578127,0.53906 1.031251,0.52735 1.628908,1.53516 0.597657,0.9961 0.832032,2.44922 0.234375,1.44141 0.234375,3.26954 z m -3.105472,0.15234 q 0,-1.07812 -0.05859,-1.89844 -0.05859,-0.83203 -0.187501,-1.44141 -0.117187,-0.60937 -0.304687,-1.03125 -0.175782,-0.42187 -0.433595,-0.66797 -0.257812,-0.25781 -0.585938,-0.36328 -0.328125,-0.10547 -0.726563,-0.10547 -0.691407,0 -1.148438,0.33985 -0.445313,0.32812 -0.714845,0.99609 -0.257813,0.66797 -0.363281,1.66407 -0.105469,0.99609 -0.105469,2.32031 0,1.61719 0.128906,2.6836 0.128906,1.05469 0.398438,1.6875 0.28125,0.62109 0.714844,0.87891 0.433595,0.24609 1.04297,0.24609 0.457032,0 0.808595,-0.14062 0.351562,-0.15235 0.609375,-0.44532 0.269532,-0.29297 0.445313,-0.73828 0.175782,-0.44531 0.28125,-1.03125 0.117188,-0.58594 0.152344,-1.32422 0.04687,-0.73828 0.04687,-1.62891 z"
   id="text79"
   style="font-weight:bold;font-size:24px;font-family:Calibri;-inkscape-font-specification:'Calibri, Bold';fill:#f8f8f8;fill-opacity:1;stroke:none;stroke-opacity:1"
   class="st4"
   aria-label="30" /></g>
		<g
   id="shape1092-162"
   transform="rotate(-90,-14.882,340.866)"
   style="fill:#f8f8f8;fill-opacity:1;stroke:none;stroke-opacity:1">
			<title
   id="title80">Sheet.1092</title>
			<desc
   id="desc80">W</desc>
			
					<path
   d="m 49.253297,271.47485 q -0.07031,0.28125 -0.199219,0.45703 -0.117187,0.16407 -0.363281,0.25782 -0.246094,0.082 -0.632813,0.10547 -0.386719,0.0351 -0.984376,0.0351 -0.66797,0 -1.078126,-0.0351 -0.398438,-0.0234 -0.632813,-0.10547 -0.234375,-0.0937 -0.339844,-0.25782 -0.105469,-0.17578 -0.164063,-0.45703 l -2.425784,-9.60938 h -0.02344 l -2.296877,9.60938 q -0.05859,0.26953 -0.164063,0.44532 -0.105469,0.16406 -0.339844,0.25781 -0.222656,0.0937 -0.621094,0.11719 -0.386719,0.0351 -1.031251,0.0351 -0.679688,0 -1.089845,-0.0351 -0.398438,-0.0234 -0.632813,-0.10547 -0.234375,-0.0937 -0.339844,-0.25782 -0.105469,-0.17578 -0.175782,-0.45703 l -3.445316,-13.23048 q -0.105468,-0.42187 -0.117187,-0.65625 -0.01172,-0.24609 0.128906,-0.375 0.152344,-0.12891 0.480469,-0.15234 0.339845,-0.0352 0.937501,-0.0352 0.550782,0 0.867189,0.0234 0.328125,0.0117 0.492188,0.082 0.164062,0.0586 0.222656,0.1875 0.05859,0.11719 0.09375,0.33984 l 2.660159,11.6133 h 0.01172 l 2.765627,-11.53127 q 0.04687,-0.22265 0.117188,-0.36328 0.08203,-0.14062 0.257813,-0.21093 0.1875,-0.082 0.503906,-0.10547 0.316407,-0.0352 0.843751,-0.0352 0.562501,0 0.890626,0.0234 0.339844,0.0234 0.515626,0.10547 0.1875,0.0703 0.269531,0.21093 0.08203,0.14063 0.128907,0.375 l 2.859377,11.53127 h 0.02344 l 2.660159,-11.57814 q 0.03516,-0.1875 0.09375,-0.31641 0.05859,-0.14062 0.222656,-0.21093 0.164063,-0.082 0.468751,-0.10547 0.304687,-0.0352 0.855469,-0.0352 0.515626,0 0.796876,0.0352 0.292969,0.0234 0.421875,0.15234 0.128907,0.12891 0.105469,0.38672 -0.01172,0.24609 -0.117187,0.67969 z"
   id="text80"
   style="font-weight:bold;font-size:24px;font-family:Calibri;-inkscape-font-specification:'Calibri, Bold';fill:#f8f8f8;fill-opacity:1;stroke:none;stroke-opacity:1"
   class="st4"
   aria-label="W" /></g>
		<g
   id="shape1093-165"
   transform="rotate(-120,0.31849053,331.82945)"
   style="fill:#f8f8f8;fill-opacity:1;stroke:none;stroke-opacity:1">
			<title
   id="title81">Sheet.1093</title>
			<desc
   id="desc81">24</desc>
			
					<path
   d="m 41.563136,271.0061 q 0,0.33985 -0.03516,0.58594 -0.02344,0.23438 -0.08203,0.38672 -0.05859,0.15234 -0.152344,0.22266 -0.09375,0.0586 -0.210938,0.0586 h -8.718758 q -0.257813,0 -0.445313,-0.0469 -0.1875,-0.0469 -0.304688,-0.17578 -0.117188,-0.14062 -0.175781,-0.39843 -0.04687,-0.25782 -0.04687,-0.66797 0,-0.38672 0.03516,-0.65625 0.03516,-0.28125 0.128906,-0.49219 0.09375,-0.22266 0.234375,-0.42188 0.152344,-0.21094 0.38672,-0.45703 l 2.625002,-2.8125 q 0.785157,-0.82032 1.265626,-1.48828 0.48047,-0.67969 0.750001,-1.23047 0.269532,-0.56251 0.363282,-1.03126 0.105468,-0.46875 0.105468,-0.89062 0,-0.38672 -0.128906,-0.72656 -0.117188,-0.35157 -0.363282,-0.60938 -0.234375,-0.25781 -0.597656,-0.39844 -0.363282,-0.15234 -0.85547,-0.15234 -0.691407,0 -1.23047,0.17578 -0.527344,0.17578 -0.937501,0.39844 -0.398438,0.21093 -0.667969,0.39843 -0.269532,0.17579 -0.421875,0.17579 -0.105469,0 -0.187501,-0.0703 -0.07031,-0.0703 -0.117187,-0.23437 -0.04687,-0.16406 -0.08203,-0.4336 -0.02344,-0.28125 -0.02344,-0.67968 0,-0.26954 0.01172,-0.44532 0.02344,-0.1875 0.05859,-0.3164 0.03516,-0.14063 0.09375,-0.23438 0.05859,-0.10547 0.199218,-0.24609 0.152344,-0.14063 0.539063,-0.35157 0.398438,-0.22265 0.972658,-0.42187 0.574219,-0.21094 1.265626,-0.35156 0.691407,-0.14063 1.441407,-0.14063 1.183595,0 2.062502,0.30469 0.890626,0.29297 1.476564,0.83203 0.585938,0.52735 0.867189,1.26563 0.292969,0.72656 0.292969,1.57031 0,0.73828 -0.140625,1.45313 -0.140626,0.71484 -0.585938,1.54687 -0.445313,0.82032 -1.253908,1.82813 -0.808594,0.9961 -2.144533,2.32032 l -1.769533,1.8164 h 5.976568 q 0.117188,0 0.210938,0.0703 0.105469,0.0703 0.175781,0.22265 0.07031,0.14063 0.105469,0.38672 0.03516,0.23438 0.03516,0.5625 z m 12.632825,-3.10547 q 0,0.59766 -0.128907,0.91406 -0.117187,0.30469 -0.328125,0.30469 h -1.347658 v 2.74219 q 0,0.11719 -0.07031,0.21094 -0.07031,0.082 -0.246094,0.14062 -0.175782,0.0586 -0.457032,0.082 -0.28125,0.0351 -0.726563,0.0351 -0.421875,0 -0.714844,-0.0351 -0.281251,-0.0234 -0.457032,-0.082 -0.164063,-0.0586 -0.234375,-0.14062 -0.05859,-0.0937 -0.05859,-0.21094 v -2.74219 h -5.800787 q -0.164063,0 -0.292969,-0.0351 -0.128906,-0.0469 -0.222656,-0.1875 -0.08203,-0.15235 -0.128907,-0.42188 -0.03516,-0.28125 -0.03516,-0.73828 0,-0.375 0.01172,-0.64453 0.02344,-0.28125 0.05859,-0.50391 0.04687,-0.22266 0.117187,-0.42188 0.08203,-0.19921 0.199219,-0.42187 l 4.710942,-8.3086 q 0.05859,-0.10547 0.199219,-0.17578 0.140625,-0.082 0.386719,-0.12891 0.257813,-0.0586 0.644532,-0.082 0.386719,-0.0234 0.937501,-0.0234 0.597657,0 1.019532,0.0352 0.421876,0.0234 0.667969,0.0937 0.257813,0.0586 0.375001,0.15234 0.117187,0.0937 0.117187,0.22266 v 9.12891 h 1.347658 q 0.1875,0 0.316407,0.29297 0.140625,0.28125 0.140625,0.94922 z m -4.769536,-8.21485 h -0.02344 l -3.996097,6.97266 h 4.019535 z"
   id="text81"
   style="font-weight:bold;font-size:24px;font-family:Calibri;-inkscape-font-specification:'Calibri, Bold';fill:#f8f8f8;fill-opacity:1;stroke:none;stroke-opacity:1"
   class="st4"
   aria-label="24" /></g>
		<g
   id="shape1094-168"
   transform="rotate(-150,11.655717,325.31773)"
   style="fill:#f8f8f8;fill-opacity:1;stroke:none;stroke-opacity:1">
			<title
   id="title82">Sheet.1094</title>
			<desc
   id="desc82">21</desc>
			
					<path
   d="m 41.563136,271.0061 q 0,0.33985 -0.03516,0.58594 -0.02344,0.23438 -0.08203,0.38672 -0.05859,0.15234 -0.152344,0.22266 -0.09375,0.0586 -0.210938,0.0586 h -8.718758 q -0.257813,0 -0.445313,-0.0469 -0.1875,-0.0469 -0.304688,-0.17578 -0.117188,-0.14062 -0.175781,-0.39843 -0.04687,-0.25782 -0.04687,-0.66797 0,-0.38672 0.03516,-0.65625 0.03516,-0.28125 0.128906,-0.49219 0.09375,-0.22266 0.234375,-0.42188 0.152344,-0.21094 0.38672,-0.45703 l 2.625002,-2.8125 q 0.785157,-0.82032 1.265626,-1.48828 0.48047,-0.67969 0.750001,-1.23047 0.269532,-0.56251 0.363282,-1.03126 0.105468,-0.46875 0.105468,-0.89062 0,-0.38672 -0.128906,-0.72656 -0.117188,-0.35157 -0.363282,-0.60938 -0.234375,-0.25781 -0.597656,-0.39844 -0.363282,-0.15234 -0.85547,-0.15234 -0.691407,0 -1.23047,0.17578 -0.527344,0.17578 -0.937501,0.39844 -0.398438,0.21093 -0.667969,0.39843 -0.269532,0.17579 -0.421875,0.17579 -0.105469,0 -0.187501,-0.0703 -0.07031,-0.0703 -0.117187,-0.23437 -0.04687,-0.16406 -0.08203,-0.4336 -0.02344,-0.28125 -0.02344,-0.67968 0,-0.26954 0.01172,-0.44532 0.02344,-0.1875 0.05859,-0.3164 0.03516,-0.14063 0.09375,-0.23438 0.05859,-0.10547 0.199218,-0.24609 0.152344,-0.14063 0.539063,-0.35157 0.398438,-0.22265 0.972658,-0.42187 0.574219,-0.21094 1.265626,-0.35156 0.691407,-0.14063 1.441407,-0.14063 1.183595,0 2.062502,0.30469 0.890626,0.29297 1.476564,0.83203 0.585938,0.52735 0.867189,1.26563 0.292969,0.72656 0.292969,1.57031 0,0.73828 -0.140625,1.45313 -0.140626,0.71484 -0.585938,1.54687 -0.445313,0.82032 -1.253908,1.82813 -0.808594,0.9961 -2.144533,2.32032 l -1.769533,1.8164 h 5.976568 q 0.117188,0 0.210938,0.0703 0.105469,0.0703 0.175781,0.22265 0.07031,0.14063 0.105469,0.38672 0.03516,0.23438 0.03516,0.5625 z m 12.023449,0.082 q 0,0.32813 -0.03516,0.5625 -0.03516,0.22266 -0.105469,0.36329 -0.05859,0.1289 -0.140625,0.1875 -0.08203,0.0586 -0.1875,0.0586 h -8.367196 q -0.09375,0 -0.175781,-0.0586 -0.08203,-0.0586 -0.152344,-0.1875 -0.05859,-0.14063 -0.09375,-0.36329 -0.03516,-0.23437 -0.03516,-0.5625 0,-0.33984 0.02344,-0.5625 0.03516,-0.23437 0.09375,-0.375 0.07031,-0.14062 0.152344,-0.19922 0.08203,-0.0703 0.1875,-0.0703 h 2.824222 v -9.8672 l -2.437503,1.34766 q -0.269531,0.12891 -0.445313,0.16406 -0.164062,0.0234 -0.269531,-0.0703 -0.09375,-0.10547 -0.128907,-0.35156 -0.03516,-0.24609 -0.03516,-0.69141 0,-0.28125 0.01172,-0.45703 0.01172,-0.1875 0.05859,-0.31641 0.04687,-0.1289 0.128906,-0.21093 0.08203,-0.082 0.222657,-0.17579 l 3.257815,-2.10937 q 0.05859,-0.0469 0.140625,-0.0703 0.09375,-0.0352 0.234376,-0.0469 0.140625,-0.0234 0.363281,-0.0234 0.234375,-0.0117 0.597657,-0.0117 0.445313,0 0.714844,0.0234 0.281251,0.0117 0.421876,0.0586 0.140625,0.0351 0.1875,0.10546 0.04687,0.0703 0.04687,0.17579 v 12.52735 h 2.472659 q 0.105469,0 0.1875,0.0703 0.09375,0.0586 0.152344,0.19922 0.07031,0.14063 0.09375,0.375 0.03516,0.22266 0.03516,0.5625 z"
   id="text82"
   style="font-weight:bold;font-size:24px;font-family:Calibri;-inkscape-font-specification:'Calibri, Bold';fill:#f8f8f8;fill-opacity:1;stroke:none;stroke-opacity:1"
   class="st4"
   aria-label="21" /></g>
		<g
   id="shape1095-171"
   transform="rotate(180,21.25985,319.6065)"
   style="fill:#f8f8f8;fill-opacity:1;stroke:none;stroke-opacity:1">
			<title
   id="title83">Sheet.1095</title>
			<desc
   id="desc83">S</desc>
			
					<path
   d="m 47.490634,267.71313 q 0,1.19531 -0.445313,2.09766 -0.445313,0.90234 -1.207033,1.51172 -0.761719,0.59766 -1.781251,0.90234 -1.019533,0.30469 -2.17969,0.30469 -0.785157,0 -1.464845,-0.12891 -0.66797,-0.1289 -1.183595,-0.30468 -0.515625,-0.1875 -0.867188,-0.38672 -0.339844,-0.19922 -0.492188,-0.35156 -0.152344,-0.15235 -0.222657,-0.4336 -0.05859,-0.29297 -0.05859,-0.83203 0,-0.36328 0.02344,-0.60938 0.02344,-0.24609 0.07031,-0.39843 0.05859,-0.15235 0.140625,-0.21094 0.09375,-0.0703 0.210937,-0.0703 0.164063,0 0.457032,0.19921 0.304688,0.1875 0.773438,0.42188 0.468751,0.23437 1.113283,0.43359 0.65625,0.1875 1.51172,0.1875 0.5625,0 1.007813,-0.1289 0.445313,-0.14063 0.750001,-0.38672 0.316407,-0.2461 0.480469,-0.60938 0.164063,-0.36328 0.164063,-0.80859 0,-0.51563 -0.28125,-0.87891 -0.281251,-0.375 -0.738282,-0.65625 -0.445313,-0.29297 -1.019533,-0.53906 -0.574219,-0.25782 -1.183595,-0.53907 -0.609375,-0.28125 -1.183594,-0.63281 -0.57422,-0.36328 -1.031251,-0.85547 -0.445313,-0.5039 -0.726564,-1.18359 -0.28125,-0.67969 -0.28125,-1.62891 0,-1.08985 0.398438,-1.91016 0.410157,-0.83203 1.089845,-1.37109 0.691407,-0.55079 1.617189,-0.82032 0.937501,-0.26953 1.980471,-0.26953 0.539063,0 1.078126,0.082 0.539063,0.082 1.007813,0.22266 0.46875,0.14062 0.832032,0.31641 0.363282,0.17578 0.480469,0.29296 0.117188,0.11719 0.152344,0.19922 0.04687,0.082 0.07031,0.22266 0.03516,0.12891 0.04687,0.33984 0.01172,0.19922 0.01172,0.50391 0,0.33984 -0.02344,0.57422 -0.01172,0.23438 -0.05859,0.38672 -0.03516,0.15234 -0.117187,0.22266 -0.07031,0.0703 -0.199219,0.0703 -0.128907,0 -0.410157,-0.16406 -0.28125,-0.16407 -0.691407,-0.35157 -0.410157,-0.19922 -0.94922,-0.35156 -0.539063,-0.16406 -1.183594,-0.16406 -0.503907,0 -0.878908,0.1289 -0.375,0.11719 -0.632813,0.33985 -0.246094,0.21094 -0.375,0.51562 -0.117188,0.30469 -0.117188,0.64454 0,0.5039 0.269532,0.8789 0.28125,0.36328 0.738282,0.65625 0.46875,0.28125 1.054688,0.53907 0.585938,0.24609 1.195314,0.52734 0.609376,0.28125 1.195314,0.64453 0.585938,0.35156 1.042969,0.85547 0.457032,0.49219 0.738282,1.17188 0.281251,0.66797 0.281251,1.58203 z"
   id="text83"
   style="font-weight:bold;font-size:24px;font-family:Calibri;-inkscape-font-specification:'Calibri, Bold';fill:#f8f8f8;fill-opacity:1;stroke:none;stroke-opacity:1"
   class="st4"
   aria-label="S" /></g>
		<g
   id="shape1096-174"
   transform="rotate(150,31.005749,313.96297)"
   style="fill:#f8f8f8;fill-opacity:1;stroke:none;stroke-opacity:1">
			<title
   id="title84">Sheet.1096</title>
			<desc
   id="desc84">15</desc>
			
					<path
   d="m 41.422511,271.08813 q 0,0.32813 -0.03516,0.5625 -0.03516,0.22266 -0.105469,0.36329 -0.05859,0.1289 -0.140625,0.1875 -0.08203,0.0586 -0.1875,0.0586 h -8.367196 q -0.09375,0 -0.175781,-0.0586 -0.08203,-0.0586 -0.152344,-0.1875 -0.05859,-0.14063 -0.09375,-0.36329 -0.03516,-0.23437 -0.03516,-0.5625 0,-0.33984 0.02344,-0.5625 0.03516,-0.23437 0.09375,-0.375 0.07031,-0.14062 0.152344,-0.19922 0.08203,-0.0703 0.1875,-0.0703 h 2.824222 v -9.8672 l -2.437503,1.34766 q -0.269531,0.12891 -0.445313,0.16406 -0.164062,0.0234 -0.269531,-0.0703 -0.09375,-0.10547 -0.128906,-0.35156 -0.03516,-0.24609 -0.03516,-0.69141 0,-0.28125 0.01172,-0.45703 0.01172,-0.1875 0.05859,-0.31641 0.04687,-0.1289 0.128906,-0.21093 0.08203,-0.082 0.222657,-0.17579 l 3.257815,-2.10937 q 0.05859,-0.0469 0.140625,-0.0703 0.09375,-0.0352 0.234376,-0.0469 0.140625,-0.0234 0.363281,-0.0234 0.234375,-0.0117 0.597657,-0.0117 0.445313,0 0.714844,0.0234 0.281251,0.0117 0.421876,0.0586 0.140625,0.0351 0.1875,0.10546 0.04687,0.0703 0.04687,0.17579 v 12.52735 h 2.472659 q 0.105469,0 0.1875,0.0703 0.09375,0.0586 0.152344,0.19922 0.07031,0.14063 0.09375,0.375 0.03516,0.22266 0.03516,0.5625 z m 12.164074,-3.75 q 0,1.23047 -0.433594,2.20313 -0.421875,0.96094 -1.207032,1.6289 -0.773439,0.65626 -1.875002,1.00782 -1.089845,0.35156 -2.425784,0.35156 -0.703125,0 -1.335939,-0.0937 -0.632813,-0.082 -1.136719,-0.21094 -0.503907,-0.14062 -0.832032,-0.26953 -0.316407,-0.14062 -0.421876,-0.22265 -0.09375,-0.0937 -0.140625,-0.19922 -0.04687,-0.10547 -0.08203,-0.2461 -0.02344,-0.15234 -0.03516,-0.375 -0.01172,-0.22265 -0.01172,-0.52734 0,-0.32813 0.02344,-0.55078 0.02344,-0.23438 0.07031,-0.375 0.05859,-0.14063 0.128906,-0.19922 0.07031,-0.0586 0.164063,-0.0586 0.117187,0 0.351563,0.14063 0.246094,0.1289 0.632813,0.29297 0.398438,0.16406 0.960938,0.30469 0.562501,0.1289 1.347658,0.1289 0.679688,0 1.23047,-0.14062 0.5625,-0.14063 0.949219,-0.44532 0.386719,-0.3164 0.597657,-0.78515 0.210938,-0.46875 0.210938,-1.125 0,-0.56251 -0.175782,-0.9961 -0.175781,-0.44531 -0.550781,-0.75 -0.375001,-0.30469 -0.972658,-0.45703 -0.597656,-0.15235 -1.453126,-0.15235 -0.679688,0 -1.242189,0.0703 -0.550781,0.0703 -1.042969,0.0703 -0.339845,0 -0.492188,-0.16406 -0.140626,-0.17578 -0.140626,-0.63282 v -6.58594 q 0,-0.46875 0.175782,-0.66797 0.1875,-0.21094 0.585938,-0.21094 h 7.183601 q 0.105468,0 0.199218,0.0703 0.09375,0.0703 0.152344,0.22265 0.07031,0.15235 0.09375,0.41016 0.03516,0.24609 0.03516,0.59766 0,0.70312 -0.128907,1.01953 -0.117187,0.3164 -0.351562,0.3164 h -5.390631 v 3.2461 q 0.410157,-0.0469 0.808595,-0.0586 0.410157,-0.0117 0.855469,-0.0117 1.23047,0 2.17969,0.29297 0.960938,0.28125 1.60547,0.84375 0.656251,0.55078 0.996095,1.38281 0.339844,0.82032 0.339844,1.91016 z"
   id="text84"
   style="font-weight:bold;font-size:24px;font-family:Calibri;-inkscape-font-specification:'Calibri, Bold';fill:#f8f8f8;fill-opacity:1;stroke:none;stroke-opacity:1"
   class="st4"
   aria-label="15" /></g>
		<g
   id="shape1097-177"
   transform="rotate(120,42.201278,307.28092)"
   style="fill:#f8f8f8;fill-opacity:1;stroke:none;stroke-opacity:1">
			<title
   id="title85">Sheet.1097</title>
			<desc
   id="desc85">12</desc>
			
					<path
   d="m 41.422511,271.08813 q 0,0.32813 -0.03516,0.5625 -0.03516,0.22266 -0.105469,0.36329 -0.05859,0.1289 -0.140625,0.1875 -0.08203,0.0586 -0.1875,0.0586 h -8.367196 q -0.09375,0 -0.175781,-0.0586 -0.08203,-0.0586 -0.152344,-0.1875 -0.05859,-0.14063 -0.09375,-0.36329 -0.03516,-0.23437 -0.03516,-0.5625 0,-0.33984 0.02344,-0.5625 0.03516,-0.23437 0.09375,-0.375 0.07031,-0.14062 0.152344,-0.19922 0.08203,-0.0703 0.1875,-0.0703 h 2.824222 v -9.8672 l -2.437503,1.34766 q -0.269531,0.12891 -0.445313,0.16406 -0.164062,0.0234 -0.269531,-0.0703 -0.09375,-0.10547 -0.128906,-0.35156 -0.03516,-0.24609 -0.03516,-0.69141 0,-0.28125 0.01172,-0.45703 0.01172,-0.1875 0.05859,-0.31641 0.04687,-0.1289 0.128906,-0.21093 0.08203,-0.082 0.222657,-0.17579 l 3.257815,-2.10937 q 0.05859,-0.0469 0.140625,-0.0703 0.09375,-0.0352 0.234376,-0.0469 0.140625,-0.0234 0.363281,-0.0234 0.234375,-0.0117 0.597657,-0.0117 0.445313,0 0.714844,0.0234 0.281251,0.0117 0.421876,0.0586 0.140625,0.0351 0.1875,0.10546 0.04687,0.0703 0.04687,0.17579 v 12.52735 h 2.472659 q 0.105469,0 0.1875,0.0703 0.09375,0.0586 0.152344,0.19922 0.07031,0.14063 0.09375,0.375 0.03516,0.22266 0.03516,0.5625 z m 12.304699,-0.082 q 0,0.33985 -0.03516,0.58594 -0.02344,0.23438 -0.08203,0.38672 -0.05859,0.15234 -0.152344,0.22266 -0.09375,0.0586 -0.210938,0.0586 H 44.52798 q -0.257813,0 -0.445313,-0.0469 -0.1875,-0.0469 -0.304688,-0.17578 -0.117188,-0.14062 -0.175781,-0.39843 -0.04687,-0.25782 -0.04687,-0.66797 0,-0.38672 0.03516,-0.65625 0.03516,-0.28125 0.128906,-0.49219 0.09375,-0.22266 0.234375,-0.42188 0.152344,-0.21094 0.38672,-0.45703 l 2.625002,-2.8125 q 0.785157,-0.82032 1.265626,-1.48828 0.480469,-0.67969 0.750001,-1.23047 0.269531,-0.56251 0.363282,-1.03126 0.105468,-0.46875 0.105468,-0.89062 0,-0.38672 -0.128906,-0.72656 -0.117188,-0.35157 -0.363282,-0.60938 -0.234375,-0.25781 -0.597656,-0.39844 -0.363282,-0.15234 -0.85547,-0.15234 -0.691407,0 -1.23047,0.17578 -0.527344,0.17578 -0.937501,0.39844 -0.398438,0.21093 -0.667969,0.39843 -0.269532,0.17579 -0.421876,0.17579 -0.105468,0 -0.1875,-0.0703 -0.07031,-0.0703 -0.117187,-0.23437 -0.04687,-0.16406 -0.08203,-0.4336 -0.02344,-0.28125 -0.02344,-0.67968 0,-0.26954 0.01172,-0.44532 0.02344,-0.1875 0.05859,-0.3164 0.03516,-0.14063 0.09375,-0.23438 0.05859,-0.10547 0.199219,-0.24609 0.152344,-0.14063 0.539063,-0.35157 0.398438,-0.22265 0.972658,-0.42187 0.574219,-0.21094 1.265626,-0.35156 0.691407,-0.14063 1.441407,-0.14063 1.183595,0 2.062502,0.30469 0.890626,0.29297 1.476564,0.83203 0.585938,0.52735 0.867189,1.26563 0.292969,0.72656 0.292969,1.57031 0,0.73828 -0.140625,1.45313 -0.140626,0.71484 -0.585939,1.54687 -0.445312,0.82032 -1.253907,1.82813 -0.808595,0.9961 -2.144533,2.32032 l -1.769533,1.8164 h 5.976568 q 0.117188,0 0.210938,0.0703 0.105469,0.0703 0.175781,0.22265 0.07031,0.14063 0.105469,0.38672 0.03516,0.23438 0.03516,0.5625 z"
   id="text85"
   style="font-weight:bold;font-size:24px;font-family:Calibri;-inkscape-font-specification:'Calibri, Bold';fill:#f8f8f8;fill-opacity:1;stroke:none;stroke-opacity:1"
   class="st4"
   aria-label="12" /></g>
		<g
   id="shape1098-180"
   transform="rotate(90,57.4015,298.3465)"
   style="fill:#f8f8f8;fill-opacity:1;stroke:none;stroke-opacity:1">
			<title
   id="title86">Sheet.1098</title>
			<desc
   id="desc86">E</desc>
			
					<path
   d="m 47.310633,271.05298 q 0,0.33984 -0.03516,0.57422 -0.02344,0.22265 -0.08203,0.36328 -0.05859,0.14062 -0.152344,0.21094 -0.08203,0.0586 -0.1875,0.0586 h -7.617195 q -0.386719,0 -0.656251,-0.22266 -0.257813,-0.23437 -0.257813,-0.75 V 258.0686 q 0,-0.51563 0.257813,-0.73828 0.269532,-0.23438 0.656251,-0.23438 h 7.57032 q 0.105468,0 0.1875,0.0586 0.08203,0.0586 0.140625,0.21093 0.05859,0.14063 0.08203,0.375 0.03516,0.22266 0.03516,0.57422 0,0.32813 -0.03516,0.5625 -0.02344,0.22266 -0.08203,0.36329 -0.05859,0.14062 -0.140625,0.21093 -0.08203,0.0586 -0.1875,0.0586 h -5.414068 v 3.70313 h 4.582036 q 0.105468,0 0.1875,0.0703 0.09375,0.0586 0.152344,0.19922 0.05859,0.1289 0.08203,0.36328 0.03516,0.22266 0.03516,0.55078 0,0.33985 -0.03516,0.5625 -0.02344,0.22266 -0.08203,0.36328 -0.05859,0.12891 -0.152344,0.1875 -0.08203,0.0586 -0.1875,0.0586 h -4.582036 v 4.27734 h 5.460943 q 0.105468,0 0.1875,0.0703 0.09375,0.0586 0.152344,0.19922 0.05859,0.14062 0.08203,0.375 0.03516,0.22265 0.03516,0.5625 z"
   id="text86"
   style="font-weight:bold;font-size:24px;font-family:Calibri;-inkscape-font-specification:'Calibri, Bold';fill:#f8f8f8;fill-opacity:1;stroke:none;stroke-opacity:1"
   class="st4"
   aria-label="E" /></g>
	</g>
<g
   id="g13"
   inkscape:label="overlay"
   style="display:inline">
		<title
   id="title1-9">Top</title>
		
		<g
   id="shape1006-3"
   transform="rotate(-90,0,283.465)">
			<title
   id="title3-4">Sheet.1006</title>
			<path
   d="M 0,283.46 H 124.72"
   class="st2"
   id="path3"
   style="fill:#ffc000;fill-opacity:1;stroke:#ffc000;stroke-width:2.16;stroke-linecap:round;stroke-linejoin:round;stroke-dasharray:none" />
		</g>
		<g
   id="shape1002-6"
   transform="translate(-68.0315,81.0709)">
			<title
   id="title4-8">Sheet.1002</title>
			<path
   d="M 68.03,114.52 A 113.649,113.649 -180 0 0 55.28,169.8 L 0,210.9 v 17.01 h 8.5 l 48.19,-17.01 2.84,42.52 -20.41,17.01 v 13.03 h 3.21 l 22.87,-11.33 2.83,6.8 2.84,-6.8 22.86,11.33 h 3.21 v -13.03 l -20.4,-17.01 2.83,-42.52 48.19,17.01 h 8.5 V 210.9 L 80.79,169.8 A 113.649,113.649 -180 0 0 68.03,114.52 Z"
   class="st3"
   id="path4"
   style="fill:#e5e5e5;fill-opacity:1;stroke:#ffff00;stroke-width:3.6;stroke-linecap:round;stroke-linejoin:round;stroke-dasharray:none;stroke-opacity:1" />
		</g>
		<g
   id="shape1014-8"
   transform="translate(-141.732,141.732)">
			<title
   id="title5-8">Sheet.1014</title>
			<path
   d="m 269.29,141.73 a 127.56,127.56 0 1 1 -255.12,0 127.56,127.56 0 1 1 255.12,0 z m 14.17,0 a 141.732,141.732 -180 1 0 -283.46,0 141.732,141.732 -180 1 0 283.46,0 z"
   class="st4"
   id="path5"
   style="display:inline;fill:#3f3f3f;stroke:#000000;stroke-width:4.5;stroke-linecap:round;stroke-linejoin:round" />
		</g>
		<g
   id="shape1005-10"
   transform="rotate(-90,-57.26,346.394)">
			<title
   id="title6-2">Sheet.1005</title>
			<path
   d="M 0,272.13 H 11.34 L 5.67,283.46 Z"
   class="st5"
   id="path6"
   style="fill:#ffff00;fill-opacity:1;stroke:#050505;stroke-width:0.720001;stroke-linecap:round;stroke-linejoin:round;stroke-dasharray:none;stroke-opacity:1" />
		</g>
		<g
   id="shape1007-12"
   transform="rotate(-45,-142.3367,350.44006)">
			<title
   id="title7-4">Sheet.1007</title>
			<path
   d="M 0,272.13 H 11.34 L 5.67,283.46 Z"
   class="st5"
   id="path7"
   style="fill:#ffff00;fill-opacity:1;stroke:#050505;stroke-width:0.720001;stroke-linecap:round;stroke-linejoin:round;stroke-dasharray:none;stroke-opacity:1" />
		</g>
		<g
   id="shape1009-14"
   transform="rotate(45,148.00578,336.75269)">
			<title
   id="title8-5">Sheet.1009</title>
			<path
   d="M 0,272.13 H 11.34 L 5.67,283.46 Z"
   class="st5"
   id="path8"
   style="fill:#ffff00;fill-opacity:1;stroke:#050505;stroke-width:0.720001;stroke-linecap:round;stroke-linejoin:round;stroke-dasharray:none;stroke-opacity:1" />
		</g>
		<g
   id="shape1010-16"
   transform="rotate(90,62.9295,340.7245)">
			<title
   id="title9-5">Sheet.1010</title>
			<path
   d="M 0,272.13 H 11.34 L 5.67,283.46 Z"
   class="st5"
   id="path9"
   style="fill:#ffff00;fill-opacity:1;stroke:#050505;stroke-width:0.720001;stroke-linecap:round;stroke-linejoin:round;stroke-dasharray:none;stroke-opacity:1" />
		</g>
		<g
   id="shape1011-18"
   transform="rotate(135,27.742131,342.42243)">
			<title
   id="title10-1">Sheet.1011</title>
			<path
   d="M 0,272.13 H 11.34 L 5.67,283.46 Z"
   class="st5"
   id="path10"
   style="fill:#ffff00;fill-opacity:1;stroke:#050505;stroke-width:0.720001;stroke-linecap:round;stroke-linejoin:round;stroke-dasharray:none;stroke-opacity:1" />
		</g>
		<g
   id="shape1012-20"
   transform="rotate(180,2.834645,343.559)">
			<title
   id="title11-7">Sheet.1012</title>
			<path
   d="M 0,272.13 H 11.34 L 5.67,283.46 Z"
   class="st5"
   id="path11"
   style="fill:#ffff00;fill-opacity:1;stroke:#050505;stroke-width:0.720001;stroke-linecap:round;stroke-linejoin:round;stroke-dasharray:none;stroke-opacity:1" />
		</g>
		<g
   id="shape1013-22"
   transform="rotate(-135,-22.072756,344.77035)">
			<title
   id="title12-1">Sheet.1013</title>
			<path
   d="M 0,272.13 H 11.34 L 5.67,283.46 Z"
   class="st5"
   id="path12"
   style="fill:#ffff00;fill-opacity:1;stroke:#050505;stroke-width:0.720001;stroke-linecap:round;stroke-linejoin:round;stroke-dasharray:none;stroke-opacity:1" />
		</g>
		<g
   id="shape1004-24"
   transform="translate(-5.66929,-120.189)">
			<title
   id="title13-1">Sheet.1004</title>
			<path
   d="M 0,272.13 H 11.34 L 5.67,283.46 Z"
   class="st5"
   id="path13"
   style="fill:#ffff00;fill-opacity:1;stroke:#050505;stroke-width:0.720001;stroke-linecap:round;stroke-linejoin:round;stroke-dasharray:none;stroke-opacity:1" />
		</g>
	</g><g
   id="g5"
   style="fill:#1f1f1f;fill-opacity:1;stroke:#000000;stroke-opacity:1"
   inkscape:label="fail">
		<title
   id="title1-94">Fail</title>
		
		
		
		<circle
   cx="141.73199"
   cy="141.73199"
   class="st1"
   id="ellipse2-2"
   style="fill:none;fill-opacity:1;stroke:#ff0000;stroke-opacity:1;stroke-width:4.5;stroke-linecap:round;stroke-linejoin:round"
   r="141.73199"
   transform="translate(-141.732,141.732)" /><rect
   x="0"
   y="280.63"
   width="283.465"
   height="2.83465"
   class="st2"
   id="rect3-5"
   style="fill:#ff0000;fill-opacity:1;stroke:#ff0000;stroke-opacity:1;stroke-width:0.75;stroke-linecap:round;stroke-linejoin:round"
   transform="rotate(-45,72.577299,453.8415)" /><rect
   x="0"
   y="280.63"
   width="283.465"
   height="2.83465"
   class="st2"
   id="rect4-7"
   style="fill:#ff0000;fill-opacity:1;stroke:#ff0000;stroke-opacity:1;stroke-width:0.75;stroke-linecap:round;stroke-linejoin:round"
   transform="rotate(45,69.155288,111.66996)" /><text
   x="52.869999"
   y="116.08"
   class="st4"
   id="text5"
   style="fill:#ff0000;fill-opacity:1;stroke:#ff0000;stroke-opacity:1;font-weight:bold;font-size:36px;font-family:Arial"
   transform="translate(-70.8661,113.386)">HI   <tspan
   x="30.879999"
   dy="3.5999999em"
   class="st5"
   id="tspan5"
   style="fill:#ff0000;fill-opacity:1;stroke:#ff0000;stroke-opacity:1">FAIL</tspan></text>
	</g><style
   type="text/css"
   id="style1-5">
	<![CDATA[
		.st1 {fill:none;stroke:#ff0000;stroke-linecap:round;stroke-linejoin:round;stroke-width:4.5}
		.st2 {fill:#ff0000;stroke:#ff0000;stroke-linecap:round;stroke-linejoin:round;stroke-width:0.75}
		.st3 {fill:none;stroke:none;stroke-linecap:round;stroke-linejoin:round;stroke-width:0.75}
		.st4 {fill:#ff0000;font-family:Arial;font-size:3em;font-weight:bold}
		.st5 {font-size:1em}
		.st6 {fill:none;fill-rule:evenodd;font-size:12px;overflow:visible;stroke-linecap:square;stroke-miterlimit:3}
	]]>
	</style></svg>
